M48
; DRILL file {KiCad (6.0.11-0)} date 
; FORMAT={-:-/ absolute / inch / decimal}
; #@! TF.CreationDate,2024-08-02T08:50:02-07:00
; #@! TF.GenerationSoftware,Kicad,Pcbnew,(6.0.11-0)
; #@! TF.FileFunction,Plated,1,2,PTH
FMAT,2
INCH
; #@! TA.AperFunction,Plated,PTH,ViaDrill
T1C0.0157
; #@! TA.AperFunction,Plated,PTH,ComponentDrill
T2C0.0157
; #@! TA.AperFunction,Plated,PTH,ComponentDrill
T3C0.0300
%
G90
G05
T1
X5.1575Y-2.0079
X5.1575Y-2.2835
X5.1575Y-2.6378
X5.1575Y-2.9528
X5.1575Y-3.2677
X5.1575Y-3.622
X5.2362Y-2.0079
X5.2559Y-3.1004
X5.2559Y-3.4547
X5.2657Y-2.7461
X5.3051Y-2.2933
X5.315Y-3.8583
X5.315Y-3.9764
X5.315Y-4.4882
X5.4331Y-2.4409
X5.4331Y-2.7165
X5.4331Y-3.0709
X5.4331Y-3.4252
X5.4331Y-3.8583
X5.4331Y-3.9764
X5.4331Y-4.4882
X5.4498Y-4.1742
X5.4532Y-4.1304
X5.4902Y-4.3642
X5.4966Y-4.2368
X5.4995Y-4.1924
X5.5029Y-4.2913
X5.5906Y-4.7638
X5.7431Y-2.4085
X5.935Y-2.2539
X6.1329Y-2.4085
X6.2598Y-4.7638
X6.3588Y-4.1924
X6.3622Y-4.3583
X6.3681Y-4.3051
X6.3774Y-4.2525
X6.3775Y-4.1028
X6.3941Y-4.161
X6.4173Y-4.4488
X6.4567Y-2.3622
X6.4567Y-2.6378
X6.4567Y-3.0709
X6.4567Y-3.4252
X6.4567Y-3.8583
X6.4567Y-4.0157
X6.4961Y-3.937
X6.4961Y-4.0945
X6.5256Y-3.7598
X6.5354Y-2.7559
X6.5354Y-3.8583
X6.5354Y-4.0157
X6.5354Y-4.4882
X6.5846Y-3.0315
X6.5945Y-2.3622
X6.6043Y-3.376
X6.6142Y-2.0079
X6.6831Y-2.8937
X6.6831Y-3.2382
X6.6929Y-2.2835
X6.6929Y-2.7165
X6.6929Y-3.0709
X6.6929Y-3.4646
X6.6929Y-3.6024
X6.6929Y-3.7402
X6.7126Y-2.0079
T2
X5.935Y-2.372
T3
X5.3313Y-2.1447
X5.3813Y-2.0447
X5.4313Y-2.1447
X5.4813Y-2.0447
X5.5313Y-2.1447
X5.5813Y-2.0447
X5.6313Y-2.1447
X5.6813Y-2.0447
X5.7313Y-2.1447
X5.7813Y-2.0447
X5.8313Y-2.1447
X5.8813Y-2.0447
X5.9313Y-2.1447
X5.9813Y-2.0447
X6.0313Y-2.1447
X6.0813Y-2.0447
X6.1313Y-2.1447
X6.1813Y-2.0447
X6.2313Y-2.1447
X6.2813Y-2.0447
X6.3313Y-2.1447
X6.3813Y-2.0447
X6.4313Y-2.1447
X6.4813Y-2.0447
X6.5313Y-2.1447
T0
M30
