%TF.GenerationSoftware,KiCad,Pcbnew,(6.0.11-0)*%
%TF.CreationDate,2024-08-02T08:50:10-07:00*%
%TF.ProjectId,TcBox_6x4,5463426f-785f-4367-9834-2e6b69636164,v1.0*%
%TF.SameCoordinates,Original*%
%TF.FileFunction,Soldermask,Bot*%
%TF.FilePolarity,Negative*%
%FSLAX46Y46*%
G04 Gerber Fmt 4.6, Leading zero omitted, Abs format (unit mm)*
G04 Created by KiCad (PCBNEW (6.0.11-0)) date 2024-08-02 08:50:10*
%MOMM*%
%LPD*%
G01*
G04 APERTURE LIST*
%ADD10C,3.263900*%
%ADD11C,0.800000*%
%ADD12C,1.778000*%
%ADD13C,1.524000*%
G04 APERTURE END LIST*
D10*
%TO.C,H3*%
X135543540Y-82520760D03*
%TD*%
%TO.C,H6*%
X165695860Y-73268520D03*
%TD*%
%TO.C,H5*%
X167304180Y-63856180D03*
%TD*%
%TO.C,H7*%
X165695860Y-82643900D03*
%TD*%
%TO.C,H2*%
X135525760Y-73238280D03*
%TD*%
D11*
%TO.C,R1*%
X150750000Y-60250000D03*
%TD*%
D10*
%TO.C,H4*%
X135544180Y-91936180D03*
%TD*%
%TO.C,H8*%
X165704180Y-91936180D03*
%TD*%
%TO.C,H1*%
X134004180Y-63856180D03*
%TD*%
D12*
%TO.C,J1*%
X131604180Y-53206180D03*
X169704180Y-53206180D03*
D13*
X135414180Y-54476180D03*
X137954180Y-54476180D03*
X140494180Y-54476180D03*
X143034180Y-54476180D03*
X145574180Y-54476180D03*
X148114180Y-54476180D03*
X150654180Y-54476180D03*
X153194180Y-54476180D03*
X155734180Y-54476180D03*
X158274180Y-54476180D03*
X160814180Y-54476180D03*
X163354180Y-54476180D03*
X165894180Y-54476180D03*
X136684180Y-51936180D03*
X139224180Y-51936180D03*
X141764180Y-51936180D03*
X144304180Y-51936180D03*
X146844180Y-51936180D03*
X149384180Y-51936180D03*
X151924180Y-51936180D03*
X154464180Y-51936180D03*
X157004180Y-51936180D03*
X159544180Y-51936180D03*
X162084180Y-51936180D03*
X164624180Y-51936180D03*
%TD*%
G36*
X133942121Y-50020002D02*
G01*
X133988614Y-50073658D01*
X134000000Y-50126000D01*
X134000000Y-55981885D01*
X134007530Y-56007530D01*
X138963095Y-60963095D01*
X138997121Y-61025407D01*
X139000000Y-61052190D01*
X139000000Y-103624000D01*
X138979998Y-103692121D01*
X138926342Y-103738614D01*
X138874000Y-103750000D01*
X137518115Y-103750000D01*
X137502876Y-103754475D01*
X137501671Y-103755865D01*
X137500000Y-103763548D01*
X137500000Y-111731885D01*
X137504475Y-111747124D01*
X137505865Y-111748329D01*
X137513548Y-111750000D01*
X143624000Y-111750000D01*
X143692121Y-111770002D01*
X143738614Y-111823658D01*
X143750000Y-111876000D01*
X143750000Y-122124000D01*
X143729998Y-122192121D01*
X143676342Y-122238614D01*
X143624000Y-122250000D01*
X133876000Y-122250000D01*
X133807879Y-122229998D01*
X133761386Y-122176342D01*
X133750000Y-122124000D01*
X133750000Y-96268115D01*
X133745525Y-96252876D01*
X133744135Y-96251671D01*
X133736452Y-96250000D01*
X130126000Y-96250000D01*
X130057879Y-96229998D01*
X130011386Y-96176342D01*
X130000000Y-96124000D01*
X130000000Y-50126000D01*
X130020002Y-50057879D01*
X130073658Y-50011386D01*
X130126000Y-50000000D01*
X133874000Y-50000000D01*
X133942121Y-50020002D01*
G37*
G36*
X171192121Y-50020002D02*
G01*
X171238614Y-50073658D01*
X171250000Y-50126000D01*
X171250000Y-96124000D01*
X171229998Y-96192121D01*
X171176342Y-96238614D01*
X171124000Y-96250000D01*
X167518115Y-96250000D01*
X167502876Y-96254475D01*
X167501671Y-96255865D01*
X167500000Y-96263548D01*
X167500000Y-122124000D01*
X167479998Y-122192121D01*
X167426342Y-122238614D01*
X167374000Y-122250000D01*
X157626000Y-122250000D01*
X157557879Y-122229998D01*
X157511386Y-122176342D01*
X157500000Y-122124000D01*
X157500000Y-111626000D01*
X157520002Y-111557879D01*
X157573658Y-111511386D01*
X157626000Y-111500000D01*
X163481885Y-111500000D01*
X163497124Y-111495525D01*
X163498329Y-111494135D01*
X163500000Y-111486452D01*
X163500000Y-105759194D01*
X163497358Y-105741193D01*
X162755314Y-103267713D01*
X162750000Y-103231507D01*
X162750000Y-60052190D01*
X162770002Y-59984069D01*
X162786905Y-59963095D01*
X167237188Y-55512812D01*
X167250000Y-55489350D01*
X167250000Y-50126000D01*
X167270002Y-50057879D01*
X167323658Y-50011386D01*
X167376000Y-50000000D01*
X171124000Y-50000000D01*
X171192121Y-50020002D01*
G37*
G36*
X157442121Y-56020002D02*
G01*
X157488614Y-56073658D01*
X157500000Y-56126000D01*
X157500000Y-62374000D01*
X157479998Y-62442121D01*
X157426342Y-62488614D01*
X157374000Y-62500000D01*
X143876000Y-62500000D01*
X143807879Y-62479998D01*
X143761386Y-62426342D01*
X143750000Y-62374000D01*
X143750000Y-56126000D01*
X143770002Y-56057879D01*
X143823658Y-56011386D01*
X143876000Y-56000000D01*
X157374000Y-56000000D01*
X157442121Y-56020002D01*
G37*
M02*
