%TF.GenerationSoftware,KiCad,Pcbnew,(6.0.11-0)*%
%TF.CreationDate,2024-08-02T08:23:09-07:00*%
%TF.ProjectId,TcBox_6x4,5463426f-785f-4367-9834-2e6b69636164,v1.0*%
%TF.SameCoordinates,Original*%
%TF.FileFunction,Copper,L2,Bot*%
%TF.FilePolarity,Positive*%
%FSLAX46Y46*%
G04 Gerber Fmt 4.6, Leading zero omitted, Abs format (unit mm)*
G04 Created by KiCad (PCBNEW (6.0.11-0)) date 2024-08-02 08:23:09*
%MOMM*%
%LPD*%
G01*
G04 APERTURE LIST*
%TA.AperFunction,ComponentPad*%
%ADD10C,0.800000*%
%TD*%
%TA.AperFunction,ComponentPad*%
%ADD11C,1.524000*%
%TD*%
%TA.AperFunction,ViaPad*%
%ADD12C,0.800000*%
%TD*%
%TA.AperFunction,Conductor*%
%ADD13C,0.254000*%
%TD*%
%TA.AperFunction,Conductor*%
%ADD14C,0.250000*%
%TD*%
G04 APERTURE END LIST*
D10*
%TO.P,R1,1*%
%TO.N,/coldMount*%
X150750000Y-60250000D03*
%TD*%
D11*
%TO.P,J1,1,Pin_1*%
%TO.N,/Ch0_0*%
X135414180Y-54476180D03*
%TO.P,J1,2,Pin_2*%
%TO.N,/Ch0_2*%
X137954180Y-54476180D03*
%TO.P,J1,3,Pin_3*%
%TO.N,/Ch0_4*%
X140494180Y-54476180D03*
%TO.P,J1,4,Pin_4*%
%TO.N,/Ch1_0*%
X143034180Y-54476180D03*
%TO.P,J1,5,Pin_5*%
%TO.N,/Ch1_2*%
X145574180Y-54476180D03*
%TO.P,J1,6,Pin_6*%
%TO.N,/Ch1_4*%
X148114180Y-54476180D03*
%TO.P,J1,7,Pin_7*%
%TO.N,unconnected-(J1-Pad7)*%
X150654180Y-54476180D03*
%TO.P,J1,8,Pin_8*%
%TO.N,/Ch2_1*%
X153194180Y-54476180D03*
%TO.P,J1,9,Pin_9*%
%TO.N,/Ch2_3*%
X155734180Y-54476180D03*
%TO.P,J1,10,Pin_10*%
%TO.N,/Ch2_5*%
X158274180Y-54476180D03*
%TO.P,J1,11,Pin_11*%
%TO.N,/Ch3_1*%
X160814180Y-54476180D03*
%TO.P,J1,12,Pin_12*%
%TO.N,/Ch3_3*%
X163354180Y-54476180D03*
%TO.P,J1,13,Pin_13*%
%TO.N,/Ch3_5*%
X165894180Y-54476180D03*
%TO.P,J1,14,Pin_14*%
%TO.N,/Ch0_1*%
X136684180Y-51936180D03*
%TO.P,J1,15,Pin_15*%
%TO.N,/Ch0_3*%
X139224180Y-51936180D03*
%TO.P,J1,16,Pin_16*%
%TO.N,/Ch0_5*%
X141764180Y-51936180D03*
%TO.P,J1,17,Pin_17*%
%TO.N,/Ch1_1*%
X144304180Y-51936180D03*
%TO.P,J1,18,Pin_18*%
%TO.N,/Ch1_3*%
X146844180Y-51936180D03*
%TO.P,J1,19,Pin_19*%
%TO.N,/Ch1_5*%
X149384180Y-51936180D03*
%TO.P,J1,20,Pin_20*%
%TO.N,/Ch2_0*%
X151924180Y-51936180D03*
%TO.P,J1,21,Pin_21*%
%TO.N,/Ch2_2*%
X154464180Y-51936180D03*
%TO.P,J1,22,Pin_22*%
%TO.N,/Ch2_4*%
X157004180Y-51936180D03*
%TO.P,J1,23,Pin_23*%
%TO.N,/Ch3_0*%
X159544180Y-51936180D03*
%TO.P,J1,24,Pin_24*%
%TO.N,/Ch3_2*%
X162084180Y-51936180D03*
%TO.P,J1,25,Pin_25*%
%TO.N,/Ch3_4*%
X164624180Y-51936180D03*
%TD*%
D12*
%TO.N,/Ch0_0*%
X138511286Y-104911286D03*
%TO.N,/Ch0_1*%
X138425000Y-106025000D03*
%TO.N,/Ch0_2*%
X139686286Y-106486286D03*
%TO.N,/Ch0_3*%
X139613714Y-107613714D03*
%TO.N,/Ch0_4*%
X139773500Y-109000000D03*
%TO.N,/Ch0_5*%
X139450000Y-110850000D03*
%TO.N,/Ch3_0*%
X161600000Y-110700000D03*
%TO.N,/Ch3_1*%
X161750000Y-109350000D03*
%TO.N,/Ch3_2*%
X161986286Y-108013714D03*
%TO.N,/Ch3_3*%
X161513714Y-106486286D03*
%TO.N,/Ch3_4*%
X162411286Y-105688714D03*
%TO.N,/Ch3_5*%
X161989464Y-104212036D03*
%TO.N,/coldMount*%
X131000000Y-92000000D03*
X142000000Y-121000000D03*
X164000000Y-98000000D03*
X133750000Y-69750000D03*
X165000000Y-100000000D03*
X166000000Y-102000000D03*
X138000000Y-101000000D03*
X167250000Y-77000000D03*
X164000000Y-60000000D03*
X164000000Y-87000000D03*
X135000000Y-114000000D03*
X170000000Y-95000000D03*
X170000000Y-78000000D03*
X165000000Y-104000000D03*
X145875000Y-61175000D03*
X170500000Y-51000000D03*
X138000000Y-62000000D03*
X138000000Y-87000000D03*
X138000000Y-114000000D03*
X155775000Y-61175000D03*
X138000000Y-78000000D03*
X131000000Y-51000000D03*
X167750000Y-85750000D03*
X165750000Y-95500000D03*
X163000000Y-113000000D03*
X170000000Y-88000000D03*
X166000000Y-114000000D03*
X164000000Y-102000000D03*
X133000000Y-51000000D03*
X138000000Y-98000000D03*
X131000000Y-83000000D03*
X170000000Y-91500000D03*
X168000000Y-51000000D03*
X167500000Y-60000000D03*
X135000000Y-98000000D03*
X133500000Y-87750000D03*
X131000000Y-58000000D03*
X170000000Y-58000000D03*
X131000000Y-75000000D03*
X150750000Y-57250000D03*
X133500000Y-78750000D03*
X159000000Y-121000000D03*
X138000000Y-69000000D03*
X135000000Y-101000000D03*
X166000000Y-70000000D03*
X164000000Y-78000000D03*
X131000000Y-67000000D03*
X170000000Y-69000000D03*
X169750000Y-73500000D03*
X166000000Y-98000000D03*
X169750000Y-82250000D03*
X134750000Y-58250000D03*
X164000000Y-67000000D03*
%TD*%
D13*
%TO.N,/Ch0_0*%
X139450000Y-103972572D02*
X139450000Y-60750000D01*
X138511286Y-104911286D02*
X139450000Y-103972572D01*
X135414180Y-56685820D02*
X135414180Y-54476180D01*
X139450000Y-60750000D02*
X135400000Y-56700000D01*
X135400000Y-56700000D02*
X135414180Y-56685820D01*
%TO.N,/Ch0_1*%
X136684180Y-57342128D02*
X136684180Y-51936180D01*
X139425000Y-105025000D02*
X138425000Y-106025000D01*
X139904000Y-60561948D02*
X136684180Y-57342128D01*
X139904000Y-104546000D02*
X139904000Y-60561948D01*
D14*
X138425000Y-106025000D02*
X138200000Y-106250000D01*
D13*
X139425000Y-105025000D02*
X139904000Y-104546000D01*
%TO.N,/Ch0_2*%
X137954180Y-54476180D02*
X137954180Y-57454180D01*
X141200000Y-105000000D02*
X139713714Y-106486286D01*
X141200000Y-60700000D02*
X141200000Y-105000000D01*
X139713714Y-106486286D02*
X139686286Y-106486286D01*
X137954180Y-57454180D02*
X141200000Y-60700000D01*
%TO.N,/Ch0_3*%
X139613714Y-107586286D02*
X141700000Y-105500000D01*
X141700000Y-105500000D02*
X141700000Y-58900000D01*
X139224180Y-56424180D02*
X139224180Y-51936180D01*
X139613714Y-107613714D02*
X139613714Y-107586286D01*
X141700000Y-58900000D02*
X139224180Y-56424180D01*
%TO.N,/Ch0_4*%
X139773500Y-109000000D02*
X139800000Y-109000000D01*
X142700000Y-106100000D02*
X142700000Y-59000000D01*
X139800000Y-109000000D02*
X142700000Y-106100000D01*
X142700000Y-59000000D02*
X142600000Y-58900000D01*
X140494180Y-56794180D02*
X142600000Y-58900000D01*
X140494180Y-54476180D02*
X140494180Y-56794180D01*
%TO.N,/Ch0_5*%
X142175000Y-108125000D02*
X140262500Y-110037500D01*
D14*
X140262500Y-110037500D02*
X139450000Y-110850000D01*
D13*
X141764180Y-55064180D02*
X141764180Y-51936180D01*
X142175000Y-108125000D02*
X143154000Y-107146000D01*
X143050000Y-107250000D02*
X142175000Y-108125000D01*
X143154000Y-107146000D02*
X143154000Y-56454000D01*
X143050000Y-107250000D02*
X143154000Y-107146000D01*
X143154000Y-56454000D02*
X141764180Y-55064180D01*
%TO.N,/Ch3_0*%
X158046000Y-56754000D02*
X159544180Y-55255820D01*
X158150000Y-107250000D02*
X159025000Y-108125000D01*
X159025000Y-108125000D02*
X158046000Y-107146000D01*
X159544180Y-55255820D02*
X159544180Y-51936180D01*
X158046000Y-107146000D02*
X158046000Y-56754000D01*
X158150000Y-107250000D02*
X158046000Y-107146000D01*
X159025000Y-108125000D02*
X161600000Y-110700000D01*
%TO.N,/Ch3_1*%
X161750000Y-109350000D02*
X158500000Y-106100000D01*
X160814180Y-54685820D02*
X158500000Y-57000000D01*
X158500000Y-106100000D02*
X158500000Y-60500000D01*
X158500000Y-57000000D02*
X158500000Y-60500000D01*
X160814180Y-54476180D02*
X160814180Y-54685820D01*
%TO.N,/Ch3_2*%
X159500000Y-58300000D02*
X162084180Y-55715820D01*
X161986286Y-108013714D02*
X159500000Y-105527428D01*
X162084180Y-55715820D02*
X162084180Y-51936180D01*
X159500000Y-105527428D02*
X159500000Y-58300000D01*
%TO.N,/Ch3_3*%
X163354180Y-55145820D02*
X163354180Y-54476180D01*
X160000000Y-58500000D02*
X163354180Y-55145820D01*
X161513714Y-106486286D02*
X161486286Y-106486286D01*
X161486286Y-106486286D02*
X160000000Y-105000000D01*
X160000000Y-105000000D02*
X160000000Y-58500000D01*
%TO.N,/Ch3_4*%
X161250000Y-59150000D02*
X164624180Y-55775820D01*
X161250000Y-104527428D02*
X161250000Y-59150000D01*
X162411286Y-105688714D02*
X161250000Y-104527428D01*
X164624180Y-55775820D02*
X164624180Y-51936180D01*
%TO.N,/Ch3_5*%
X161750000Y-103250000D02*
X161750000Y-103972572D01*
X161750000Y-104000000D02*
X161750000Y-103250000D01*
X161750000Y-103972572D02*
X161989464Y-104212036D01*
X165836232Y-55205820D02*
X161750000Y-59292052D01*
X165894180Y-55205820D02*
X165836232Y-55205820D01*
X165894180Y-54476180D02*
X165894180Y-55205820D01*
X161750000Y-59292052D02*
X161750000Y-103250000D01*
%TD*%
%TA.AperFunction,Conductor*%
%TO.N,/coldMount*%
G36*
X171192121Y-50020002D02*
G01*
X171238614Y-50073658D01*
X171250000Y-50126000D01*
X171250000Y-96124000D01*
X171229998Y-96192121D01*
X171176342Y-96238614D01*
X171124000Y-96250000D01*
X167500000Y-96250000D01*
X167500000Y-122124000D01*
X167479998Y-122192121D01*
X167426342Y-122238614D01*
X167374000Y-122250000D01*
X157626000Y-122250000D01*
X157557879Y-122229998D01*
X157511386Y-122176342D01*
X157500000Y-122124000D01*
X157500000Y-107438462D01*
X157520002Y-107370341D01*
X157573658Y-107323848D01*
X157643932Y-107313744D01*
X157708512Y-107343238D01*
X157728568Y-107366332D01*
X157729560Y-107368398D01*
X157733170Y-107372692D01*
X157735100Y-107374622D01*
X157736889Y-107376573D01*
X157736918Y-107376626D01*
X157736788Y-107376745D01*
X157737289Y-107377313D01*
X157740388Y-107383057D01*
X157748035Y-107390126D01*
X157748036Y-107390127D01*
X157780179Y-107419839D01*
X157783747Y-107423269D01*
X157902648Y-107542171D01*
X157902650Y-107542172D01*
X157902654Y-107542176D01*
X158777647Y-108417170D01*
X158777658Y-108417180D01*
X160909920Y-110549443D01*
X160943946Y-110611755D01*
X160945747Y-110654982D01*
X160940729Y-110693096D01*
X160958113Y-110850553D01*
X160960723Y-110857684D01*
X160960723Y-110857686D01*
X160964458Y-110867891D01*
X161012553Y-110999319D01*
X161016789Y-111005622D01*
X161016789Y-111005623D01*
X161021824Y-111013115D01*
X161100908Y-111130805D01*
X161106527Y-111135918D01*
X161106528Y-111135919D01*
X161141372Y-111167624D01*
X161218076Y-111237419D01*
X161357293Y-111313008D01*
X161510522Y-111353207D01*
X161594477Y-111354526D01*
X161661319Y-111355576D01*
X161661322Y-111355576D01*
X161668916Y-111355695D01*
X161823332Y-111320329D01*
X161893742Y-111284917D01*
X161958072Y-111252563D01*
X161958075Y-111252561D01*
X161964855Y-111249151D01*
X161970626Y-111244222D01*
X161970629Y-111244220D01*
X162079536Y-111151204D01*
X162079536Y-111151203D01*
X162085314Y-111146269D01*
X162177755Y-111017624D01*
X162236842Y-110870641D01*
X162259162Y-110713807D01*
X162259307Y-110700000D01*
X162240276Y-110542733D01*
X162184280Y-110394546D01*
X162122531Y-110304700D01*
X162098855Y-110270251D01*
X162098854Y-110270249D01*
X162094553Y-110263992D01*
X161978569Y-110160655D01*
X161941014Y-110100405D01*
X161941993Y-110029415D01*
X161981197Y-109970224D01*
X162005774Y-109954013D01*
X162108071Y-109902563D01*
X162114855Y-109899151D01*
X162120626Y-109894222D01*
X162120629Y-109894220D01*
X162229536Y-109801204D01*
X162229536Y-109801203D01*
X162235314Y-109796269D01*
X162327755Y-109667624D01*
X162386842Y-109520641D01*
X162397426Y-109446269D01*
X162408581Y-109367891D01*
X162408581Y-109367888D01*
X162409162Y-109363807D01*
X162409307Y-109350000D01*
X162407561Y-109335567D01*
X162391188Y-109200273D01*
X162390276Y-109192733D01*
X162334280Y-109044546D01*
X162306506Y-109004134D01*
X162248855Y-108920251D01*
X162248854Y-108920249D01*
X162244553Y-108913992D01*
X162238882Y-108908940D01*
X162238880Y-108908937D01*
X162168071Y-108845849D01*
X162130515Y-108785599D01*
X162131494Y-108714609D01*
X162170698Y-108655418D01*
X162206572Y-108634741D01*
X162209618Y-108634043D01*
X162226596Y-108625504D01*
X162344358Y-108566277D01*
X162344361Y-108566275D01*
X162351141Y-108562865D01*
X162356912Y-108557936D01*
X162356915Y-108557934D01*
X162465822Y-108464918D01*
X162465822Y-108464917D01*
X162471600Y-108459983D01*
X162564041Y-108331338D01*
X162623128Y-108184355D01*
X162645448Y-108027521D01*
X162645593Y-108013714D01*
X162626562Y-107856447D01*
X162570566Y-107708260D01*
X162480839Y-107577706D01*
X162362561Y-107472325D01*
X162334156Y-107457285D01*
X162266619Y-107421526D01*
X162222560Y-107398198D01*
X162068919Y-107359606D01*
X162061320Y-107359566D01*
X162061319Y-107359566D01*
X162013843Y-107359317D01*
X161922464Y-107358839D01*
X161854450Y-107338481D01*
X161834030Y-107321936D01*
X161781616Y-107269522D01*
X161747590Y-107207210D01*
X161752655Y-107136395D01*
X161795202Y-107079559D01*
X161814087Y-107067868D01*
X161878569Y-107035437D01*
X161884340Y-107030508D01*
X161884343Y-107030506D01*
X161993250Y-106937490D01*
X161993250Y-106937489D01*
X161999028Y-106932555D01*
X162091469Y-106803910D01*
X162150556Y-106656927D01*
X162167846Y-106535435D01*
X162172295Y-106504177D01*
X162172295Y-106504174D01*
X162172876Y-106500093D01*
X162173021Y-106486286D01*
X162172255Y-106479957D01*
X162172365Y-106479296D01*
X162172298Y-106478074D01*
X162172571Y-106478059D01*
X162183931Y-106409927D01*
X162231615Y-106357327D01*
X162300167Y-106338857D01*
X162314442Y-106339991D01*
X162314461Y-106339994D01*
X162321808Y-106341921D01*
X162397438Y-106343109D01*
X162472605Y-106344290D01*
X162472608Y-106344290D01*
X162480202Y-106344409D01*
X162634618Y-106309043D01*
X162729160Y-106261494D01*
X162769358Y-106241277D01*
X162769361Y-106241275D01*
X162776141Y-106237865D01*
X162781912Y-106232936D01*
X162781915Y-106232934D01*
X162890822Y-106139918D01*
X162890822Y-106139917D01*
X162896600Y-106134983D01*
X162989041Y-106006338D01*
X163048128Y-105859355D01*
X163056780Y-105798558D01*
X163069867Y-105706605D01*
X163069867Y-105706602D01*
X163070448Y-105702521D01*
X163070593Y-105688714D01*
X163068847Y-105674281D01*
X163064550Y-105638775D01*
X163051562Y-105531447D01*
X162995566Y-105383260D01*
X162970038Y-105346116D01*
X162910141Y-105258965D01*
X162910140Y-105258963D01*
X162905839Y-105252706D01*
X162787561Y-105147325D01*
X162647560Y-105073198D01*
X162493919Y-105034606D01*
X162486320Y-105034566D01*
X162486319Y-105034566D01*
X162438366Y-105034315D01*
X162347465Y-105033839D01*
X162279451Y-105013481D01*
X162259031Y-104996936D01*
X162257367Y-104995272D01*
X162223341Y-104932960D01*
X162228406Y-104862145D01*
X162270953Y-104805309D01*
X162289849Y-104793612D01*
X162347533Y-104764601D01*
X162347539Y-104764597D01*
X162354319Y-104761187D01*
X162360090Y-104756258D01*
X162360093Y-104756256D01*
X162469000Y-104663240D01*
X162469000Y-104663239D01*
X162474778Y-104658305D01*
X162567219Y-104529660D01*
X162626306Y-104382677D01*
X162643254Y-104263593D01*
X162648045Y-104229927D01*
X162648045Y-104229924D01*
X162648626Y-104225843D01*
X162648771Y-104212036D01*
X162629740Y-104054769D01*
X162573744Y-103906582D01*
X162567212Y-103897078D01*
X162488319Y-103782287D01*
X162488318Y-103782285D01*
X162484017Y-103776028D01*
X162365739Y-103670647D01*
X162359023Y-103667091D01*
X162232455Y-103600076D01*
X162232452Y-103600075D01*
X162225738Y-103596520D01*
X162218372Y-103594670D01*
X162212342Y-103592355D01*
X162155915Y-103549267D01*
X162131741Y-103482513D01*
X162131500Y-103474725D01*
X162131500Y-91979093D01*
X163813171Y-91979093D01*
X163839172Y-92251622D01*
X163904243Y-92517544D01*
X164007019Y-92771287D01*
X164009323Y-92775222D01*
X164009326Y-92775228D01*
X164105460Y-92939411D01*
X164145349Y-93007535D01*
X164316333Y-93221341D01*
X164516390Y-93408224D01*
X164741330Y-93564270D01*
X164986440Y-93686210D01*
X164990774Y-93687631D01*
X164990777Y-93687632D01*
X165069699Y-93713504D01*
X165246586Y-93771490D01*
X165251077Y-93772270D01*
X165251078Y-93772270D01*
X165512537Y-93817668D01*
X165512542Y-93817669D01*
X165516317Y-93818324D01*
X165520154Y-93818515D01*
X165601245Y-93822552D01*
X165601253Y-93822552D01*
X165602816Y-93822630D01*
X165773724Y-93822630D01*
X165775992Y-93822465D01*
X165776004Y-93822465D01*
X165907779Y-93812903D01*
X165977229Y-93807864D01*
X165981684Y-93806880D01*
X165981687Y-93806880D01*
X166240102Y-93749827D01*
X166240105Y-93749826D01*
X166244558Y-93748843D01*
X166251930Y-93746050D01*
X166496299Y-93653468D01*
X166496306Y-93653465D01*
X166500568Y-93651850D01*
X166662923Y-93561670D01*
X166735901Y-93521134D01*
X166735902Y-93521133D01*
X166739894Y-93518916D01*
X166881525Y-93410827D01*
X166953891Y-93355599D01*
X166953892Y-93355598D01*
X166957523Y-93352827D01*
X167148897Y-93157061D01*
X167151586Y-93153367D01*
X167307320Y-92939411D01*
X167307322Y-92939408D01*
X167310007Y-92935719D01*
X167437476Y-92693439D01*
X167528636Y-92435295D01*
X167581577Y-92166695D01*
X167590690Y-91983649D01*
X167594962Y-91897836D01*
X167594962Y-91897830D01*
X167595189Y-91893267D01*
X167569188Y-91620738D01*
X167504117Y-91354816D01*
X167401341Y-91101073D01*
X167399037Y-91097138D01*
X167399034Y-91097132D01*
X167265317Y-90868763D01*
X167265316Y-90868761D01*
X167263011Y-90864825D01*
X167092027Y-90651019D01*
X166891970Y-90464136D01*
X166667030Y-90308090D01*
X166421920Y-90186150D01*
X166417586Y-90184729D01*
X166417583Y-90184728D01*
X166338661Y-90158856D01*
X166161774Y-90100870D01*
X166157282Y-90100090D01*
X165895823Y-90054692D01*
X165895818Y-90054691D01*
X165892043Y-90054036D01*
X165884665Y-90053669D01*
X165807115Y-90049808D01*
X165807107Y-90049808D01*
X165805544Y-90049730D01*
X165634636Y-90049730D01*
X165632368Y-90049895D01*
X165632356Y-90049895D01*
X165500581Y-90059457D01*
X165431131Y-90064496D01*
X165426676Y-90065480D01*
X165426673Y-90065480D01*
X165168258Y-90122533D01*
X165168255Y-90122534D01*
X165163802Y-90123517D01*
X165159534Y-90125134D01*
X164912061Y-90218892D01*
X164912054Y-90218895D01*
X164907792Y-90220510D01*
X164903806Y-90222724D01*
X164903804Y-90222725D01*
X164672459Y-90351226D01*
X164668466Y-90353444D01*
X164664834Y-90356216D01*
X164523425Y-90464136D01*
X164450837Y-90519533D01*
X164259463Y-90715299D01*
X164256776Y-90718991D01*
X164256774Y-90718993D01*
X164153220Y-90861262D01*
X164098353Y-90936641D01*
X163970884Y-91178921D01*
X163879724Y-91437065D01*
X163826783Y-91705665D01*
X163826556Y-91710218D01*
X163826556Y-91710221D01*
X163817444Y-91893267D01*
X163813171Y-91979093D01*
X162131500Y-91979093D01*
X162131500Y-82686813D01*
X163804851Y-82686813D01*
X163830852Y-82959342D01*
X163831936Y-82963772D01*
X163831937Y-82963778D01*
X163864704Y-83097685D01*
X163895923Y-83225264D01*
X163897638Y-83229499D01*
X163897639Y-83229501D01*
X163950419Y-83359808D01*
X163998699Y-83479007D01*
X164001003Y-83482942D01*
X164001006Y-83482948D01*
X164097140Y-83647131D01*
X164137029Y-83715255D01*
X164308013Y-83929061D01*
X164508070Y-84115944D01*
X164733010Y-84271990D01*
X164978120Y-84393930D01*
X164982454Y-84395351D01*
X164982457Y-84395352D01*
X165061379Y-84421224D01*
X165238266Y-84479210D01*
X165242757Y-84479990D01*
X165242758Y-84479990D01*
X165504217Y-84525388D01*
X165504222Y-84525389D01*
X165507997Y-84526044D01*
X165511834Y-84526235D01*
X165592925Y-84530272D01*
X165592933Y-84530272D01*
X165594496Y-84530350D01*
X165765404Y-84530350D01*
X165767672Y-84530185D01*
X165767684Y-84530185D01*
X165899459Y-84520623D01*
X165968909Y-84515584D01*
X165973364Y-84514600D01*
X165973367Y-84514600D01*
X166231782Y-84457547D01*
X166231785Y-84457546D01*
X166236238Y-84456563D01*
X166243610Y-84453770D01*
X166487979Y-84361188D01*
X166487986Y-84361185D01*
X166492248Y-84359570D01*
X166501108Y-84354649D01*
X166727581Y-84228854D01*
X166727582Y-84228853D01*
X166731574Y-84226636D01*
X166873205Y-84118547D01*
X166945571Y-84063319D01*
X166945572Y-84063318D01*
X166949203Y-84060547D01*
X167140577Y-83864781D01*
X167232897Y-83737947D01*
X167299000Y-83647131D01*
X167299002Y-83647128D01*
X167301687Y-83643439D01*
X167429156Y-83401159D01*
X167520316Y-83143015D01*
X167573257Y-82874415D01*
X167574939Y-82840638D01*
X167586642Y-82605556D01*
X167586642Y-82605550D01*
X167586869Y-82600987D01*
X167560868Y-82328458D01*
X167552633Y-82294801D01*
X167496883Y-82066975D01*
X167495797Y-82062536D01*
X167494081Y-82058299D01*
X167394736Y-81813026D01*
X167394733Y-81813021D01*
X167393021Y-81808793D01*
X167390717Y-81804858D01*
X167390714Y-81804852D01*
X167256997Y-81576483D01*
X167256996Y-81576481D01*
X167254691Y-81572545D01*
X167083707Y-81358739D01*
X166883650Y-81171856D01*
X166658710Y-81015810D01*
X166413600Y-80893870D01*
X166409266Y-80892449D01*
X166409263Y-80892448D01*
X166330341Y-80866576D01*
X166153454Y-80808590D01*
X166148962Y-80807810D01*
X165887503Y-80762412D01*
X165887498Y-80762411D01*
X165883723Y-80761756D01*
X165876345Y-80761389D01*
X165798795Y-80757528D01*
X165798787Y-80757528D01*
X165797224Y-80757450D01*
X165626316Y-80757450D01*
X165624048Y-80757615D01*
X165624036Y-80757615D01*
X165492261Y-80767177D01*
X165422811Y-80772216D01*
X165418356Y-80773200D01*
X165418353Y-80773200D01*
X165159938Y-80830253D01*
X165159935Y-80830254D01*
X165155482Y-80831237D01*
X165151214Y-80832854D01*
X164903741Y-80926612D01*
X164903734Y-80926615D01*
X164899472Y-80928230D01*
X164895486Y-80930444D01*
X164895484Y-80930445D01*
X164676945Y-81051833D01*
X164660146Y-81061164D01*
X164603869Y-81104113D01*
X164515105Y-81171856D01*
X164442517Y-81227253D01*
X164251143Y-81423019D01*
X164248456Y-81426711D01*
X164248454Y-81426713D01*
X164144900Y-81568982D01*
X164090033Y-81644361D01*
X163962564Y-81886641D01*
X163871404Y-82144785D01*
X163818463Y-82413385D01*
X163818236Y-82417938D01*
X163818236Y-82417941D01*
X163809124Y-82600987D01*
X163804851Y-82686813D01*
X162131500Y-82686813D01*
X162131500Y-73311433D01*
X163804851Y-73311433D01*
X163830852Y-73583962D01*
X163895923Y-73849884D01*
X163897638Y-73854119D01*
X163897639Y-73854121D01*
X163988047Y-74077328D01*
X163998699Y-74103627D01*
X164001003Y-74107562D01*
X164001006Y-74107568D01*
X164121409Y-74313198D01*
X164137029Y-74339875D01*
X164229470Y-74455467D01*
X164283830Y-74523441D01*
X164308013Y-74553681D01*
X164508070Y-74740564D01*
X164733010Y-74896610D01*
X164978120Y-75018550D01*
X164982454Y-75019971D01*
X164982457Y-75019972D01*
X165061379Y-75045844D01*
X165238266Y-75103830D01*
X165242757Y-75104610D01*
X165242758Y-75104610D01*
X165504217Y-75150008D01*
X165504222Y-75150009D01*
X165507997Y-75150664D01*
X165511834Y-75150855D01*
X165592925Y-75154892D01*
X165592933Y-75154892D01*
X165594496Y-75154970D01*
X165765404Y-75154970D01*
X165767672Y-75154805D01*
X165767684Y-75154805D01*
X165899459Y-75145243D01*
X165968909Y-75140204D01*
X165973364Y-75139220D01*
X165973367Y-75139220D01*
X166231782Y-75082167D01*
X166231785Y-75082166D01*
X166236238Y-75081183D01*
X166254221Y-75074370D01*
X166487979Y-74985808D01*
X166487986Y-74985805D01*
X166492248Y-74984190D01*
X166654603Y-74894010D01*
X166727581Y-74853474D01*
X166727582Y-74853473D01*
X166731574Y-74851256D01*
X166873205Y-74743167D01*
X166945571Y-74687939D01*
X166945572Y-74687938D01*
X166949203Y-74685167D01*
X167140577Y-74489401D01*
X167165277Y-74455467D01*
X167299000Y-74271751D01*
X167299002Y-74271748D01*
X167301687Y-74268059D01*
X167429156Y-74025779D01*
X167520316Y-73767635D01*
X167561604Y-73558158D01*
X167572376Y-73503507D01*
X167572377Y-73503501D01*
X167573257Y-73499035D01*
X167574540Y-73473267D01*
X167586642Y-73230176D01*
X167586642Y-73230170D01*
X167586869Y-73225607D01*
X167560868Y-72953078D01*
X167554582Y-72927387D01*
X167509616Y-72743631D01*
X167495797Y-72687156D01*
X167483549Y-72656916D01*
X167394736Y-72437646D01*
X167394733Y-72437641D01*
X167393021Y-72433413D01*
X167390717Y-72429478D01*
X167390714Y-72429472D01*
X167256997Y-72201103D01*
X167256996Y-72201101D01*
X167254691Y-72197165D01*
X167129327Y-72040404D01*
X167086559Y-71986925D01*
X167086557Y-71986923D01*
X167083707Y-71983359D01*
X166883650Y-71796476D01*
X166658710Y-71640430D01*
X166413600Y-71518490D01*
X166409266Y-71517069D01*
X166409263Y-71517068D01*
X166317015Y-71486828D01*
X166153454Y-71433210D01*
X166148962Y-71432430D01*
X165887503Y-71387032D01*
X165887498Y-71387031D01*
X165883723Y-71386376D01*
X165876345Y-71386009D01*
X165798795Y-71382148D01*
X165798787Y-71382148D01*
X165797224Y-71382070D01*
X165626316Y-71382070D01*
X165624048Y-71382235D01*
X165624036Y-71382235D01*
X165492261Y-71391797D01*
X165422811Y-71396836D01*
X165418356Y-71397820D01*
X165418353Y-71397820D01*
X165159938Y-71454873D01*
X165159935Y-71454874D01*
X165155482Y-71455857D01*
X165151214Y-71457474D01*
X164903741Y-71551232D01*
X164903734Y-71551235D01*
X164899472Y-71552850D01*
X164895486Y-71555064D01*
X164895484Y-71555065D01*
X164664139Y-71683566D01*
X164660146Y-71685784D01*
X164656514Y-71688556D01*
X164515105Y-71796476D01*
X164442517Y-71851873D01*
X164251143Y-72047639D01*
X164248456Y-72051331D01*
X164248454Y-72051333D01*
X164144900Y-72193602D01*
X164090033Y-72268981D01*
X163962564Y-72511261D01*
X163871404Y-72769405D01*
X163870524Y-72773871D01*
X163825305Y-73003293D01*
X163818463Y-73038005D01*
X163818236Y-73042558D01*
X163818236Y-73042561D01*
X163806130Y-73285749D01*
X163804851Y-73311433D01*
X162131500Y-73311433D01*
X162131500Y-63899093D01*
X165413171Y-63899093D01*
X165439172Y-64171622D01*
X165504243Y-64437544D01*
X165607019Y-64691287D01*
X165609323Y-64695222D01*
X165609326Y-64695228D01*
X165705460Y-64859411D01*
X165745349Y-64927535D01*
X165916333Y-65141341D01*
X166116390Y-65328224D01*
X166341330Y-65484270D01*
X166586440Y-65606210D01*
X166590774Y-65607631D01*
X166590777Y-65607632D01*
X166669699Y-65633504D01*
X166846586Y-65691490D01*
X166851077Y-65692270D01*
X166851078Y-65692270D01*
X167112537Y-65737668D01*
X167112542Y-65737669D01*
X167116317Y-65738324D01*
X167120154Y-65738515D01*
X167201245Y-65742552D01*
X167201253Y-65742552D01*
X167202816Y-65742630D01*
X167373724Y-65742630D01*
X167375992Y-65742465D01*
X167376004Y-65742465D01*
X167507779Y-65732903D01*
X167577229Y-65727864D01*
X167581684Y-65726880D01*
X167581687Y-65726880D01*
X167840102Y-65669827D01*
X167840105Y-65669826D01*
X167844558Y-65668843D01*
X167851930Y-65666050D01*
X168096299Y-65573468D01*
X168096306Y-65573465D01*
X168100568Y-65571850D01*
X168262923Y-65481670D01*
X168335901Y-65441134D01*
X168335902Y-65441133D01*
X168339894Y-65438916D01*
X168481525Y-65330827D01*
X168553891Y-65275599D01*
X168553892Y-65275598D01*
X168557523Y-65272827D01*
X168748897Y-65077061D01*
X168751586Y-65073367D01*
X168907320Y-64859411D01*
X168907322Y-64859408D01*
X168910007Y-64855719D01*
X169037476Y-64613439D01*
X169128636Y-64355295D01*
X169181577Y-64086695D01*
X169190690Y-63903649D01*
X169194962Y-63817836D01*
X169194962Y-63817830D01*
X169195189Y-63813267D01*
X169169188Y-63540738D01*
X169104117Y-63274816D01*
X169001341Y-63021073D01*
X168999037Y-63017138D01*
X168999034Y-63017132D01*
X168865317Y-62788763D01*
X168865316Y-62788761D01*
X168863011Y-62784825D01*
X168692027Y-62571019D01*
X168491970Y-62384136D01*
X168267030Y-62228090D01*
X168021920Y-62106150D01*
X168017586Y-62104729D01*
X168017583Y-62104728D01*
X167938661Y-62078856D01*
X167761774Y-62020870D01*
X167757282Y-62020090D01*
X167495823Y-61974692D01*
X167495818Y-61974691D01*
X167492043Y-61974036D01*
X167484665Y-61973669D01*
X167407115Y-61969808D01*
X167407107Y-61969808D01*
X167405544Y-61969730D01*
X167234636Y-61969730D01*
X167232368Y-61969895D01*
X167232356Y-61969895D01*
X167100581Y-61979457D01*
X167031131Y-61984496D01*
X167026676Y-61985480D01*
X167026673Y-61985480D01*
X166768258Y-62042533D01*
X166768255Y-62042534D01*
X166763802Y-62043517D01*
X166759534Y-62045134D01*
X166512061Y-62138892D01*
X166512054Y-62138895D01*
X166507792Y-62140510D01*
X166503806Y-62142724D01*
X166503804Y-62142725D01*
X166272459Y-62271226D01*
X166268466Y-62273444D01*
X166264834Y-62276216D01*
X166123425Y-62384136D01*
X166050837Y-62439533D01*
X166047644Y-62442799D01*
X166047642Y-62442801D01*
X165991693Y-62500034D01*
X165859463Y-62635299D01*
X165856776Y-62638991D01*
X165856774Y-62638993D01*
X165753220Y-62781262D01*
X165698353Y-62856641D01*
X165570884Y-63098921D01*
X165479724Y-63357065D01*
X165478844Y-63361531D01*
X165453389Y-63490680D01*
X165426783Y-63625665D01*
X165426556Y-63630218D01*
X165426556Y-63630221D01*
X165417444Y-63813267D01*
X165413171Y-63899093D01*
X162131500Y-63899093D01*
X162131500Y-59502264D01*
X162151502Y-59434143D01*
X162168405Y-59413169D01*
X165986915Y-55594659D01*
X166020525Y-55573704D01*
X166019466Y-55571741D01*
X166019946Y-55571482D01*
X166028070Y-55567541D01*
X166028038Y-55567468D01*
X166028610Y-55567220D01*
X166029212Y-55566987D01*
X166029740Y-55566731D01*
X166037679Y-55563295D01*
X166047787Y-55560785D01*
X166084394Y-55537149D01*
X166092909Y-55532113D01*
X166122072Y-55516378D01*
X166122075Y-55516375D01*
X166131237Y-55511432D01*
X166138302Y-55503790D01*
X166142145Y-55500809D01*
X166145741Y-55497537D01*
X166154484Y-55491891D01*
X166161846Y-55482553D01*
X166162350Y-55481913D01*
X166164901Y-55480101D01*
X166168632Y-55476706D01*
X166169044Y-55477158D01*
X166220231Y-55440800D01*
X166227415Y-55438561D01*
X166257609Y-55430131D01*
X166257611Y-55430130D01*
X166263550Y-55428472D01*
X166269054Y-55425692D01*
X166269056Y-55425691D01*
X166435982Y-55341371D01*
X166435984Y-55341370D01*
X166441483Y-55338592D01*
X166598570Y-55215862D01*
X166608041Y-55204890D01*
X166724798Y-55069626D01*
X166724799Y-55069624D01*
X166728827Y-55064958D01*
X166827292Y-54891628D01*
X166890215Y-54702474D01*
X166896285Y-54654427D01*
X166914758Y-54508203D01*
X166914759Y-54508193D01*
X166915200Y-54504700D01*
X166915598Y-54476180D01*
X166896145Y-54277786D01*
X166894364Y-54271887D01*
X166894363Y-54271882D01*
X166840309Y-54092847D01*
X166838528Y-54086948D01*
X166744941Y-53910936D01*
X166741051Y-53906166D01*
X166741048Y-53906162D01*
X166622843Y-53761229D01*
X166622840Y-53761226D01*
X166618948Y-53756454D01*
X166609768Y-53748859D01*
X166470099Y-53633315D01*
X166465350Y-53629386D01*
X166289995Y-53534572D01*
X166099565Y-53475624D01*
X166093440Y-53474980D01*
X166093439Y-53474980D01*
X165907440Y-53455431D01*
X165907438Y-53455431D01*
X165901311Y-53454787D01*
X165778432Y-53465970D01*
X165708926Y-53472295D01*
X165708925Y-53472295D01*
X165702785Y-53472854D01*
X165696871Y-53474595D01*
X165696869Y-53474595D01*
X165618329Y-53497711D01*
X165511550Y-53529138D01*
X165334889Y-53621494D01*
X165330089Y-53625354D01*
X165330088Y-53625354D01*
X165210632Y-53721399D01*
X165145010Y-53748495D01*
X165075155Y-53735812D01*
X165023247Y-53687376D01*
X165005680Y-53623202D01*
X165005680Y-53296282D01*
X168559321Y-53296282D01*
X168594912Y-53503408D01*
X168667652Y-53700579D01*
X168670604Y-53705540D01*
X168670604Y-53705541D01*
X168688614Y-53735812D01*
X168775106Y-53881192D01*
X168913674Y-54039199D01*
X169078717Y-54169308D01*
X169083833Y-54171999D01*
X169083835Y-54172001D01*
X169247190Y-54257946D01*
X169264707Y-54267162D01*
X169465414Y-54329484D01*
X169471149Y-54330163D01*
X169471150Y-54330163D01*
X169501712Y-54333780D01*
X169636054Y-54349680D01*
X169757496Y-54349680D01*
X169913459Y-54335349D01*
X169919021Y-54333780D01*
X169919023Y-54333780D01*
X170014594Y-54306826D01*
X170115729Y-54278303D01*
X170304217Y-54185351D01*
X170472609Y-54059607D01*
X170544101Y-53982267D01*
X170611347Y-53909521D01*
X170611349Y-53909518D01*
X170615266Y-53905281D01*
X170727411Y-53727542D01*
X170805288Y-53532343D01*
X170806413Y-53526686D01*
X170806415Y-53526680D01*
X170845161Y-53331887D01*
X170845161Y-53331885D01*
X170846288Y-53326220D01*
X170846606Y-53301980D01*
X170848963Y-53121860D01*
X170849039Y-53116078D01*
X170821769Y-52957374D01*
X170814427Y-52914649D01*
X170814427Y-52914648D01*
X170813448Y-52908952D01*
X170740708Y-52711781D01*
X170633254Y-52531168D01*
X170494686Y-52373161D01*
X170329643Y-52243052D01*
X170324527Y-52240361D01*
X170324525Y-52240359D01*
X170148770Y-52147890D01*
X170148768Y-52147889D01*
X170143653Y-52145198D01*
X169942946Y-52082876D01*
X169937211Y-52082197D01*
X169937210Y-52082197D01*
X169888922Y-52076482D01*
X169772306Y-52062680D01*
X169650864Y-52062680D01*
X169494901Y-52077011D01*
X169489339Y-52078580D01*
X169489337Y-52078580D01*
X169393766Y-52105534D01*
X169292631Y-52134057D01*
X169104143Y-52227009D01*
X168935751Y-52352753D01*
X168793094Y-52507079D01*
X168680949Y-52684818D01*
X168603072Y-52880017D01*
X168601947Y-52885674D01*
X168601945Y-52885680D01*
X168587190Y-52959861D01*
X168562072Y-53086140D01*
X168561996Y-53091915D01*
X168561996Y-53091919D01*
X168561680Y-53116078D01*
X168559321Y-53296282D01*
X165005680Y-53296282D01*
X165005680Y-52959861D01*
X165025682Y-52891740D01*
X165074870Y-52847395D01*
X165165979Y-52801373D01*
X165165985Y-52801369D01*
X165171483Y-52798592D01*
X165328570Y-52675862D01*
X165351142Y-52649712D01*
X165454798Y-52529626D01*
X165454799Y-52529624D01*
X165458827Y-52524958D01*
X165557292Y-52351628D01*
X165620215Y-52162474D01*
X165630271Y-52082876D01*
X165644758Y-51968203D01*
X165644759Y-51968193D01*
X165645200Y-51964700D01*
X165645598Y-51936180D01*
X165626145Y-51737786D01*
X165624364Y-51731887D01*
X165624363Y-51731882D01*
X165570309Y-51552847D01*
X165568528Y-51546948D01*
X165474941Y-51370936D01*
X165471051Y-51366166D01*
X165471048Y-51366162D01*
X165352843Y-51221229D01*
X165352840Y-51221226D01*
X165348948Y-51216454D01*
X165195350Y-51089386D01*
X165019995Y-50994572D01*
X164829565Y-50935624D01*
X164823440Y-50934980D01*
X164823439Y-50934980D01*
X164637440Y-50915431D01*
X164637438Y-50915431D01*
X164631311Y-50914787D01*
X164508432Y-50925970D01*
X164438926Y-50932295D01*
X164438925Y-50932295D01*
X164432785Y-50932854D01*
X164426871Y-50934595D01*
X164426869Y-50934595D01*
X164296719Y-50972901D01*
X164241550Y-50989138D01*
X164064889Y-51081494D01*
X164060089Y-51085354D01*
X164060088Y-51085354D01*
X164055073Y-51089386D01*
X163909531Y-51206405D01*
X163781394Y-51359113D01*
X163685359Y-51533801D01*
X163625082Y-51723815D01*
X163602862Y-51921919D01*
X163619542Y-52120566D01*
X163674490Y-52312189D01*
X163765610Y-52489491D01*
X163889433Y-52645717D01*
X164041243Y-52774917D01*
X164178151Y-52851432D01*
X164227856Y-52902124D01*
X164242680Y-52961419D01*
X164242680Y-53624141D01*
X164222678Y-53692262D01*
X164169022Y-53738755D01*
X164098748Y-53748859D01*
X164036366Y-53721227D01*
X163925350Y-53629386D01*
X163749995Y-53534572D01*
X163559565Y-53475624D01*
X163553440Y-53474980D01*
X163553439Y-53474980D01*
X163367440Y-53455431D01*
X163367438Y-53455431D01*
X163361311Y-53454787D01*
X163238432Y-53465970D01*
X163168926Y-53472295D01*
X163168925Y-53472295D01*
X163162785Y-53472854D01*
X163156871Y-53474595D01*
X163156869Y-53474595D01*
X163078329Y-53497711D01*
X162971550Y-53529138D01*
X162794889Y-53621494D01*
X162790089Y-53625354D01*
X162790088Y-53625354D01*
X162670632Y-53721399D01*
X162605010Y-53748495D01*
X162535155Y-53735812D01*
X162483247Y-53687376D01*
X162465680Y-53623202D01*
X162465680Y-52959861D01*
X162485682Y-52891740D01*
X162534870Y-52847395D01*
X162625979Y-52801373D01*
X162625985Y-52801369D01*
X162631483Y-52798592D01*
X162788570Y-52675862D01*
X162811142Y-52649712D01*
X162914798Y-52529626D01*
X162914799Y-52529624D01*
X162918827Y-52524958D01*
X163017292Y-52351628D01*
X163080215Y-52162474D01*
X163090271Y-52082876D01*
X163104758Y-51968203D01*
X163104759Y-51968193D01*
X163105200Y-51964700D01*
X163105598Y-51936180D01*
X163086145Y-51737786D01*
X163084364Y-51731887D01*
X163084363Y-51731882D01*
X163030309Y-51552847D01*
X163028528Y-51546948D01*
X162934941Y-51370936D01*
X162931051Y-51366166D01*
X162931048Y-51366162D01*
X162812843Y-51221229D01*
X162812840Y-51221226D01*
X162808948Y-51216454D01*
X162655350Y-51089386D01*
X162479995Y-50994572D01*
X162289565Y-50935624D01*
X162283440Y-50934980D01*
X162283439Y-50934980D01*
X162097440Y-50915431D01*
X162097438Y-50915431D01*
X162091311Y-50914787D01*
X161968432Y-50925970D01*
X161898926Y-50932295D01*
X161898925Y-50932295D01*
X161892785Y-50932854D01*
X161886871Y-50934595D01*
X161886869Y-50934595D01*
X161756719Y-50972901D01*
X161701550Y-50989138D01*
X161524889Y-51081494D01*
X161520089Y-51085354D01*
X161520088Y-51085354D01*
X161515073Y-51089386D01*
X161369531Y-51206405D01*
X161241394Y-51359113D01*
X161145359Y-51533801D01*
X161085082Y-51723815D01*
X161062862Y-51921919D01*
X161079542Y-52120566D01*
X161134490Y-52312189D01*
X161225610Y-52489491D01*
X161349433Y-52645717D01*
X161501243Y-52774917D01*
X161638151Y-52851432D01*
X161687856Y-52902124D01*
X161702680Y-52961419D01*
X161702680Y-53624141D01*
X161682678Y-53692262D01*
X161629022Y-53738755D01*
X161558748Y-53748859D01*
X161496366Y-53721227D01*
X161385350Y-53629386D01*
X161209995Y-53534572D01*
X161019565Y-53475624D01*
X161013440Y-53474980D01*
X161013439Y-53474980D01*
X160827440Y-53455431D01*
X160827438Y-53455431D01*
X160821311Y-53454787D01*
X160698432Y-53465970D01*
X160628926Y-53472295D01*
X160628925Y-53472295D01*
X160622785Y-53472854D01*
X160616871Y-53474595D01*
X160616869Y-53474595D01*
X160538329Y-53497711D01*
X160431550Y-53529138D01*
X160254889Y-53621494D01*
X160250089Y-53625354D01*
X160250088Y-53625354D01*
X160130632Y-53721399D01*
X160065010Y-53748495D01*
X159995155Y-53735812D01*
X159943247Y-53687376D01*
X159925680Y-53623202D01*
X159925680Y-52959861D01*
X159945682Y-52891740D01*
X159994870Y-52847395D01*
X160085979Y-52801373D01*
X160085985Y-52801369D01*
X160091483Y-52798592D01*
X160248570Y-52675862D01*
X160271142Y-52649712D01*
X160374798Y-52529626D01*
X160374799Y-52529624D01*
X160378827Y-52524958D01*
X160477292Y-52351628D01*
X160540215Y-52162474D01*
X160550271Y-52082876D01*
X160564758Y-51968203D01*
X160564759Y-51968193D01*
X160565200Y-51964700D01*
X160565598Y-51936180D01*
X160546145Y-51737786D01*
X160544364Y-51731887D01*
X160544363Y-51731882D01*
X160490309Y-51552847D01*
X160488528Y-51546948D01*
X160394941Y-51370936D01*
X160391051Y-51366166D01*
X160391048Y-51366162D01*
X160272843Y-51221229D01*
X160272840Y-51221226D01*
X160268948Y-51216454D01*
X160115350Y-51089386D01*
X159939995Y-50994572D01*
X159749565Y-50935624D01*
X159743440Y-50934980D01*
X159743439Y-50934980D01*
X159557440Y-50915431D01*
X159557438Y-50915431D01*
X159551311Y-50914787D01*
X159428432Y-50925970D01*
X159358926Y-50932295D01*
X159358925Y-50932295D01*
X159352785Y-50932854D01*
X159346871Y-50934595D01*
X159346869Y-50934595D01*
X159216719Y-50972901D01*
X159161550Y-50989138D01*
X158984889Y-51081494D01*
X158980089Y-51085354D01*
X158980088Y-51085354D01*
X158975073Y-51089386D01*
X158829531Y-51206405D01*
X158701394Y-51359113D01*
X158605359Y-51533801D01*
X158545082Y-51723815D01*
X158522862Y-51921919D01*
X158539542Y-52120566D01*
X158594490Y-52312189D01*
X158685610Y-52489491D01*
X158809433Y-52645717D01*
X158961243Y-52774917D01*
X159098151Y-52851432D01*
X159147856Y-52902124D01*
X159162680Y-52961419D01*
X159162680Y-53624141D01*
X159142678Y-53692262D01*
X159089022Y-53738755D01*
X159018748Y-53748859D01*
X158956366Y-53721227D01*
X158845350Y-53629386D01*
X158669995Y-53534572D01*
X158479565Y-53475624D01*
X158473440Y-53474980D01*
X158473439Y-53474980D01*
X158287440Y-53455431D01*
X158287438Y-53455431D01*
X158281311Y-53454787D01*
X158158432Y-53465970D01*
X158088926Y-53472295D01*
X158088925Y-53472295D01*
X158082785Y-53472854D01*
X158076871Y-53474595D01*
X158076869Y-53474595D01*
X157998329Y-53497711D01*
X157891550Y-53529138D01*
X157714889Y-53621494D01*
X157710089Y-53625354D01*
X157710088Y-53625354D01*
X157705073Y-53629386D01*
X157559531Y-53746405D01*
X157431394Y-53899113D01*
X157335359Y-54073801D01*
X157275082Y-54263815D01*
X157252862Y-54461919D01*
X157269542Y-54660566D01*
X157324490Y-54852189D01*
X157415610Y-55029491D01*
X157539433Y-55185717D01*
X157691243Y-55314917D01*
X157696621Y-55317923D01*
X157696623Y-55317924D01*
X157738765Y-55341476D01*
X157865256Y-55412169D01*
X157871115Y-55414073D01*
X157871118Y-55414074D01*
X157931883Y-55433818D01*
X158054845Y-55473771D01*
X158060955Y-55474500D01*
X158060957Y-55474500D01*
X158153817Y-55485572D01*
X158252789Y-55497374D01*
X158258924Y-55496902D01*
X158258926Y-55496902D01*
X158445406Y-55482553D01*
X158445411Y-55482552D01*
X158451547Y-55482080D01*
X158456066Y-55480818D01*
X158526120Y-55488632D01*
X158581224Y-55533399D01*
X158603377Y-55600851D01*
X158585546Y-55669572D01*
X158566535Y-55693943D01*
X157814520Y-56445958D01*
X157795511Y-56461311D01*
X157794448Y-56462278D01*
X157785696Y-56467929D01*
X157775478Y-56480891D01*
X157764771Y-56494472D01*
X157760794Y-56498947D01*
X157760865Y-56499008D01*
X157757512Y-56502965D01*
X157753829Y-56506648D01*
X157750803Y-56510883D01*
X157750801Y-56510885D01*
X157742547Y-56522436D01*
X157738984Y-56527182D01*
X157732406Y-56535526D01*
X157714196Y-56558626D01*
X157707066Y-56567670D01*
X157704015Y-56576357D01*
X157698666Y-56583843D01*
X157695683Y-56593819D01*
X157695682Y-56593820D01*
X157683902Y-56633211D01*
X157682072Y-56638843D01*
X157664984Y-56687502D01*
X157664500Y-56693091D01*
X157664500Y-56695802D01*
X157664385Y-56698469D01*
X157664366Y-56698532D01*
X157664192Y-56698525D01*
X157664145Y-56699271D01*
X157662275Y-56705524D01*
X157662684Y-56715928D01*
X157664403Y-56759678D01*
X157664500Y-56764625D01*
X157664500Y-62382375D01*
X157644498Y-62450496D01*
X157590842Y-62496989D01*
X157520568Y-62507093D01*
X157511717Y-62505496D01*
X157500000Y-62502947D01*
X157500000Y-62500000D01*
X143750000Y-62500000D01*
X143750000Y-62505319D01*
X143747238Y-62506130D01*
X143696999Y-62538417D01*
X143626003Y-62538417D01*
X143566276Y-62500034D01*
X143536783Y-62435454D01*
X143535500Y-62417521D01*
X143535500Y-60795103D01*
X150390122Y-60795103D01*
X150394811Y-60801367D01*
X150500801Y-60858915D01*
X150514827Y-60864468D01*
X150653240Y-60900780D01*
X150668190Y-60902827D01*
X150811266Y-60905075D01*
X150826268Y-60903498D01*
X150965759Y-60871550D01*
X150979947Y-60866442D01*
X151107118Y-60802482D01*
X151111683Y-60795488D01*
X151105676Y-60785281D01*
X150762812Y-60442417D01*
X150748868Y-60434803D01*
X150747035Y-60434934D01*
X150740420Y-60439185D01*
X150396882Y-60782723D01*
X150390122Y-60795103D01*
X143535500Y-60795103D01*
X143535500Y-60250651D01*
X150092067Y-60250651D01*
X150107770Y-60392889D01*
X150111213Y-60407570D01*
X150160391Y-60541955D01*
X150167240Y-60555397D01*
X150196426Y-60598831D01*
X150206409Y-60607130D01*
X150220500Y-60599895D01*
X150557583Y-60262812D01*
X150563961Y-60251132D01*
X150934803Y-60251132D01*
X150934934Y-60252965D01*
X150939185Y-60259580D01*
X151280915Y-60601310D01*
X151292925Y-60607868D01*
X151304666Y-60598898D01*
X151322882Y-60573548D01*
X151330145Y-60560336D01*
X151383522Y-60427558D01*
X151387425Y-60412992D01*
X151408078Y-60267877D01*
X151408702Y-60259675D01*
X151408760Y-60254121D01*
X151408308Y-60245907D01*
X151390699Y-60100396D01*
X151387101Y-60085747D01*
X151336519Y-59951884D01*
X151329533Y-59938520D01*
X151303766Y-59901031D01*
X151293513Y-59892687D01*
X151279772Y-59899833D01*
X150942417Y-60237188D01*
X150934803Y-60251132D01*
X150563961Y-60251132D01*
X150565197Y-60248868D01*
X150565066Y-60247035D01*
X150560815Y-60240420D01*
X150219222Y-59898827D01*
X150207413Y-59892378D01*
X150195439Y-59901625D01*
X150173764Y-59932465D01*
X150166635Y-59945762D01*
X150114653Y-60079088D01*
X150110904Y-60093689D01*
X150092224Y-60235570D01*
X150092067Y-60250651D01*
X143535500Y-60250651D01*
X143535500Y-59704835D01*
X150388909Y-59704835D01*
X150391280Y-59711675D01*
X150737188Y-60057583D01*
X150751132Y-60065197D01*
X150752965Y-60065066D01*
X150759580Y-60060815D01*
X151103619Y-59716776D01*
X151110379Y-59704396D01*
X151105869Y-59698372D01*
X150992807Y-59638508D01*
X150978729Y-59633104D01*
X150839941Y-59598243D01*
X150824969Y-59596352D01*
X150681873Y-59595603D01*
X150666897Y-59597335D01*
X150527740Y-59630744D01*
X150513616Y-59635997D01*
X150399111Y-59695098D01*
X150388909Y-59704835D01*
X143535500Y-59704835D01*
X143535500Y-56508135D01*
X143538086Y-56483836D01*
X143538154Y-56482398D01*
X143540345Y-56472220D01*
X143536373Y-56438656D01*
X143536020Y-56432679D01*
X143535928Y-56432687D01*
X143535500Y-56427511D01*
X143535500Y-56422308D01*
X143532309Y-56403136D01*
X143531476Y-56397283D01*
X143531129Y-56394344D01*
X143525418Y-56346092D01*
X143521433Y-56337793D01*
X143519922Y-56328717D01*
X143495448Y-56283359D01*
X143492755Y-56278073D01*
X143473872Y-56238748D01*
X143473870Y-56238745D01*
X143470440Y-56231602D01*
X143466830Y-56227308D01*
X143464900Y-56225378D01*
X143463111Y-56223427D01*
X143463082Y-56223374D01*
X143463212Y-56223255D01*
X143462711Y-56222687D01*
X143459612Y-56216943D01*
X143419791Y-56180133D01*
X143416226Y-56176704D01*
X142950315Y-55710793D01*
X142916289Y-55648481D01*
X142921354Y-55577666D01*
X142963901Y-55520830D01*
X143029742Y-55496070D01*
X143113915Y-55489593D01*
X143205406Y-55482553D01*
X143205411Y-55482552D01*
X143211547Y-55482080D01*
X143217477Y-55480424D01*
X143217479Y-55480424D01*
X143312874Y-55453789D01*
X143403550Y-55428472D01*
X143409050Y-55425694D01*
X143575982Y-55341371D01*
X143575984Y-55341370D01*
X143581483Y-55338592D01*
X143738570Y-55215862D01*
X143748041Y-55204890D01*
X143864798Y-55069626D01*
X143864799Y-55069624D01*
X143868827Y-55064958D01*
X143967292Y-54891628D01*
X144030215Y-54702474D01*
X144036285Y-54654427D01*
X144054758Y-54508203D01*
X144054759Y-54508193D01*
X144055200Y-54504700D01*
X144055598Y-54476180D01*
X144054200Y-54461919D01*
X144552862Y-54461919D01*
X144569542Y-54660566D01*
X144624490Y-54852189D01*
X144715610Y-55029491D01*
X144839433Y-55185717D01*
X144991243Y-55314917D01*
X144996621Y-55317923D01*
X144996623Y-55317924D01*
X145038765Y-55341476D01*
X145165256Y-55412169D01*
X145171115Y-55414073D01*
X145171118Y-55414074D01*
X145231883Y-55433818D01*
X145354845Y-55473771D01*
X145360955Y-55474500D01*
X145360957Y-55474500D01*
X145453817Y-55485572D01*
X145552789Y-55497374D01*
X145558924Y-55496902D01*
X145558926Y-55496902D01*
X145745406Y-55482553D01*
X145745411Y-55482552D01*
X145751547Y-55482080D01*
X145757477Y-55480424D01*
X145757479Y-55480424D01*
X145852874Y-55453789D01*
X145943550Y-55428472D01*
X145949050Y-55425694D01*
X146115982Y-55341371D01*
X146115984Y-55341370D01*
X146121483Y-55338592D01*
X146278570Y-55215862D01*
X146288041Y-55204890D01*
X146404798Y-55069626D01*
X146404799Y-55069624D01*
X146408827Y-55064958D01*
X146507292Y-54891628D01*
X146570215Y-54702474D01*
X146576285Y-54654427D01*
X146594758Y-54508203D01*
X146594759Y-54508193D01*
X146595200Y-54504700D01*
X146595598Y-54476180D01*
X146594200Y-54461919D01*
X147092862Y-54461919D01*
X147109542Y-54660566D01*
X147164490Y-54852189D01*
X147255610Y-55029491D01*
X147379433Y-55185717D01*
X147531243Y-55314917D01*
X147536621Y-55317923D01*
X147536623Y-55317924D01*
X147578765Y-55341476D01*
X147705256Y-55412169D01*
X147711115Y-55414073D01*
X147711118Y-55414074D01*
X147771883Y-55433818D01*
X147894845Y-55473771D01*
X147900955Y-55474500D01*
X147900957Y-55474500D01*
X147993817Y-55485572D01*
X148092789Y-55497374D01*
X148098924Y-55496902D01*
X148098926Y-55496902D01*
X148285406Y-55482553D01*
X148285411Y-55482552D01*
X148291547Y-55482080D01*
X148297477Y-55480424D01*
X148297479Y-55480424D01*
X148392874Y-55453789D01*
X148483550Y-55428472D01*
X148489050Y-55425694D01*
X148655982Y-55341371D01*
X148655984Y-55341370D01*
X148661483Y-55338592D01*
X148818570Y-55215862D01*
X148828041Y-55204890D01*
X148944798Y-55069626D01*
X148944799Y-55069624D01*
X148948827Y-55064958D01*
X149047292Y-54891628D01*
X149110215Y-54702474D01*
X149116285Y-54654427D01*
X149134758Y-54508203D01*
X149134759Y-54508193D01*
X149135200Y-54504700D01*
X149135598Y-54476180D01*
X149134200Y-54461919D01*
X149632862Y-54461919D01*
X149649542Y-54660566D01*
X149704490Y-54852189D01*
X149795610Y-55029491D01*
X149919433Y-55185717D01*
X150071243Y-55314917D01*
X150076621Y-55317923D01*
X150076623Y-55317924D01*
X150118765Y-55341476D01*
X150245256Y-55412169D01*
X150251115Y-55414073D01*
X150251118Y-55414074D01*
X150311883Y-55433818D01*
X150434845Y-55473771D01*
X150440955Y-55474500D01*
X150440957Y-55474500D01*
X150533817Y-55485572D01*
X150632789Y-55497374D01*
X150638924Y-55496902D01*
X150638926Y-55496902D01*
X150825406Y-55482553D01*
X150825411Y-55482552D01*
X150831547Y-55482080D01*
X150837477Y-55480424D01*
X150837479Y-55480424D01*
X150932874Y-55453789D01*
X151023550Y-55428472D01*
X151029050Y-55425694D01*
X151195982Y-55341371D01*
X151195984Y-55341370D01*
X151201483Y-55338592D01*
X151358570Y-55215862D01*
X151368041Y-55204890D01*
X151484798Y-55069626D01*
X151484799Y-55069624D01*
X151488827Y-55064958D01*
X151587292Y-54891628D01*
X151650215Y-54702474D01*
X151656285Y-54654427D01*
X151674758Y-54508203D01*
X151674759Y-54508193D01*
X151675200Y-54504700D01*
X151675598Y-54476180D01*
X151674200Y-54461919D01*
X152172862Y-54461919D01*
X152189542Y-54660566D01*
X152244490Y-54852189D01*
X152335610Y-55029491D01*
X152459433Y-55185717D01*
X152611243Y-55314917D01*
X152616621Y-55317923D01*
X152616623Y-55317924D01*
X152658765Y-55341476D01*
X152785256Y-55412169D01*
X152791115Y-55414073D01*
X152791118Y-55414074D01*
X152851883Y-55433818D01*
X152974845Y-55473771D01*
X152980955Y-55474500D01*
X152980957Y-55474500D01*
X153073817Y-55485572D01*
X153172789Y-55497374D01*
X153178924Y-55496902D01*
X153178926Y-55496902D01*
X153365406Y-55482553D01*
X153365411Y-55482552D01*
X153371547Y-55482080D01*
X153377477Y-55480424D01*
X153377479Y-55480424D01*
X153472874Y-55453789D01*
X153563550Y-55428472D01*
X153569050Y-55425694D01*
X153735982Y-55341371D01*
X153735984Y-55341370D01*
X153741483Y-55338592D01*
X153898570Y-55215862D01*
X153908041Y-55204890D01*
X154024798Y-55069626D01*
X154024799Y-55069624D01*
X154028827Y-55064958D01*
X154127292Y-54891628D01*
X154190215Y-54702474D01*
X154196285Y-54654427D01*
X154214758Y-54508203D01*
X154214759Y-54508193D01*
X154215200Y-54504700D01*
X154215598Y-54476180D01*
X154214200Y-54461919D01*
X154712862Y-54461919D01*
X154729542Y-54660566D01*
X154784490Y-54852189D01*
X154875610Y-55029491D01*
X154999433Y-55185717D01*
X155151243Y-55314917D01*
X155156621Y-55317923D01*
X155156623Y-55317924D01*
X155198765Y-55341476D01*
X155325256Y-55412169D01*
X155331115Y-55414073D01*
X155331118Y-55414074D01*
X155391883Y-55433818D01*
X155514845Y-55473771D01*
X155520955Y-55474500D01*
X155520957Y-55474500D01*
X155613817Y-55485572D01*
X155712789Y-55497374D01*
X155718924Y-55496902D01*
X155718926Y-55496902D01*
X155905406Y-55482553D01*
X155905411Y-55482552D01*
X155911547Y-55482080D01*
X155917477Y-55480424D01*
X155917479Y-55480424D01*
X156012874Y-55453789D01*
X156103550Y-55428472D01*
X156109050Y-55425694D01*
X156275982Y-55341371D01*
X156275984Y-55341370D01*
X156281483Y-55338592D01*
X156438570Y-55215862D01*
X156448041Y-55204890D01*
X156564798Y-55069626D01*
X156564799Y-55069624D01*
X156568827Y-55064958D01*
X156667292Y-54891628D01*
X156730215Y-54702474D01*
X156736285Y-54654427D01*
X156754758Y-54508203D01*
X156754759Y-54508193D01*
X156755200Y-54504700D01*
X156755598Y-54476180D01*
X156736145Y-54277786D01*
X156734364Y-54271887D01*
X156734363Y-54271882D01*
X156680309Y-54092847D01*
X156678528Y-54086948D01*
X156584941Y-53910936D01*
X156581051Y-53906166D01*
X156581048Y-53906162D01*
X156462843Y-53761229D01*
X156462840Y-53761226D01*
X156458948Y-53756454D01*
X156449768Y-53748859D01*
X156310099Y-53633315D01*
X156305350Y-53629386D01*
X156129995Y-53534572D01*
X155939565Y-53475624D01*
X155933440Y-53474980D01*
X155933439Y-53474980D01*
X155747440Y-53455431D01*
X155747438Y-53455431D01*
X155741311Y-53454787D01*
X155618432Y-53465970D01*
X155548926Y-53472295D01*
X155548925Y-53472295D01*
X155542785Y-53472854D01*
X155536871Y-53474595D01*
X155536869Y-53474595D01*
X155458329Y-53497711D01*
X155351550Y-53529138D01*
X155174889Y-53621494D01*
X155170089Y-53625354D01*
X155170088Y-53625354D01*
X155165073Y-53629386D01*
X155019531Y-53746405D01*
X154891394Y-53899113D01*
X154795359Y-54073801D01*
X154735082Y-54263815D01*
X154712862Y-54461919D01*
X154214200Y-54461919D01*
X154196145Y-54277786D01*
X154194364Y-54271887D01*
X154194363Y-54271882D01*
X154140309Y-54092847D01*
X154138528Y-54086948D01*
X154044941Y-53910936D01*
X154041051Y-53906166D01*
X154041048Y-53906162D01*
X153922843Y-53761229D01*
X153922840Y-53761226D01*
X153918948Y-53756454D01*
X153909768Y-53748859D01*
X153770099Y-53633315D01*
X153765350Y-53629386D01*
X153589995Y-53534572D01*
X153399565Y-53475624D01*
X153393440Y-53474980D01*
X153393439Y-53474980D01*
X153207440Y-53455431D01*
X153207438Y-53455431D01*
X153201311Y-53454787D01*
X153078432Y-53465970D01*
X153008926Y-53472295D01*
X153008925Y-53472295D01*
X153002785Y-53472854D01*
X152996871Y-53474595D01*
X152996869Y-53474595D01*
X152918329Y-53497711D01*
X152811550Y-53529138D01*
X152634889Y-53621494D01*
X152630089Y-53625354D01*
X152630088Y-53625354D01*
X152625073Y-53629386D01*
X152479531Y-53746405D01*
X152351394Y-53899113D01*
X152255359Y-54073801D01*
X152195082Y-54263815D01*
X152172862Y-54461919D01*
X151674200Y-54461919D01*
X151656145Y-54277786D01*
X151654364Y-54271887D01*
X151654363Y-54271882D01*
X151600309Y-54092847D01*
X151598528Y-54086948D01*
X151504941Y-53910936D01*
X151501051Y-53906166D01*
X151501048Y-53906162D01*
X151382843Y-53761229D01*
X151382840Y-53761226D01*
X151378948Y-53756454D01*
X151369768Y-53748859D01*
X151230099Y-53633315D01*
X151225350Y-53629386D01*
X151049995Y-53534572D01*
X150859565Y-53475624D01*
X150853440Y-53474980D01*
X150853439Y-53474980D01*
X150667440Y-53455431D01*
X150667438Y-53455431D01*
X150661311Y-53454787D01*
X150538432Y-53465970D01*
X150468926Y-53472295D01*
X150468925Y-53472295D01*
X150462785Y-53472854D01*
X150456871Y-53474595D01*
X150456869Y-53474595D01*
X150378329Y-53497711D01*
X150271550Y-53529138D01*
X150094889Y-53621494D01*
X150090089Y-53625354D01*
X150090088Y-53625354D01*
X150085073Y-53629386D01*
X149939531Y-53746405D01*
X149811394Y-53899113D01*
X149715359Y-54073801D01*
X149655082Y-54263815D01*
X149632862Y-54461919D01*
X149134200Y-54461919D01*
X149116145Y-54277786D01*
X149114364Y-54271887D01*
X149114363Y-54271882D01*
X149060309Y-54092847D01*
X149058528Y-54086948D01*
X148964941Y-53910936D01*
X148961051Y-53906166D01*
X148961048Y-53906162D01*
X148842843Y-53761229D01*
X148842840Y-53761226D01*
X148838948Y-53756454D01*
X148829768Y-53748859D01*
X148690099Y-53633315D01*
X148685350Y-53629386D01*
X148509995Y-53534572D01*
X148319565Y-53475624D01*
X148313440Y-53474980D01*
X148313439Y-53474980D01*
X148127440Y-53455431D01*
X148127438Y-53455431D01*
X148121311Y-53454787D01*
X147998432Y-53465970D01*
X147928926Y-53472295D01*
X147928925Y-53472295D01*
X147922785Y-53472854D01*
X147916871Y-53474595D01*
X147916869Y-53474595D01*
X147838329Y-53497711D01*
X147731550Y-53529138D01*
X147554889Y-53621494D01*
X147550089Y-53625354D01*
X147550088Y-53625354D01*
X147545073Y-53629386D01*
X147399531Y-53746405D01*
X147271394Y-53899113D01*
X147175359Y-54073801D01*
X147115082Y-54263815D01*
X147092862Y-54461919D01*
X146594200Y-54461919D01*
X146576145Y-54277786D01*
X146574364Y-54271887D01*
X146574363Y-54271882D01*
X146520309Y-54092847D01*
X146518528Y-54086948D01*
X146424941Y-53910936D01*
X146421051Y-53906166D01*
X146421048Y-53906162D01*
X146302843Y-53761229D01*
X146302840Y-53761226D01*
X146298948Y-53756454D01*
X146289768Y-53748859D01*
X146150099Y-53633315D01*
X146145350Y-53629386D01*
X145969995Y-53534572D01*
X145779565Y-53475624D01*
X145773440Y-53474980D01*
X145773439Y-53474980D01*
X145587440Y-53455431D01*
X145587438Y-53455431D01*
X145581311Y-53454787D01*
X145458432Y-53465970D01*
X145388926Y-53472295D01*
X145388925Y-53472295D01*
X145382785Y-53472854D01*
X145376871Y-53474595D01*
X145376869Y-53474595D01*
X145298329Y-53497711D01*
X145191550Y-53529138D01*
X145014889Y-53621494D01*
X145010089Y-53625354D01*
X145010088Y-53625354D01*
X145005073Y-53629386D01*
X144859531Y-53746405D01*
X144731394Y-53899113D01*
X144635359Y-54073801D01*
X144575082Y-54263815D01*
X144552862Y-54461919D01*
X144054200Y-54461919D01*
X144036145Y-54277786D01*
X144034364Y-54271887D01*
X144034363Y-54271882D01*
X143980309Y-54092847D01*
X143978528Y-54086948D01*
X143884941Y-53910936D01*
X143881051Y-53906166D01*
X143881048Y-53906162D01*
X143762843Y-53761229D01*
X143762840Y-53761226D01*
X143758948Y-53756454D01*
X143749768Y-53748859D01*
X143610099Y-53633315D01*
X143605350Y-53629386D01*
X143429995Y-53534572D01*
X143239565Y-53475624D01*
X143233440Y-53474980D01*
X143233439Y-53474980D01*
X143047440Y-53455431D01*
X143047438Y-53455431D01*
X143041311Y-53454787D01*
X142918432Y-53465970D01*
X142848926Y-53472295D01*
X142848925Y-53472295D01*
X142842785Y-53472854D01*
X142836871Y-53474595D01*
X142836869Y-53474595D01*
X142758329Y-53497711D01*
X142651550Y-53529138D01*
X142474889Y-53621494D01*
X142470089Y-53625354D01*
X142470088Y-53625354D01*
X142350632Y-53721399D01*
X142285010Y-53748495D01*
X142215155Y-53735812D01*
X142163247Y-53687376D01*
X142145680Y-53623202D01*
X142145680Y-52959861D01*
X142165682Y-52891740D01*
X142214870Y-52847395D01*
X142305979Y-52801373D01*
X142305985Y-52801369D01*
X142311483Y-52798592D01*
X142468570Y-52675862D01*
X142491142Y-52649712D01*
X142594798Y-52529626D01*
X142594799Y-52529624D01*
X142598827Y-52524958D01*
X142697292Y-52351628D01*
X142760215Y-52162474D01*
X142770271Y-52082876D01*
X142784758Y-51968203D01*
X142784759Y-51968193D01*
X142785200Y-51964700D01*
X142785598Y-51936180D01*
X142784200Y-51921919D01*
X143282862Y-51921919D01*
X143299542Y-52120566D01*
X143354490Y-52312189D01*
X143445610Y-52489491D01*
X143569433Y-52645717D01*
X143721243Y-52774917D01*
X143726621Y-52777923D01*
X143726623Y-52777924D01*
X143835152Y-52838578D01*
X143895256Y-52872169D01*
X143901115Y-52874073D01*
X143901118Y-52874074D01*
X143961883Y-52893818D01*
X144084845Y-52933771D01*
X144090955Y-52934500D01*
X144090957Y-52934500D01*
X144158494Y-52942553D01*
X144282789Y-52957374D01*
X144288924Y-52956902D01*
X144288926Y-52956902D01*
X144475406Y-52942553D01*
X144475411Y-52942552D01*
X144481547Y-52942080D01*
X144487477Y-52940424D01*
X144487479Y-52940424D01*
X144579794Y-52914649D01*
X144673550Y-52888472D01*
X144679050Y-52885694D01*
X144845982Y-52801371D01*
X144845984Y-52801370D01*
X144851483Y-52798592D01*
X145008570Y-52675862D01*
X145031142Y-52649712D01*
X145134798Y-52529626D01*
X145134799Y-52529624D01*
X145138827Y-52524958D01*
X145237292Y-52351628D01*
X145300215Y-52162474D01*
X145310271Y-52082876D01*
X145324758Y-51968203D01*
X145324759Y-51968193D01*
X145325200Y-51964700D01*
X145325598Y-51936180D01*
X145324200Y-51921919D01*
X145822862Y-51921919D01*
X145839542Y-52120566D01*
X145894490Y-52312189D01*
X145985610Y-52489491D01*
X146109433Y-52645717D01*
X146261243Y-52774917D01*
X146266621Y-52777923D01*
X146266623Y-52777924D01*
X146375152Y-52838578D01*
X146435256Y-52872169D01*
X146441115Y-52874073D01*
X146441118Y-52874074D01*
X146501883Y-52893818D01*
X146624845Y-52933771D01*
X146630955Y-52934500D01*
X146630957Y-52934500D01*
X146698494Y-52942553D01*
X146822789Y-52957374D01*
X146828924Y-52956902D01*
X146828926Y-52956902D01*
X147015406Y-52942553D01*
X147015411Y-52942552D01*
X147021547Y-52942080D01*
X147027477Y-52940424D01*
X147027479Y-52940424D01*
X147119794Y-52914649D01*
X147213550Y-52888472D01*
X147219050Y-52885694D01*
X147385982Y-52801371D01*
X147385984Y-52801370D01*
X147391483Y-52798592D01*
X147548570Y-52675862D01*
X147571142Y-52649712D01*
X147674798Y-52529626D01*
X147674799Y-52529624D01*
X147678827Y-52524958D01*
X147777292Y-52351628D01*
X147840215Y-52162474D01*
X147850271Y-52082876D01*
X147864758Y-51968203D01*
X147864759Y-51968193D01*
X147865200Y-51964700D01*
X147865598Y-51936180D01*
X147864200Y-51921919D01*
X148362862Y-51921919D01*
X148379542Y-52120566D01*
X148434490Y-52312189D01*
X148525610Y-52489491D01*
X148649433Y-52645717D01*
X148801243Y-52774917D01*
X148806621Y-52777923D01*
X148806623Y-52777924D01*
X148915152Y-52838578D01*
X148975256Y-52872169D01*
X148981115Y-52874073D01*
X148981118Y-52874074D01*
X149041883Y-52893818D01*
X149164845Y-52933771D01*
X149170955Y-52934500D01*
X149170957Y-52934500D01*
X149238494Y-52942553D01*
X149362789Y-52957374D01*
X149368924Y-52956902D01*
X149368926Y-52956902D01*
X149555406Y-52942553D01*
X149555411Y-52942552D01*
X149561547Y-52942080D01*
X149567477Y-52940424D01*
X149567479Y-52940424D01*
X149659794Y-52914649D01*
X149753550Y-52888472D01*
X149759050Y-52885694D01*
X149925982Y-52801371D01*
X149925984Y-52801370D01*
X149931483Y-52798592D01*
X150088570Y-52675862D01*
X150111142Y-52649712D01*
X150214798Y-52529626D01*
X150214799Y-52529624D01*
X150218827Y-52524958D01*
X150317292Y-52351628D01*
X150380215Y-52162474D01*
X150390271Y-52082876D01*
X150404758Y-51968203D01*
X150404759Y-51968193D01*
X150405200Y-51964700D01*
X150405598Y-51936180D01*
X150404200Y-51921919D01*
X150902862Y-51921919D01*
X150919542Y-52120566D01*
X150974490Y-52312189D01*
X151065610Y-52489491D01*
X151189433Y-52645717D01*
X151341243Y-52774917D01*
X151346621Y-52777923D01*
X151346623Y-52777924D01*
X151455152Y-52838578D01*
X151515256Y-52872169D01*
X151521115Y-52874073D01*
X151521118Y-52874074D01*
X151581883Y-52893818D01*
X151704845Y-52933771D01*
X151710955Y-52934500D01*
X151710957Y-52934500D01*
X151778494Y-52942553D01*
X151902789Y-52957374D01*
X151908924Y-52956902D01*
X151908926Y-52956902D01*
X152095406Y-52942553D01*
X152095411Y-52942552D01*
X152101547Y-52942080D01*
X152107477Y-52940424D01*
X152107479Y-52940424D01*
X152199794Y-52914649D01*
X152293550Y-52888472D01*
X152299050Y-52885694D01*
X152465982Y-52801371D01*
X152465984Y-52801370D01*
X152471483Y-52798592D01*
X152628570Y-52675862D01*
X152651142Y-52649712D01*
X152754798Y-52529626D01*
X152754799Y-52529624D01*
X152758827Y-52524958D01*
X152857292Y-52351628D01*
X152920215Y-52162474D01*
X152930271Y-52082876D01*
X152944758Y-51968203D01*
X152944759Y-51968193D01*
X152945200Y-51964700D01*
X152945598Y-51936180D01*
X152944200Y-51921919D01*
X153442862Y-51921919D01*
X153459542Y-52120566D01*
X153514490Y-52312189D01*
X153605610Y-52489491D01*
X153729433Y-52645717D01*
X153881243Y-52774917D01*
X153886621Y-52777923D01*
X153886623Y-52777924D01*
X153995152Y-52838578D01*
X154055256Y-52872169D01*
X154061115Y-52874073D01*
X154061118Y-52874074D01*
X154121883Y-52893818D01*
X154244845Y-52933771D01*
X154250955Y-52934500D01*
X154250957Y-52934500D01*
X154318494Y-52942553D01*
X154442789Y-52957374D01*
X154448924Y-52956902D01*
X154448926Y-52956902D01*
X154635406Y-52942553D01*
X154635411Y-52942552D01*
X154641547Y-52942080D01*
X154647477Y-52940424D01*
X154647479Y-52940424D01*
X154739794Y-52914649D01*
X154833550Y-52888472D01*
X154839050Y-52885694D01*
X155005982Y-52801371D01*
X155005984Y-52801370D01*
X155011483Y-52798592D01*
X155168570Y-52675862D01*
X155191142Y-52649712D01*
X155294798Y-52529626D01*
X155294799Y-52529624D01*
X155298827Y-52524958D01*
X155397292Y-52351628D01*
X155460215Y-52162474D01*
X155470271Y-52082876D01*
X155484758Y-51968203D01*
X155484759Y-51968193D01*
X155485200Y-51964700D01*
X155485598Y-51936180D01*
X155484200Y-51921919D01*
X155982862Y-51921919D01*
X155999542Y-52120566D01*
X156054490Y-52312189D01*
X156145610Y-52489491D01*
X156269433Y-52645717D01*
X156421243Y-52774917D01*
X156426621Y-52777923D01*
X156426623Y-52777924D01*
X156535152Y-52838578D01*
X156595256Y-52872169D01*
X156601115Y-52874073D01*
X156601118Y-52874074D01*
X156661883Y-52893818D01*
X156784845Y-52933771D01*
X156790955Y-52934500D01*
X156790957Y-52934500D01*
X156858494Y-52942553D01*
X156982789Y-52957374D01*
X156988924Y-52956902D01*
X156988926Y-52956902D01*
X157175406Y-52942553D01*
X157175411Y-52942552D01*
X157181547Y-52942080D01*
X157187477Y-52940424D01*
X157187479Y-52940424D01*
X157279794Y-52914649D01*
X157373550Y-52888472D01*
X157379050Y-52885694D01*
X157545982Y-52801371D01*
X157545984Y-52801370D01*
X157551483Y-52798592D01*
X157708570Y-52675862D01*
X157731142Y-52649712D01*
X157834798Y-52529626D01*
X157834799Y-52529624D01*
X157838827Y-52524958D01*
X157937292Y-52351628D01*
X158000215Y-52162474D01*
X158010271Y-52082876D01*
X158024758Y-51968203D01*
X158024759Y-51968193D01*
X158025200Y-51964700D01*
X158025598Y-51936180D01*
X158006145Y-51737786D01*
X158004364Y-51731887D01*
X158004363Y-51731882D01*
X157950309Y-51552847D01*
X157948528Y-51546948D01*
X157854941Y-51370936D01*
X157851051Y-51366166D01*
X157851048Y-51366162D01*
X157732843Y-51221229D01*
X157732840Y-51221226D01*
X157728948Y-51216454D01*
X157575350Y-51089386D01*
X157399995Y-50994572D01*
X157209565Y-50935624D01*
X157203440Y-50934980D01*
X157203439Y-50934980D01*
X157017440Y-50915431D01*
X157017438Y-50915431D01*
X157011311Y-50914787D01*
X156888432Y-50925970D01*
X156818926Y-50932295D01*
X156818925Y-50932295D01*
X156812785Y-50932854D01*
X156806871Y-50934595D01*
X156806869Y-50934595D01*
X156676719Y-50972901D01*
X156621550Y-50989138D01*
X156444889Y-51081494D01*
X156440089Y-51085354D01*
X156440088Y-51085354D01*
X156435073Y-51089386D01*
X156289531Y-51206405D01*
X156161394Y-51359113D01*
X156065359Y-51533801D01*
X156005082Y-51723815D01*
X155982862Y-51921919D01*
X155484200Y-51921919D01*
X155466145Y-51737786D01*
X155464364Y-51731887D01*
X155464363Y-51731882D01*
X155410309Y-51552847D01*
X155408528Y-51546948D01*
X155314941Y-51370936D01*
X155311051Y-51366166D01*
X155311048Y-51366162D01*
X155192843Y-51221229D01*
X155192840Y-51221226D01*
X155188948Y-51216454D01*
X155035350Y-51089386D01*
X154859995Y-50994572D01*
X154669565Y-50935624D01*
X154663440Y-50934980D01*
X154663439Y-50934980D01*
X154477440Y-50915431D01*
X154477438Y-50915431D01*
X154471311Y-50914787D01*
X154348432Y-50925970D01*
X154278926Y-50932295D01*
X154278925Y-50932295D01*
X154272785Y-50932854D01*
X154266871Y-50934595D01*
X154266869Y-50934595D01*
X154136719Y-50972901D01*
X154081550Y-50989138D01*
X153904889Y-51081494D01*
X153900089Y-51085354D01*
X153900088Y-51085354D01*
X153895073Y-51089386D01*
X153749531Y-51206405D01*
X153621394Y-51359113D01*
X153525359Y-51533801D01*
X153465082Y-51723815D01*
X153442862Y-51921919D01*
X152944200Y-51921919D01*
X152926145Y-51737786D01*
X152924364Y-51731887D01*
X152924363Y-51731882D01*
X152870309Y-51552847D01*
X152868528Y-51546948D01*
X152774941Y-51370936D01*
X152771051Y-51366166D01*
X152771048Y-51366162D01*
X152652843Y-51221229D01*
X152652840Y-51221226D01*
X152648948Y-51216454D01*
X152495350Y-51089386D01*
X152319995Y-50994572D01*
X152129565Y-50935624D01*
X152123440Y-50934980D01*
X152123439Y-50934980D01*
X151937440Y-50915431D01*
X151937438Y-50915431D01*
X151931311Y-50914787D01*
X151808432Y-50925970D01*
X151738926Y-50932295D01*
X151738925Y-50932295D01*
X151732785Y-50932854D01*
X151726871Y-50934595D01*
X151726869Y-50934595D01*
X151596719Y-50972901D01*
X151541550Y-50989138D01*
X151364889Y-51081494D01*
X151360089Y-51085354D01*
X151360088Y-51085354D01*
X151355073Y-51089386D01*
X151209531Y-51206405D01*
X151081394Y-51359113D01*
X150985359Y-51533801D01*
X150925082Y-51723815D01*
X150902862Y-51921919D01*
X150404200Y-51921919D01*
X150386145Y-51737786D01*
X150384364Y-51731887D01*
X150384363Y-51731882D01*
X150330309Y-51552847D01*
X150328528Y-51546948D01*
X150234941Y-51370936D01*
X150231051Y-51366166D01*
X150231048Y-51366162D01*
X150112843Y-51221229D01*
X150112840Y-51221226D01*
X150108948Y-51216454D01*
X149955350Y-51089386D01*
X149779995Y-50994572D01*
X149589565Y-50935624D01*
X149583440Y-50934980D01*
X149583439Y-50934980D01*
X149397440Y-50915431D01*
X149397438Y-50915431D01*
X149391311Y-50914787D01*
X149268432Y-50925970D01*
X149198926Y-50932295D01*
X149198925Y-50932295D01*
X149192785Y-50932854D01*
X149186871Y-50934595D01*
X149186869Y-50934595D01*
X149056719Y-50972901D01*
X149001550Y-50989138D01*
X148824889Y-51081494D01*
X148820089Y-51085354D01*
X148820088Y-51085354D01*
X148815073Y-51089386D01*
X148669531Y-51206405D01*
X148541394Y-51359113D01*
X148445359Y-51533801D01*
X148385082Y-51723815D01*
X148362862Y-51921919D01*
X147864200Y-51921919D01*
X147846145Y-51737786D01*
X147844364Y-51731887D01*
X147844363Y-51731882D01*
X147790309Y-51552847D01*
X147788528Y-51546948D01*
X147694941Y-51370936D01*
X147691051Y-51366166D01*
X147691048Y-51366162D01*
X147572843Y-51221229D01*
X147572840Y-51221226D01*
X147568948Y-51216454D01*
X147415350Y-51089386D01*
X147239995Y-50994572D01*
X147049565Y-50935624D01*
X147043440Y-50934980D01*
X147043439Y-50934980D01*
X146857440Y-50915431D01*
X146857438Y-50915431D01*
X146851311Y-50914787D01*
X146728432Y-50925970D01*
X146658926Y-50932295D01*
X146658925Y-50932295D01*
X146652785Y-50932854D01*
X146646871Y-50934595D01*
X146646869Y-50934595D01*
X146516719Y-50972901D01*
X146461550Y-50989138D01*
X146284889Y-51081494D01*
X146280089Y-51085354D01*
X146280088Y-51085354D01*
X146275073Y-51089386D01*
X146129531Y-51206405D01*
X146001394Y-51359113D01*
X145905359Y-51533801D01*
X145845082Y-51723815D01*
X145822862Y-51921919D01*
X145324200Y-51921919D01*
X145306145Y-51737786D01*
X145304364Y-51731887D01*
X145304363Y-51731882D01*
X145250309Y-51552847D01*
X145248528Y-51546948D01*
X145154941Y-51370936D01*
X145151051Y-51366166D01*
X145151048Y-51366162D01*
X145032843Y-51221229D01*
X145032840Y-51221226D01*
X145028948Y-51216454D01*
X144875350Y-51089386D01*
X144699995Y-50994572D01*
X144509565Y-50935624D01*
X144503440Y-50934980D01*
X144503439Y-50934980D01*
X144317440Y-50915431D01*
X144317438Y-50915431D01*
X144311311Y-50914787D01*
X144188432Y-50925970D01*
X144118926Y-50932295D01*
X144118925Y-50932295D01*
X144112785Y-50932854D01*
X144106871Y-50934595D01*
X144106869Y-50934595D01*
X143976719Y-50972901D01*
X143921550Y-50989138D01*
X143744889Y-51081494D01*
X143740089Y-51085354D01*
X143740088Y-51085354D01*
X143735073Y-51089386D01*
X143589531Y-51206405D01*
X143461394Y-51359113D01*
X143365359Y-51533801D01*
X143305082Y-51723815D01*
X143282862Y-51921919D01*
X142784200Y-51921919D01*
X142766145Y-51737786D01*
X142764364Y-51731887D01*
X142764363Y-51731882D01*
X142710309Y-51552847D01*
X142708528Y-51546948D01*
X142614941Y-51370936D01*
X142611051Y-51366166D01*
X142611048Y-51366162D01*
X142492843Y-51221229D01*
X142492840Y-51221226D01*
X142488948Y-51216454D01*
X142335350Y-51089386D01*
X142159995Y-50994572D01*
X141969565Y-50935624D01*
X141963440Y-50934980D01*
X141963439Y-50934980D01*
X141777440Y-50915431D01*
X141777438Y-50915431D01*
X141771311Y-50914787D01*
X141648432Y-50925970D01*
X141578926Y-50932295D01*
X141578925Y-50932295D01*
X141572785Y-50932854D01*
X141566871Y-50934595D01*
X141566869Y-50934595D01*
X141436719Y-50972901D01*
X141381550Y-50989138D01*
X141204889Y-51081494D01*
X141200089Y-51085354D01*
X141200088Y-51085354D01*
X141195073Y-51089386D01*
X141049531Y-51206405D01*
X140921394Y-51359113D01*
X140825359Y-51533801D01*
X140765082Y-51723815D01*
X140742862Y-51921919D01*
X140759542Y-52120566D01*
X140814490Y-52312189D01*
X140905610Y-52489491D01*
X141029433Y-52645717D01*
X141181243Y-52774917D01*
X141318151Y-52851432D01*
X141367856Y-52902124D01*
X141382680Y-52961419D01*
X141382680Y-53624141D01*
X141362678Y-53692262D01*
X141309022Y-53738755D01*
X141238748Y-53748859D01*
X141176366Y-53721227D01*
X141065350Y-53629386D01*
X140889995Y-53534572D01*
X140699565Y-53475624D01*
X140693440Y-53474980D01*
X140693439Y-53474980D01*
X140507440Y-53455431D01*
X140507438Y-53455431D01*
X140501311Y-53454787D01*
X140378432Y-53465970D01*
X140308926Y-53472295D01*
X140308925Y-53472295D01*
X140302785Y-53472854D01*
X140296871Y-53474595D01*
X140296869Y-53474595D01*
X140218329Y-53497711D01*
X140111550Y-53529138D01*
X139934889Y-53621494D01*
X139930089Y-53625354D01*
X139930088Y-53625354D01*
X139810632Y-53721399D01*
X139745010Y-53748495D01*
X139675155Y-53735812D01*
X139623247Y-53687376D01*
X139605680Y-53623202D01*
X139605680Y-52959861D01*
X139625682Y-52891740D01*
X139674870Y-52847395D01*
X139765979Y-52801373D01*
X139765985Y-52801369D01*
X139771483Y-52798592D01*
X139928570Y-52675862D01*
X139951142Y-52649712D01*
X140054798Y-52529626D01*
X140054799Y-52529624D01*
X140058827Y-52524958D01*
X140157292Y-52351628D01*
X140220215Y-52162474D01*
X140230271Y-52082876D01*
X140244758Y-51968203D01*
X140244759Y-51968193D01*
X140245200Y-51964700D01*
X140245598Y-51936180D01*
X140226145Y-51737786D01*
X140224364Y-51731887D01*
X140224363Y-51731882D01*
X140170309Y-51552847D01*
X140168528Y-51546948D01*
X140074941Y-51370936D01*
X140071051Y-51366166D01*
X140071048Y-51366162D01*
X139952843Y-51221229D01*
X139952840Y-51221226D01*
X139948948Y-51216454D01*
X139795350Y-51089386D01*
X139619995Y-50994572D01*
X139429565Y-50935624D01*
X139423440Y-50934980D01*
X139423439Y-50934980D01*
X139237440Y-50915431D01*
X139237438Y-50915431D01*
X139231311Y-50914787D01*
X139108432Y-50925970D01*
X139038926Y-50932295D01*
X139038925Y-50932295D01*
X139032785Y-50932854D01*
X139026871Y-50934595D01*
X139026869Y-50934595D01*
X138896719Y-50972901D01*
X138841550Y-50989138D01*
X138664889Y-51081494D01*
X138660089Y-51085354D01*
X138660088Y-51085354D01*
X138655073Y-51089386D01*
X138509531Y-51206405D01*
X138381394Y-51359113D01*
X138285359Y-51533801D01*
X138225082Y-51723815D01*
X138202862Y-51921919D01*
X138219542Y-52120566D01*
X138274490Y-52312189D01*
X138365610Y-52489491D01*
X138489433Y-52645717D01*
X138641243Y-52774917D01*
X138778151Y-52851432D01*
X138827856Y-52902124D01*
X138842680Y-52961419D01*
X138842680Y-53624141D01*
X138822678Y-53692262D01*
X138769022Y-53738755D01*
X138698748Y-53748859D01*
X138636366Y-53721227D01*
X138525350Y-53629386D01*
X138349995Y-53534572D01*
X138159565Y-53475624D01*
X138153440Y-53474980D01*
X138153439Y-53474980D01*
X137967440Y-53455431D01*
X137967438Y-53455431D01*
X137961311Y-53454787D01*
X137838432Y-53465970D01*
X137768926Y-53472295D01*
X137768925Y-53472295D01*
X137762785Y-53472854D01*
X137756871Y-53474595D01*
X137756869Y-53474595D01*
X137678329Y-53497711D01*
X137571550Y-53529138D01*
X137394889Y-53621494D01*
X137390089Y-53625354D01*
X137390088Y-53625354D01*
X137270632Y-53721399D01*
X137205010Y-53748495D01*
X137135155Y-53735812D01*
X137083247Y-53687376D01*
X137065680Y-53623202D01*
X137065680Y-52959861D01*
X137085682Y-52891740D01*
X137134870Y-52847395D01*
X137225979Y-52801373D01*
X137225985Y-52801369D01*
X137231483Y-52798592D01*
X137388570Y-52675862D01*
X137411142Y-52649712D01*
X137514798Y-52529626D01*
X137514799Y-52529624D01*
X137518827Y-52524958D01*
X137617292Y-52351628D01*
X137680215Y-52162474D01*
X137690271Y-52082876D01*
X137704758Y-51968203D01*
X137704759Y-51968193D01*
X137705200Y-51964700D01*
X137705598Y-51936180D01*
X137686145Y-51737786D01*
X137684364Y-51731887D01*
X137684363Y-51731882D01*
X137630309Y-51552847D01*
X137628528Y-51546948D01*
X137534941Y-51370936D01*
X137531051Y-51366166D01*
X137531048Y-51366162D01*
X137412843Y-51221229D01*
X137412840Y-51221226D01*
X137408948Y-51216454D01*
X137255350Y-51089386D01*
X137079995Y-50994572D01*
X136889565Y-50935624D01*
X136883440Y-50934980D01*
X136883439Y-50934980D01*
X136697440Y-50915431D01*
X136697438Y-50915431D01*
X136691311Y-50914787D01*
X136568432Y-50925970D01*
X136498926Y-50932295D01*
X136498925Y-50932295D01*
X136492785Y-50932854D01*
X136486871Y-50934595D01*
X136486869Y-50934595D01*
X136356719Y-50972901D01*
X136301550Y-50989138D01*
X136124889Y-51081494D01*
X136120089Y-51085354D01*
X136120088Y-51085354D01*
X136115073Y-51089386D01*
X135969531Y-51206405D01*
X135841394Y-51359113D01*
X135745359Y-51533801D01*
X135685082Y-51723815D01*
X135662862Y-51921919D01*
X135679542Y-52120566D01*
X135734490Y-52312189D01*
X135825610Y-52489491D01*
X135949433Y-52645717D01*
X136101243Y-52774917D01*
X136238151Y-52851432D01*
X136287856Y-52902124D01*
X136302680Y-52961419D01*
X136302680Y-53624141D01*
X136282678Y-53692262D01*
X136229022Y-53738755D01*
X136158748Y-53748859D01*
X136096366Y-53721227D01*
X135985350Y-53629386D01*
X135809995Y-53534572D01*
X135619565Y-53475624D01*
X135613440Y-53474980D01*
X135613439Y-53474980D01*
X135427440Y-53455431D01*
X135427438Y-53455431D01*
X135421311Y-53454787D01*
X135298432Y-53465970D01*
X135228926Y-53472295D01*
X135228925Y-53472295D01*
X135222785Y-53472854D01*
X135216871Y-53474595D01*
X135216869Y-53474595D01*
X135138329Y-53497711D01*
X135031550Y-53529138D01*
X134854889Y-53621494D01*
X134850089Y-53625354D01*
X134850088Y-53625354D01*
X134845073Y-53629386D01*
X134699531Y-53746405D01*
X134571394Y-53899113D01*
X134475359Y-54073801D01*
X134415082Y-54263815D01*
X134392862Y-54461919D01*
X134409542Y-54660566D01*
X134464490Y-54852189D01*
X134555610Y-55029491D01*
X134679433Y-55185717D01*
X134831243Y-55314917D01*
X134836621Y-55317923D01*
X134836623Y-55317924D01*
X134872628Y-55338046D01*
X134968151Y-55391432D01*
X135017856Y-55442124D01*
X135032680Y-55501419D01*
X135032680Y-56578232D01*
X135027397Y-56614334D01*
X135019260Y-56641541D01*
X135019260Y-56641544D01*
X135016275Y-56651524D01*
X135016684Y-56661933D01*
X135016075Y-56666755D01*
X135015847Y-56671600D01*
X135013655Y-56681780D01*
X135014879Y-56692122D01*
X135018775Y-56725048D01*
X135019551Y-56734906D01*
X135021262Y-56778433D01*
X135025018Y-56788142D01*
X135026005Y-56792908D01*
X135027358Y-56797566D01*
X135028582Y-56807907D01*
X135033090Y-56817294D01*
X135033090Y-56817295D01*
X135047443Y-56847184D01*
X135051373Y-56856267D01*
X135061980Y-56883685D01*
X135067086Y-56896885D01*
X135073786Y-56904856D01*
X135077820Y-56911677D01*
X135080128Y-56915252D01*
X135083560Y-56922398D01*
X135087170Y-56926692D01*
X135114508Y-56954030D01*
X135121862Y-56962048D01*
X135148810Y-56994106D01*
X135157733Y-56999478D01*
X135165652Y-57006242D01*
X135165243Y-57006721D01*
X135174222Y-57013744D01*
X139031595Y-60871118D01*
X139065621Y-60933430D01*
X139068500Y-60960213D01*
X139068500Y-103762360D01*
X139048498Y-103830481D01*
X139031595Y-103851455D01*
X138662884Y-104220166D01*
X138600572Y-104254192D01*
X138573129Y-104257069D01*
X138540503Y-104256898D01*
X138435507Y-104256348D01*
X138428127Y-104258120D01*
X138428125Y-104258120D01*
X138288849Y-104291557D01*
X138288846Y-104291558D01*
X138281470Y-104293329D01*
X138140700Y-104365986D01*
X138021325Y-104470124D01*
X137930236Y-104599730D01*
X137909806Y-104652131D01*
X137878538Y-104732330D01*
X137872692Y-104747323D01*
X137871700Y-104754856D01*
X137871700Y-104754857D01*
X137857576Y-104862145D01*
X137852015Y-104904382D01*
X137852849Y-104911932D01*
X137866597Y-105036457D01*
X137869399Y-105061839D01*
X137872009Y-105068970D01*
X137872009Y-105068972D01*
X137899381Y-105143769D01*
X137923839Y-105210605D01*
X137928075Y-105216908D01*
X137928075Y-105216909D01*
X137965331Y-105272351D01*
X138012194Y-105342091D01*
X138017055Y-105346514D01*
X138046244Y-105410753D01*
X138036007Y-105481007D01*
X138004323Y-105523397D01*
X137987405Y-105538156D01*
X137935039Y-105583838D01*
X137843950Y-105713444D01*
X137826715Y-105757650D01*
X137794894Y-105839267D01*
X137786406Y-105861037D01*
X137785414Y-105868570D01*
X137785414Y-105868571D01*
X137767277Y-106006338D01*
X137765729Y-106018096D01*
X137783113Y-106175553D01*
X137814564Y-106261498D01*
X137822140Y-106299847D01*
X137823247Y-106328021D01*
X137827002Y-106337728D01*
X137827003Y-106337731D01*
X137854934Y-106409927D01*
X137868832Y-106445852D01*
X137950127Y-106542564D01*
X138058365Y-106607728D01*
X138068543Y-106609919D01*
X138068550Y-106609922D01*
X138157626Y-106629100D01*
X138176342Y-106634777D01*
X138182293Y-106638008D01*
X138335522Y-106678207D01*
X138419477Y-106679526D01*
X138486319Y-106680576D01*
X138486322Y-106680576D01*
X138493916Y-106680695D01*
X138648332Y-106645329D01*
X138733773Y-106602357D01*
X138783072Y-106577563D01*
X138783075Y-106577561D01*
X138789855Y-106574151D01*
X138835186Y-106535435D01*
X138899974Y-106506404D01*
X138970175Y-106517009D01*
X139023497Y-106563883D01*
X139042255Y-106617419D01*
X139043545Y-106629100D01*
X139044399Y-106636839D01*
X139047009Y-106643970D01*
X139047009Y-106643972D01*
X139095320Y-106775988D01*
X139098839Y-106785605D01*
X139103075Y-106791908D01*
X139103075Y-106791909D01*
X139156365Y-106871212D01*
X139187194Y-106917091D01*
X139194876Y-106924081D01*
X139195935Y-106925821D01*
X139197775Y-106927952D01*
X139197420Y-106928259D01*
X139231799Y-106984721D01*
X139230076Y-107055697D01*
X139192907Y-107112223D01*
X139129480Y-107167555D01*
X139129476Y-107167560D01*
X139123753Y-107172552D01*
X139032664Y-107302158D01*
X139010590Y-107358776D01*
X138993834Y-107401753D01*
X138975120Y-107449751D01*
X138974128Y-107457284D01*
X138974128Y-107457285D01*
X138957451Y-107583965D01*
X138954443Y-107606810D01*
X138963135Y-107685539D01*
X138965644Y-107708260D01*
X138971827Y-107764267D01*
X138974437Y-107771398D01*
X138974437Y-107771400D01*
X139013322Y-107877658D01*
X139026267Y-107913033D01*
X139030503Y-107919336D01*
X139030503Y-107919337D01*
X139089283Y-108006810D01*
X139114622Y-108044519D01*
X139231790Y-108151133D01*
X139238463Y-108154756D01*
X139364330Y-108223097D01*
X139364332Y-108223098D01*
X139371007Y-108226722D01*
X139378355Y-108228650D01*
X139383814Y-108230811D01*
X139439788Y-108274486D01*
X139463264Y-108341489D01*
X139446788Y-108410547D01*
X139408660Y-108451734D01*
X139402914Y-108454700D01*
X139283539Y-108558838D01*
X139192450Y-108688444D01*
X139134906Y-108836037D01*
X139133914Y-108843570D01*
X139133914Y-108843571D01*
X139116261Y-108977662D01*
X139114229Y-108993096D01*
X139119909Y-109044546D01*
X139130712Y-109142388D01*
X139131613Y-109150553D01*
X139134223Y-109157684D01*
X139134223Y-109157686D01*
X139172307Y-109261755D01*
X139186053Y-109299319D01*
X139190289Y-109305622D01*
X139190289Y-109305623D01*
X139232132Y-109367891D01*
X139274408Y-109430805D01*
X139280027Y-109435918D01*
X139280028Y-109435919D01*
X139364866Y-109513115D01*
X139391576Y-109537419D01*
X139530793Y-109613008D01*
X139684022Y-109653207D01*
X139766582Y-109654504D01*
X139805988Y-109655123D01*
X139873786Y-109676192D01*
X139919431Y-109730571D01*
X139928429Y-109800995D01*
X139893104Y-109870202D01*
X139604411Y-110158895D01*
X139542099Y-110192921D01*
X139514658Y-110195798D01*
X139374221Y-110195062D01*
X139366841Y-110196834D01*
X139366839Y-110196834D01*
X139227563Y-110230271D01*
X139227560Y-110230272D01*
X139220184Y-110232043D01*
X139079414Y-110304700D01*
X138960039Y-110408838D01*
X138868950Y-110538444D01*
X138811406Y-110686037D01*
X138810414Y-110693570D01*
X138810414Y-110693571D01*
X138804220Y-110740623D01*
X138790729Y-110843096D01*
X138808113Y-111000553D01*
X138810723Y-111007684D01*
X138810723Y-111007686D01*
X138859178Y-111140095D01*
X138862553Y-111149319D01*
X138950908Y-111280805D01*
X138956527Y-111285918D01*
X138956528Y-111285919D01*
X139062460Y-111382309D01*
X139068076Y-111387419D01*
X139207293Y-111463008D01*
X139360522Y-111503207D01*
X139444477Y-111504526D01*
X139511319Y-111505576D01*
X139511322Y-111505576D01*
X139518916Y-111505695D01*
X139673332Y-111470329D01*
X139743742Y-111434917D01*
X139808072Y-111402563D01*
X139808075Y-111402561D01*
X139814855Y-111399151D01*
X139820626Y-111394222D01*
X139820629Y-111394220D01*
X139929536Y-111301204D01*
X139929536Y-111301203D01*
X139935314Y-111296269D01*
X140027755Y-111167624D01*
X140086842Y-111020641D01*
X140107186Y-110877695D01*
X140108581Y-110867891D01*
X140108581Y-110867888D01*
X140109162Y-110863807D01*
X140109307Y-110850000D01*
X140103437Y-110801496D01*
X140115109Y-110731468D01*
X140139429Y-110697265D01*
X140472704Y-110363990D01*
X140484998Y-110354059D01*
X140484898Y-110353940D01*
X140487106Y-110352084D01*
X140487110Y-110352081D01*
X140489192Y-110350330D01*
X142467171Y-108372352D01*
X142467173Y-108372350D01*
X143342171Y-107497353D01*
X143385483Y-107454041D01*
X143404494Y-107438686D01*
X143405556Y-107437720D01*
X143414304Y-107432071D01*
X143420748Y-107423896D01*
X143420751Y-107423894D01*
X143435229Y-107405528D01*
X143439208Y-107401050D01*
X143439137Y-107400990D01*
X143442490Y-107397033D01*
X143446171Y-107393352D01*
X143457469Y-107377543D01*
X143461032Y-107372798D01*
X143469972Y-107361457D01*
X143492934Y-107332330D01*
X143495984Y-107323645D01*
X143501334Y-107316158D01*
X143504318Y-107306180D01*
X143508897Y-107296832D01*
X143510951Y-107297838D01*
X143541965Y-107250106D01*
X143606692Y-107220936D01*
X143676915Y-107231391D01*
X143730337Y-107278152D01*
X143750000Y-107345742D01*
X143750000Y-122124000D01*
X143729998Y-122192121D01*
X143676342Y-122238614D01*
X143624000Y-122250000D01*
X133876000Y-122250000D01*
X133807879Y-122229998D01*
X133761386Y-122176342D01*
X133750000Y-122124000D01*
X133750000Y-96250000D01*
X130126000Y-96250000D01*
X130057879Y-96229998D01*
X130011386Y-96176342D01*
X130000000Y-96124000D01*
X130000000Y-91979093D01*
X133653171Y-91979093D01*
X133679172Y-92251622D01*
X133744243Y-92517544D01*
X133847019Y-92771287D01*
X133849323Y-92775222D01*
X133849326Y-92775228D01*
X133945460Y-92939411D01*
X133985349Y-93007535D01*
X134156333Y-93221341D01*
X134356390Y-93408224D01*
X134581330Y-93564270D01*
X134826440Y-93686210D01*
X134830774Y-93687631D01*
X134830777Y-93687632D01*
X134909699Y-93713504D01*
X135086586Y-93771490D01*
X135091077Y-93772270D01*
X135091078Y-93772270D01*
X135352537Y-93817668D01*
X135352542Y-93817669D01*
X135356317Y-93818324D01*
X135360154Y-93818515D01*
X135441245Y-93822552D01*
X135441253Y-93822552D01*
X135442816Y-93822630D01*
X135613724Y-93822630D01*
X135615992Y-93822465D01*
X135616004Y-93822465D01*
X135747779Y-93812903D01*
X135817229Y-93807864D01*
X135821684Y-93806880D01*
X135821687Y-93806880D01*
X136080102Y-93749827D01*
X136080105Y-93749826D01*
X136084558Y-93748843D01*
X136091930Y-93746050D01*
X136336299Y-93653468D01*
X136336306Y-93653465D01*
X136340568Y-93651850D01*
X136502923Y-93561670D01*
X136575901Y-93521134D01*
X136575902Y-93521133D01*
X136579894Y-93518916D01*
X136721525Y-93410827D01*
X136793891Y-93355599D01*
X136793892Y-93355598D01*
X136797523Y-93352827D01*
X136988897Y-93157061D01*
X136991586Y-93153367D01*
X137147320Y-92939411D01*
X137147322Y-92939408D01*
X137150007Y-92935719D01*
X137277476Y-92693439D01*
X137368636Y-92435295D01*
X137421577Y-92166695D01*
X137430690Y-91983649D01*
X137434962Y-91897836D01*
X137434962Y-91897830D01*
X137435189Y-91893267D01*
X137409188Y-91620738D01*
X137344117Y-91354816D01*
X137241341Y-91101073D01*
X137239037Y-91097138D01*
X137239034Y-91097132D01*
X137105317Y-90868763D01*
X137105316Y-90868761D01*
X137103011Y-90864825D01*
X136932027Y-90651019D01*
X136731970Y-90464136D01*
X136507030Y-90308090D01*
X136261920Y-90186150D01*
X136257586Y-90184729D01*
X136257583Y-90184728D01*
X136178661Y-90158856D01*
X136001774Y-90100870D01*
X135997282Y-90100090D01*
X135735823Y-90054692D01*
X135735818Y-90054691D01*
X135732043Y-90054036D01*
X135724665Y-90053669D01*
X135647115Y-90049808D01*
X135647107Y-90049808D01*
X135645544Y-90049730D01*
X135474636Y-90049730D01*
X135472368Y-90049895D01*
X135472356Y-90049895D01*
X135340581Y-90059457D01*
X135271131Y-90064496D01*
X135266676Y-90065480D01*
X135266673Y-90065480D01*
X135008258Y-90122533D01*
X135008255Y-90122534D01*
X135003802Y-90123517D01*
X134999534Y-90125134D01*
X134752061Y-90218892D01*
X134752054Y-90218895D01*
X134747792Y-90220510D01*
X134743806Y-90222724D01*
X134743804Y-90222725D01*
X134512459Y-90351226D01*
X134508466Y-90353444D01*
X134504834Y-90356216D01*
X134363425Y-90464136D01*
X134290837Y-90519533D01*
X134099463Y-90715299D01*
X134096776Y-90718991D01*
X134096774Y-90718993D01*
X133993220Y-90861262D01*
X133938353Y-90936641D01*
X133810884Y-91178921D01*
X133719724Y-91437065D01*
X133666783Y-91705665D01*
X133666556Y-91710218D01*
X133666556Y-91710221D01*
X133657444Y-91893267D01*
X133653171Y-91979093D01*
X130000000Y-91979093D01*
X130000000Y-82563673D01*
X133652531Y-82563673D01*
X133678532Y-82836202D01*
X133679616Y-82840632D01*
X133679617Y-82840638D01*
X133688977Y-82878887D01*
X133743603Y-83102124D01*
X133745318Y-83106359D01*
X133745319Y-83106361D01*
X133795196Y-83229501D01*
X133846379Y-83355867D01*
X133848683Y-83359802D01*
X133848686Y-83359808D01*
X133944820Y-83523991D01*
X133984709Y-83592115D01*
X134155693Y-83805921D01*
X134355750Y-83992804D01*
X134580690Y-84148850D01*
X134825800Y-84270790D01*
X134830134Y-84272211D01*
X134830137Y-84272212D01*
X134909059Y-84298084D01*
X135085946Y-84356070D01*
X135090437Y-84356850D01*
X135090438Y-84356850D01*
X135351897Y-84402248D01*
X135351902Y-84402249D01*
X135355677Y-84402904D01*
X135359514Y-84403095D01*
X135440605Y-84407132D01*
X135440613Y-84407132D01*
X135442176Y-84407210D01*
X135613084Y-84407210D01*
X135615352Y-84407045D01*
X135615364Y-84407045D01*
X135747139Y-84397483D01*
X135816589Y-84392444D01*
X135821044Y-84391460D01*
X135821047Y-84391460D01*
X136079462Y-84334407D01*
X136079465Y-84334406D01*
X136083918Y-84333423D01*
X136091290Y-84330630D01*
X136335659Y-84238048D01*
X136335666Y-84238045D01*
X136339928Y-84236430D01*
X136353568Y-84228854D01*
X136575261Y-84105714D01*
X136575262Y-84105713D01*
X136579254Y-84103496D01*
X136720885Y-83995407D01*
X136793251Y-83940179D01*
X136793252Y-83940178D01*
X136796883Y-83937407D01*
X136988257Y-83741641D01*
X136990946Y-83737947D01*
X137146680Y-83523991D01*
X137146682Y-83523988D01*
X137149367Y-83520299D01*
X137276836Y-83278019D01*
X137367996Y-83019875D01*
X137420937Y-82751275D01*
X137421164Y-82746719D01*
X137434322Y-82482416D01*
X137434322Y-82482410D01*
X137434549Y-82477847D01*
X137408548Y-82205318D01*
X137394829Y-82149251D01*
X137344563Y-81943835D01*
X137343477Y-81939396D01*
X137290578Y-81808793D01*
X137242416Y-81689886D01*
X137242413Y-81689881D01*
X137240701Y-81685653D01*
X137238397Y-81681718D01*
X137238394Y-81681712D01*
X137104677Y-81453343D01*
X137104676Y-81453341D01*
X137102371Y-81449405D01*
X136931387Y-81235599D01*
X136731330Y-81048716D01*
X136506390Y-80892670D01*
X136261280Y-80770730D01*
X136256946Y-80769309D01*
X136256943Y-80769308D01*
X136178021Y-80743436D01*
X136001134Y-80685450D01*
X135996642Y-80684670D01*
X135735183Y-80639272D01*
X135735178Y-80639271D01*
X135731403Y-80638616D01*
X135724025Y-80638249D01*
X135646475Y-80634388D01*
X135646467Y-80634388D01*
X135644904Y-80634310D01*
X135473996Y-80634310D01*
X135471728Y-80634475D01*
X135471716Y-80634475D01*
X135339941Y-80644037D01*
X135270491Y-80649076D01*
X135266036Y-80650060D01*
X135266033Y-80650060D01*
X135007618Y-80707113D01*
X135007615Y-80707114D01*
X135003162Y-80708097D01*
X134998894Y-80709714D01*
X134751421Y-80803472D01*
X134751414Y-80803475D01*
X134747152Y-80805090D01*
X134743166Y-80807304D01*
X134743164Y-80807305D01*
X134521471Y-80930445D01*
X134507826Y-80938024D01*
X134504194Y-80940796D01*
X134342842Y-81063936D01*
X134290197Y-81104113D01*
X134098823Y-81299879D01*
X134096136Y-81303571D01*
X134096134Y-81303573D01*
X133992580Y-81445842D01*
X133937713Y-81521221D01*
X133810244Y-81763501D01*
X133719084Y-82021645D01*
X133666143Y-82290245D01*
X133665916Y-82294798D01*
X133665916Y-82294801D01*
X133656804Y-82477847D01*
X133652531Y-82563673D01*
X130000000Y-82563673D01*
X130000000Y-73281193D01*
X133634751Y-73281193D01*
X133660752Y-73553722D01*
X133661836Y-73558152D01*
X133661837Y-73558158D01*
X133669237Y-73588398D01*
X133725823Y-73819644D01*
X133727538Y-73823879D01*
X133727539Y-73823881D01*
X133809316Y-74025779D01*
X133828599Y-74073387D01*
X133830903Y-74077322D01*
X133830906Y-74077328D01*
X133942585Y-74268059D01*
X133966929Y-74309635D01*
X133993962Y-74343438D01*
X134107737Y-74485707D01*
X134137913Y-74523441D01*
X134337970Y-74710324D01*
X134562910Y-74866370D01*
X134808020Y-74988310D01*
X134812354Y-74989731D01*
X134812357Y-74989732D01*
X134891279Y-75015604D01*
X135068166Y-75073590D01*
X135072657Y-75074370D01*
X135072658Y-75074370D01*
X135334117Y-75119768D01*
X135334122Y-75119769D01*
X135337897Y-75120424D01*
X135341734Y-75120615D01*
X135422825Y-75124652D01*
X135422833Y-75124652D01*
X135424396Y-75124730D01*
X135595304Y-75124730D01*
X135597572Y-75124565D01*
X135597584Y-75124565D01*
X135729359Y-75115003D01*
X135798809Y-75109964D01*
X135803264Y-75108980D01*
X135803267Y-75108980D01*
X136061682Y-75051927D01*
X136061685Y-75051926D01*
X136066138Y-75050943D01*
X136147885Y-75019972D01*
X136317879Y-74955568D01*
X136317886Y-74955565D01*
X136322148Y-74953950D01*
X136425380Y-74896610D01*
X136557481Y-74823234D01*
X136557482Y-74823233D01*
X136561474Y-74821016D01*
X136703105Y-74712927D01*
X136775471Y-74657699D01*
X136775472Y-74657698D01*
X136779103Y-74654927D01*
X136970477Y-74459161D01*
X136973166Y-74455467D01*
X137128900Y-74241511D01*
X137128902Y-74241508D01*
X137131587Y-74237819D01*
X137259056Y-73995539D01*
X137350216Y-73737395D01*
X137387315Y-73549173D01*
X137402276Y-73473267D01*
X137402277Y-73473261D01*
X137403157Y-73468795D01*
X137410991Y-73311433D01*
X137416542Y-73199936D01*
X137416542Y-73199930D01*
X137416769Y-73195367D01*
X137390768Y-72922838D01*
X137325697Y-72656916D01*
X137266701Y-72511261D01*
X137224636Y-72407406D01*
X137224633Y-72407401D01*
X137222921Y-72403173D01*
X137220617Y-72399238D01*
X137220614Y-72399232D01*
X137086897Y-72170863D01*
X137086896Y-72170861D01*
X137084591Y-72166925D01*
X136940642Y-71986925D01*
X136916459Y-71956685D01*
X136916457Y-71956683D01*
X136913607Y-71953119D01*
X136713550Y-71766236D01*
X136488610Y-71610190D01*
X136243500Y-71488250D01*
X136239166Y-71486829D01*
X136239163Y-71486828D01*
X136141684Y-71454873D01*
X135983354Y-71402970D01*
X135953694Y-71397820D01*
X135717403Y-71356792D01*
X135717398Y-71356791D01*
X135713623Y-71356136D01*
X135706245Y-71355769D01*
X135628695Y-71351908D01*
X135628687Y-71351908D01*
X135627124Y-71351830D01*
X135456216Y-71351830D01*
X135453948Y-71351995D01*
X135453936Y-71351995D01*
X135322161Y-71361557D01*
X135252711Y-71366596D01*
X135248256Y-71367580D01*
X135248253Y-71367580D01*
X134989838Y-71424633D01*
X134989835Y-71424634D01*
X134985382Y-71425617D01*
X134981114Y-71427234D01*
X134733641Y-71520992D01*
X134733634Y-71520995D01*
X134729372Y-71522610D01*
X134725386Y-71524824D01*
X134725384Y-71524825D01*
X134517256Y-71640430D01*
X134490046Y-71655544D01*
X134486414Y-71658316D01*
X134305381Y-71796476D01*
X134272417Y-71821633D01*
X134081043Y-72017399D01*
X134078356Y-72021091D01*
X134078354Y-72021093D01*
X133952789Y-72193602D01*
X133919933Y-72238741D01*
X133792464Y-72481021D01*
X133701304Y-72739165D01*
X133681728Y-72838486D01*
X133659142Y-72953078D01*
X133648363Y-73007765D01*
X133648136Y-73012318D01*
X133648136Y-73012321D01*
X133637291Y-73230176D01*
X133634751Y-73281193D01*
X130000000Y-73281193D01*
X130000000Y-63899093D01*
X132113171Y-63899093D01*
X132139172Y-64171622D01*
X132204243Y-64437544D01*
X132307019Y-64691287D01*
X132309323Y-64695222D01*
X132309326Y-64695228D01*
X132405460Y-64859411D01*
X132445349Y-64927535D01*
X132616333Y-65141341D01*
X132816390Y-65328224D01*
X133041330Y-65484270D01*
X133286440Y-65606210D01*
X133290774Y-65607631D01*
X133290777Y-65607632D01*
X133369699Y-65633504D01*
X133546586Y-65691490D01*
X133551077Y-65692270D01*
X133551078Y-65692270D01*
X133812537Y-65737668D01*
X133812542Y-65737669D01*
X133816317Y-65738324D01*
X133820154Y-65738515D01*
X133901245Y-65742552D01*
X133901253Y-65742552D01*
X133902816Y-65742630D01*
X134073724Y-65742630D01*
X134075992Y-65742465D01*
X134076004Y-65742465D01*
X134207779Y-65732903D01*
X134277229Y-65727864D01*
X134281684Y-65726880D01*
X134281687Y-65726880D01*
X134540102Y-65669827D01*
X134540105Y-65669826D01*
X134544558Y-65668843D01*
X134551930Y-65666050D01*
X134796299Y-65573468D01*
X134796306Y-65573465D01*
X134800568Y-65571850D01*
X134962923Y-65481670D01*
X135035901Y-65441134D01*
X135035902Y-65441133D01*
X135039894Y-65438916D01*
X135181525Y-65330827D01*
X135253891Y-65275599D01*
X135253892Y-65275598D01*
X135257523Y-65272827D01*
X135448897Y-65077061D01*
X135451586Y-65073367D01*
X135607320Y-64859411D01*
X135607322Y-64859408D01*
X135610007Y-64855719D01*
X135737476Y-64613439D01*
X135828636Y-64355295D01*
X135881577Y-64086695D01*
X135890690Y-63903649D01*
X135894962Y-63817836D01*
X135894962Y-63817830D01*
X135895189Y-63813267D01*
X135869188Y-63540738D01*
X135804117Y-63274816D01*
X135701341Y-63021073D01*
X135699037Y-63017138D01*
X135699034Y-63017132D01*
X135565317Y-62788763D01*
X135565316Y-62788761D01*
X135563011Y-62784825D01*
X135392027Y-62571019D01*
X135191970Y-62384136D01*
X134967030Y-62228090D01*
X134721920Y-62106150D01*
X134717586Y-62104729D01*
X134717583Y-62104728D01*
X134638661Y-62078856D01*
X134461774Y-62020870D01*
X134457282Y-62020090D01*
X134195823Y-61974692D01*
X134195818Y-61974691D01*
X134192043Y-61974036D01*
X134184665Y-61973669D01*
X134107115Y-61969808D01*
X134107107Y-61969808D01*
X134105544Y-61969730D01*
X133934636Y-61969730D01*
X133932368Y-61969895D01*
X133932356Y-61969895D01*
X133800581Y-61979457D01*
X133731131Y-61984496D01*
X133726676Y-61985480D01*
X133726673Y-61985480D01*
X133468258Y-62042533D01*
X133468255Y-62042534D01*
X133463802Y-62043517D01*
X133459534Y-62045134D01*
X133212061Y-62138892D01*
X133212054Y-62138895D01*
X133207792Y-62140510D01*
X133203806Y-62142724D01*
X133203804Y-62142725D01*
X132972459Y-62271226D01*
X132968466Y-62273444D01*
X132964834Y-62276216D01*
X132823425Y-62384136D01*
X132750837Y-62439533D01*
X132747644Y-62442799D01*
X132747642Y-62442801D01*
X132691693Y-62500034D01*
X132559463Y-62635299D01*
X132556776Y-62638991D01*
X132556774Y-62638993D01*
X132453220Y-62781262D01*
X132398353Y-62856641D01*
X132270884Y-63098921D01*
X132179724Y-63357065D01*
X132178844Y-63361531D01*
X132153389Y-63490680D01*
X132126783Y-63625665D01*
X132126556Y-63630218D01*
X132126556Y-63630221D01*
X132117444Y-63813267D01*
X132113171Y-63899093D01*
X130000000Y-63899093D01*
X130000000Y-53296282D01*
X130459321Y-53296282D01*
X130494912Y-53503408D01*
X130567652Y-53700579D01*
X130570604Y-53705540D01*
X130570604Y-53705541D01*
X130588614Y-53735812D01*
X130675106Y-53881192D01*
X130813674Y-54039199D01*
X130978717Y-54169308D01*
X130983833Y-54171999D01*
X130983835Y-54172001D01*
X131147190Y-54257946D01*
X131164707Y-54267162D01*
X131365414Y-54329484D01*
X131371149Y-54330163D01*
X131371150Y-54330163D01*
X131401712Y-54333780D01*
X131536054Y-54349680D01*
X131657496Y-54349680D01*
X131813459Y-54335349D01*
X131819021Y-54333780D01*
X131819023Y-54333780D01*
X131914594Y-54306826D01*
X132015729Y-54278303D01*
X132204217Y-54185351D01*
X132372609Y-54059607D01*
X132444101Y-53982267D01*
X132511347Y-53909521D01*
X132511349Y-53909518D01*
X132515266Y-53905281D01*
X132627411Y-53727542D01*
X132705288Y-53532343D01*
X132706413Y-53526686D01*
X132706415Y-53526680D01*
X132745161Y-53331887D01*
X132745161Y-53331885D01*
X132746288Y-53326220D01*
X132746606Y-53301980D01*
X132748963Y-53121860D01*
X132749039Y-53116078D01*
X132721769Y-52957374D01*
X132714427Y-52914649D01*
X132714427Y-52914648D01*
X132713448Y-52908952D01*
X132640708Y-52711781D01*
X132533254Y-52531168D01*
X132394686Y-52373161D01*
X132229643Y-52243052D01*
X132224527Y-52240361D01*
X132224525Y-52240359D01*
X132048770Y-52147890D01*
X132048768Y-52147889D01*
X132043653Y-52145198D01*
X131842946Y-52082876D01*
X131837211Y-52082197D01*
X131837210Y-52082197D01*
X131788922Y-52076482D01*
X131672306Y-52062680D01*
X131550864Y-52062680D01*
X131394901Y-52077011D01*
X131389339Y-52078580D01*
X131389337Y-52078580D01*
X131293766Y-52105534D01*
X131192631Y-52134057D01*
X131004143Y-52227009D01*
X130835751Y-52352753D01*
X130693094Y-52507079D01*
X130580949Y-52684818D01*
X130503072Y-52880017D01*
X130501947Y-52885674D01*
X130501945Y-52885680D01*
X130487190Y-52959861D01*
X130462072Y-53086140D01*
X130461996Y-53091915D01*
X130461996Y-53091919D01*
X130461680Y-53116078D01*
X130459321Y-53296282D01*
X130000000Y-53296282D01*
X130000000Y-50126000D01*
X130020002Y-50057879D01*
X130073658Y-50011386D01*
X130126000Y-50000000D01*
X171124000Y-50000000D01*
X171192121Y-50020002D01*
G37*
%TD.AperFunction*%
%TD*%
M02*
