%TF.GenerationSoftware,KiCad,Pcbnew,(6.0.11-0)*%
%TF.CreationDate,2024-08-02T08:23:09-07:00*%
%TF.ProjectId,TcBox_6x4,5463426f-785f-4367-9834-2e6b69636164,v1.0*%
%TF.SameCoordinates,Original*%
%TF.FileFunction,Copper,L1,Top*%
%TF.FilePolarity,Positive*%
%FSLAX46Y46*%
G04 Gerber Fmt 4.6, Leading zero omitted, Abs format (unit mm)*
G04 Created by KiCad (PCBNEW (6.0.11-0)) date 2024-08-02 08:23:09*
%MOMM*%
%LPD*%
G01*
G04 APERTURE LIST*
%TA.AperFunction,ConnectorPad*%
%ADD10R,1.500000X0.750000*%
%TD*%
%TA.AperFunction,ComponentPad*%
%ADD11C,0.800000*%
%TD*%
%TA.AperFunction,ComponentPad*%
%ADD12C,1.524000*%
%TD*%
%TA.AperFunction,ViaPad*%
%ADD13C,0.800000*%
%TD*%
%TA.AperFunction,Conductor*%
%ADD14C,0.250000*%
%TD*%
%TA.AperFunction,Conductor*%
%ADD15C,0.254000*%
%TD*%
G04 APERTURE END LIST*
D10*
%TO.P,J3,1,Pin_1*%
%TO.N,/Ch1_0*%
X135875000Y-116000000D03*
%TO.P,J3,2,Pin_2*%
%TO.N,/Ch1_2*%
X135875000Y-117500000D03*
%TO.P,J3,3,Pin_3*%
%TO.N,/Ch1_4*%
X135875000Y-119000000D03*
%TO.P,J3,4,Pin_4*%
%TO.N,/Ch1_1*%
X134125000Y-116750000D03*
%TO.P,J3,5,Pin_5*%
%TO.N,/Ch1_3*%
X134125000Y-118250000D03*
%TO.P,J3,6,Pin_6*%
%TO.N,/Ch1_5*%
X134125000Y-119750000D03*
%TD*%
%TO.P,J5,1,Pin_1*%
%TO.N,/Ch3_0*%
X165375000Y-110000000D03*
%TO.P,J5,2,Pin_2*%
%TO.N,/Ch3_2*%
X165375000Y-108500000D03*
%TO.P,J5,3,Pin_3*%
%TO.N,/Ch3_4*%
X165375000Y-107000000D03*
%TO.P,J5,4,Pin_4*%
%TO.N,/Ch3_1*%
X167125000Y-109250000D03*
%TO.P,J5,5,Pin_5*%
%TO.N,/Ch3_3*%
X167125000Y-107750000D03*
%TO.P,J5,6,Pin_6*%
%TO.N,/Ch3_5*%
X167125000Y-106250000D03*
%TD*%
%TO.P,J2,1,Pin_1*%
%TO.N,/Ch0_0*%
X135875000Y-106500000D03*
%TO.P,J2,2,Pin_2*%
%TO.N,/Ch0_2*%
X135875000Y-108000000D03*
%TO.P,J2,3,Pin_3*%
%TO.N,/Ch0_4*%
X135875000Y-109500000D03*
%TO.P,J2,4,Pin_4*%
%TO.N,/Ch0_1*%
X134125000Y-107250000D03*
%TO.P,J2,5,Pin_5*%
%TO.N,/Ch0_3*%
X134125000Y-108750000D03*
%TO.P,J2,6,Pin_6*%
%TO.N,/Ch0_5*%
X134125000Y-110250000D03*
%TD*%
%TO.P,J4,1,Pin_1*%
%TO.N,/Ch2_0*%
X165375000Y-120000000D03*
%TO.P,J4,2,Pin_2*%
%TO.N,/Ch2_2*%
X165375000Y-118500000D03*
%TO.P,J4,3,Pin_3*%
%TO.N,/Ch2_4*%
X165375000Y-117000000D03*
%TO.P,J4,4,Pin_4*%
%TO.N,/Ch2_1*%
X167125000Y-119250000D03*
%TO.P,J4,5,Pin_5*%
%TO.N,/Ch2_3*%
X167125000Y-117750000D03*
%TO.P,J4,6,Pin_6*%
%TO.N,/Ch2_5*%
X167125000Y-116250000D03*
%TD*%
D11*
%TO.P,R1,1*%
%TO.N,/coldMount*%
X150750000Y-60250000D03*
%TD*%
D12*
%TO.P,J1,1,Pin_1*%
%TO.N,/Ch0_0*%
X135414180Y-54476180D03*
%TO.P,J1,2,Pin_2*%
%TO.N,/Ch0_2*%
X137954180Y-54476180D03*
%TO.P,J1,3,Pin_3*%
%TO.N,/Ch0_4*%
X140494180Y-54476180D03*
%TO.P,J1,4,Pin_4*%
%TO.N,/Ch1_0*%
X143034180Y-54476180D03*
%TO.P,J1,5,Pin_5*%
%TO.N,/Ch1_2*%
X145574180Y-54476180D03*
%TO.P,J1,6,Pin_6*%
%TO.N,/Ch1_4*%
X148114180Y-54476180D03*
%TO.P,J1,7,Pin_7*%
%TO.N,unconnected-(J1-Pad7)*%
X150654180Y-54476180D03*
%TO.P,J1,8,Pin_8*%
%TO.N,/Ch2_1*%
X153194180Y-54476180D03*
%TO.P,J1,9,Pin_9*%
%TO.N,/Ch2_3*%
X155734180Y-54476180D03*
%TO.P,J1,10,Pin_10*%
%TO.N,/Ch2_5*%
X158274180Y-54476180D03*
%TO.P,J1,11,Pin_11*%
%TO.N,/Ch3_1*%
X160814180Y-54476180D03*
%TO.P,J1,12,Pin_12*%
%TO.N,/Ch3_3*%
X163354180Y-54476180D03*
%TO.P,J1,13,Pin_13*%
%TO.N,/Ch3_5*%
X165894180Y-54476180D03*
%TO.P,J1,14,Pin_14*%
%TO.N,/Ch0_1*%
X136684180Y-51936180D03*
%TO.P,J1,15,Pin_15*%
%TO.N,/Ch0_3*%
X139224180Y-51936180D03*
%TO.P,J1,16,Pin_16*%
%TO.N,/Ch0_5*%
X141764180Y-51936180D03*
%TO.P,J1,17,Pin_17*%
%TO.N,/Ch1_1*%
X144304180Y-51936180D03*
%TO.P,J1,18,Pin_18*%
%TO.N,/Ch1_3*%
X146844180Y-51936180D03*
%TO.P,J1,19,Pin_19*%
%TO.N,/Ch1_5*%
X149384180Y-51936180D03*
%TO.P,J1,20,Pin_20*%
%TO.N,/Ch2_0*%
X151924180Y-51936180D03*
%TO.P,J1,21,Pin_21*%
%TO.N,/Ch2_2*%
X154464180Y-51936180D03*
%TO.P,J1,22,Pin_22*%
%TO.N,/Ch2_4*%
X157004180Y-51936180D03*
%TO.P,J1,23,Pin_23*%
%TO.N,/Ch3_0*%
X159544180Y-51936180D03*
%TO.P,J1,24,Pin_24*%
%TO.N,/Ch3_2*%
X162084180Y-51936180D03*
%TO.P,J1,25,Pin_25*%
%TO.N,/Ch3_4*%
X164624180Y-51936180D03*
%TD*%
D13*
%TO.N,/Ch0_0*%
X138511286Y-104911286D03*
%TO.N,/Ch0_1*%
X138425000Y-106025000D03*
%TO.N,/Ch0_2*%
X139686286Y-106486286D03*
%TO.N,/Ch0_3*%
X139613714Y-107613714D03*
%TO.N,/Ch0_4*%
X139773500Y-109000000D03*
%TO.N,/Ch0_5*%
X139450000Y-110850000D03*
%TO.N,/Ch3_0*%
X161600000Y-110700000D03*
%TO.N,/Ch3_1*%
X161750000Y-109350000D03*
%TO.N,/Ch3_2*%
X161986286Y-108013714D03*
%TO.N,/Ch3_3*%
X161513714Y-106486286D03*
%TO.N,/Ch3_4*%
X162411286Y-105688714D03*
%TO.N,/Ch3_5*%
X161989464Y-104212036D03*
%TO.N,/coldMount*%
X131000000Y-92000000D03*
X142000000Y-121000000D03*
X164000000Y-98000000D03*
X133750000Y-69750000D03*
X165000000Y-100000000D03*
X166000000Y-102000000D03*
X138000000Y-101000000D03*
X167250000Y-77000000D03*
X164000000Y-60000000D03*
X164000000Y-87000000D03*
X135000000Y-114000000D03*
X170000000Y-95000000D03*
X170000000Y-78000000D03*
X165000000Y-104000000D03*
X145875000Y-61175000D03*
X170500000Y-51000000D03*
X138000000Y-62000000D03*
X138000000Y-87000000D03*
X138000000Y-114000000D03*
X155775000Y-61175000D03*
X138000000Y-78000000D03*
X131000000Y-51000000D03*
X167750000Y-85750000D03*
X165750000Y-95500000D03*
X163000000Y-113000000D03*
X170000000Y-88000000D03*
X166000000Y-114000000D03*
X164000000Y-102000000D03*
X133000000Y-51000000D03*
X138000000Y-98000000D03*
X131000000Y-83000000D03*
X170000000Y-91500000D03*
X168000000Y-51000000D03*
X167500000Y-60000000D03*
X135000000Y-98000000D03*
X133500000Y-87750000D03*
X131000000Y-58000000D03*
X170000000Y-58000000D03*
X131000000Y-75000000D03*
X150750000Y-57250000D03*
X133500000Y-78750000D03*
X159000000Y-121000000D03*
X138000000Y-69000000D03*
X135000000Y-101000000D03*
X166000000Y-70000000D03*
X164000000Y-78000000D03*
X131000000Y-67000000D03*
X170000000Y-69000000D03*
X169750000Y-73500000D03*
X166000000Y-98000000D03*
X169750000Y-82250000D03*
X134750000Y-58250000D03*
X164000000Y-67000000D03*
%TD*%
D14*
%TO.N,/Ch0_0*%
X135875000Y-106500000D02*
X136922572Y-106500000D01*
X136922572Y-106500000D02*
X138511286Y-104911286D01*
%TO.N,/Ch0_1*%
X137200000Y-107250000D02*
X138425000Y-106025000D01*
X134125000Y-107250000D02*
X137200000Y-107250000D01*
%TO.N,/Ch0_2*%
X139513714Y-106486286D02*
X138000000Y-108000000D01*
X138000000Y-108000000D02*
X135875000Y-108000000D01*
X139686286Y-106486286D02*
X139513714Y-106486286D01*
%TO.N,/Ch0_3*%
X138500000Y-108750000D02*
X134125000Y-108750000D01*
X139613714Y-107613714D02*
X139613714Y-107636286D01*
X139613714Y-107636286D02*
X138500000Y-108750000D01*
%TO.N,/Ch0_4*%
X139273500Y-109500000D02*
X139773500Y-109000000D01*
X135875000Y-109500000D02*
X139273500Y-109500000D01*
%TO.N,/Ch0_5*%
X138850000Y-110250000D02*
X134125000Y-110250000D01*
X139450000Y-110850000D02*
X139300000Y-111000000D01*
X139450000Y-110850000D02*
X138850000Y-110250000D01*
D15*
%TO.N,/Ch1_0*%
X143034180Y-56323768D02*
X143034180Y-54476180D01*
X140500000Y-114000000D02*
X140500000Y-58857948D01*
X140500000Y-58857948D02*
X143034180Y-56323768D01*
X138500000Y-116000000D02*
X140500000Y-114000000D01*
X135544180Y-116000000D02*
X138500000Y-116000000D01*
%TO.N,/Ch1_1*%
X144304180Y-51936180D02*
X144304180Y-55695820D01*
D14*
X138750000Y-116750000D02*
X134125000Y-116750000D01*
D15*
X144304180Y-55695820D02*
X141000000Y-59000000D01*
X141000000Y-114500000D02*
X140000000Y-115500000D01*
D14*
X140000000Y-115500000D02*
X138750000Y-116750000D01*
D15*
X141000000Y-59000000D02*
X141000000Y-114500000D01*
%TO.N,/Ch1_2*%
X140000000Y-117000000D02*
X142000000Y-115000000D01*
X142000000Y-115000000D02*
X142000000Y-59500000D01*
X142000000Y-59500000D02*
X145574180Y-55925820D01*
D14*
X139500000Y-117500000D02*
X140000000Y-117000000D01*
D15*
X145574180Y-55925820D02*
X145574180Y-54476180D01*
D14*
X135875000Y-117500000D02*
X139500000Y-117500000D01*
%TO.N,/Ch1_3*%
X139750000Y-118250000D02*
X134125000Y-118250000D01*
D15*
X142500000Y-59642052D02*
X146844180Y-55297872D01*
X140125000Y-117875000D02*
X142500000Y-115500000D01*
X142500000Y-115500000D02*
X142500000Y-59642052D01*
X146844180Y-55297872D02*
X146844180Y-51936180D01*
D14*
X140125000Y-117875000D02*
X139750000Y-118250000D01*
D15*
%TO.N,/Ch1_4*%
X143400000Y-60600000D02*
X148114180Y-55885820D01*
D14*
X140500000Y-119000000D02*
X135875000Y-119000000D01*
D15*
X141250000Y-118250000D02*
X143400000Y-116100000D01*
D14*
X141250000Y-118250000D02*
X140500000Y-119000000D01*
D15*
X148114180Y-55885820D02*
X148114180Y-54476180D01*
X143400000Y-116100000D02*
X143400000Y-60600000D01*
%TO.N,/Ch1_5*%
X143854000Y-60788052D02*
X149384180Y-55257872D01*
X143750000Y-117250000D02*
X143854000Y-117146000D01*
X142875000Y-118125000D02*
X141750000Y-119250000D01*
D14*
X141750000Y-119250000D02*
X141250000Y-119750000D01*
X141250000Y-119750000D02*
X134125000Y-119750000D01*
D15*
X142875000Y-118125000D02*
X143854000Y-117146000D01*
X149384180Y-55257872D02*
X149384180Y-51936180D01*
X143854000Y-117146000D02*
X143854000Y-60788052D01*
X143750000Y-117250000D02*
X142875000Y-118125000D01*
%TO.N,/Ch2_0*%
X158375000Y-118125000D02*
X157396000Y-117146000D01*
D14*
X165375000Y-120000000D02*
X160250000Y-120000000D01*
D15*
X157500000Y-117250000D02*
X157396000Y-117146000D01*
D14*
X160250000Y-120000000D02*
X159875000Y-119625000D01*
D15*
X157396000Y-117146000D02*
X157396000Y-60788052D01*
X151865820Y-55257872D02*
X151865820Y-51936180D01*
X157396000Y-60788052D02*
X151865820Y-55257872D01*
X158375000Y-118125000D02*
X159875000Y-119625000D01*
X157500000Y-117250000D02*
X158375000Y-118125000D01*
D14*
%TO.N,/Ch2_1*%
X161000000Y-119250000D02*
X160750000Y-119000000D01*
D15*
X157850000Y-116100000D02*
X157850000Y-60600000D01*
X160750000Y-119000000D02*
X157850000Y-116100000D01*
X153135820Y-55885820D02*
X153135820Y-54476180D01*
X157850000Y-60600000D02*
X153135820Y-55885820D01*
D14*
X167125000Y-119250000D02*
X161000000Y-119250000D01*
D15*
%TO.N,/Ch2_2*%
X161250000Y-118000000D02*
X158750000Y-115500000D01*
X158750000Y-115500000D02*
X158750000Y-59642052D01*
D14*
X165375000Y-118500000D02*
X161750000Y-118500000D01*
D15*
X154405820Y-55297872D02*
X154405820Y-51936180D01*
D14*
X161750000Y-118500000D02*
X161250000Y-118000000D01*
D15*
X158750000Y-59642052D02*
X154405820Y-55297872D01*
%TO.N,/Ch2_3*%
X159250000Y-59500000D02*
X155675820Y-55925820D01*
D14*
X167125000Y-117750000D02*
X162000000Y-117750000D01*
D15*
X155675820Y-55925820D02*
X155675820Y-54476180D01*
X161125000Y-116875000D02*
X159250000Y-115000000D01*
X159250000Y-115000000D02*
X159250000Y-59500000D01*
D14*
X162000000Y-117750000D02*
X161125000Y-116875000D01*
%TO.N,/Ch2_4*%
X162750000Y-117000000D02*
X165375000Y-117000000D01*
D15*
X160250000Y-59000000D02*
X160250000Y-114500000D01*
X156945820Y-51936180D02*
X156945820Y-55695820D01*
X160250000Y-114500000D02*
X162750000Y-117000000D01*
X156945820Y-55695820D02*
X160250000Y-59000000D01*
%TO.N,/Ch2_5*%
X160750000Y-114000000D02*
X160750000Y-58857948D01*
X160750000Y-58857948D02*
X158215820Y-56323768D01*
D14*
X163000000Y-116250000D02*
X167125000Y-116250000D01*
D15*
X158215820Y-56323768D02*
X158215820Y-54476180D01*
D14*
X160750000Y-114000000D02*
X163000000Y-116250000D01*
%TO.N,/Ch3_0*%
X162300000Y-110000000D02*
X165375000Y-110000000D01*
X161600000Y-110700000D02*
X162300000Y-110000000D01*
%TO.N,/Ch3_1*%
X161850000Y-109250000D02*
X167125000Y-109250000D01*
X161750000Y-109350000D02*
X161850000Y-109250000D01*
%TO.N,/Ch3_2*%
X162472572Y-108500000D02*
X165375000Y-108500000D01*
X161986286Y-108013714D02*
X162472572Y-108500000D01*
X162750000Y-108500000D02*
X165375000Y-108500000D01*
%TO.N,/Ch3_3*%
X162777428Y-107750000D02*
X167125000Y-107750000D01*
D15*
X162138714Y-107111286D02*
X161513714Y-106486286D01*
D14*
X162138714Y-107111286D02*
X162777428Y-107750000D01*
D15*
%TO.N,/Ch3_4*%
X163722572Y-107000000D02*
X162411286Y-105688714D01*
D14*
X163722572Y-107000000D02*
X165375000Y-107000000D01*
%TO.N,/Ch3_5*%
X163777428Y-106000000D02*
X164027428Y-106250000D01*
D15*
X163777428Y-106000000D02*
X161989464Y-104212036D01*
D14*
X164027428Y-106250000D02*
X167125000Y-106250000D01*
%TD*%
%TA.AperFunction,Conductor*%
%TO.N,/coldMount*%
G36*
X157708512Y-117998489D02*
G01*
X157715088Y-118004611D01*
X158127647Y-118417170D01*
X158127658Y-118417180D01*
X159627648Y-119917171D01*
X159631876Y-119920192D01*
X159635849Y-119923559D01*
X159635667Y-119923774D01*
X159644930Y-119931624D01*
X159943522Y-120230216D01*
X159958664Y-120248964D01*
X159959779Y-120250189D01*
X159965429Y-120258940D01*
X159973607Y-120265387D01*
X159973609Y-120265389D01*
X159991800Y-120279729D01*
X159996241Y-120283675D01*
X159996303Y-120283602D01*
X160000267Y-120286961D01*
X160003944Y-120290638D01*
X160019692Y-120301892D01*
X160024362Y-120305398D01*
X160064647Y-120337156D01*
X160073281Y-120340188D01*
X160080734Y-120345514D01*
X160129850Y-120360203D01*
X160135492Y-120362036D01*
X160176367Y-120376390D01*
X160183851Y-120379018D01*
X160189416Y-120379500D01*
X160192124Y-120379500D01*
X160194758Y-120379614D01*
X160194856Y-120379643D01*
X160194849Y-120379807D01*
X160195553Y-120379851D01*
X160201778Y-120381713D01*
X160255635Y-120379597D01*
X160260582Y-120379500D01*
X164264429Y-120379500D01*
X164332550Y-120399502D01*
X164380839Y-120457284D01*
X164382844Y-120462126D01*
X164385266Y-120474301D01*
X164441516Y-120558484D01*
X164525699Y-120614734D01*
X164599933Y-120629500D01*
X165374874Y-120629500D01*
X166150066Y-120629499D01*
X166185818Y-120622388D01*
X166212126Y-120617156D01*
X166212128Y-120617155D01*
X166224301Y-120614734D01*
X166234621Y-120607839D01*
X166234622Y-120607838D01*
X166298168Y-120565377D01*
X166308484Y-120558484D01*
X166364734Y-120474301D01*
X166379500Y-120400067D01*
X166379499Y-120005499D01*
X166399501Y-119937380D01*
X166453156Y-119890887D01*
X166505499Y-119879500D01*
X166673321Y-119879500D01*
X167374001Y-119879499D01*
X167442121Y-119899501D01*
X167488614Y-119953157D01*
X167500000Y-120005499D01*
X167500000Y-122124000D01*
X167479998Y-122192121D01*
X167426342Y-122238614D01*
X167374000Y-122250000D01*
X157626000Y-122250000D01*
X157557879Y-122229998D01*
X157511386Y-122176342D01*
X157500000Y-122124000D01*
X157500000Y-118093713D01*
X157520002Y-118025592D01*
X157573658Y-117979099D01*
X157643932Y-117968995D01*
X157708512Y-117998489D01*
G37*
%TD.AperFunction*%
%TA.AperFunction,Conductor*%
G36*
X143668032Y-117975656D02*
G01*
X143724868Y-118018203D01*
X143749679Y-118084723D01*
X143750000Y-118093712D01*
X143750000Y-122124000D01*
X143729998Y-122192121D01*
X143676342Y-122238614D01*
X143624000Y-122250000D01*
X133876000Y-122250000D01*
X133807879Y-122229998D01*
X133761386Y-122176342D01*
X133750000Y-122124000D01*
X133750000Y-120505500D01*
X133770002Y-120437379D01*
X133823658Y-120390886D01*
X133876000Y-120379500D01*
X134882041Y-120379499D01*
X134900066Y-120379499D01*
X134935818Y-120372388D01*
X134962126Y-120367156D01*
X134962128Y-120367155D01*
X134974301Y-120364734D01*
X134984621Y-120357839D01*
X134984622Y-120357838D01*
X135048168Y-120315377D01*
X135058484Y-120308484D01*
X135114734Y-120224301D01*
X135117155Y-120212127D01*
X135119163Y-120207281D01*
X135163712Y-120152001D01*
X135235572Y-120129500D01*
X141196080Y-120129500D01*
X141220028Y-120132049D01*
X141221693Y-120132128D01*
X141231876Y-120134320D01*
X141242217Y-120133096D01*
X141265223Y-120130373D01*
X141271154Y-120130023D01*
X141271146Y-120129928D01*
X141276324Y-120129500D01*
X141281524Y-120129500D01*
X141286653Y-120128646D01*
X141286656Y-120128646D01*
X141300565Y-120126331D01*
X141306443Y-120125494D01*
X141347001Y-120120694D01*
X141347002Y-120120694D01*
X141357341Y-120119470D01*
X141365593Y-120115507D01*
X141374626Y-120114004D01*
X141383795Y-120109057D01*
X141383797Y-120109056D01*
X141419732Y-120089666D01*
X141425025Y-120086969D01*
X141464082Y-120068215D01*
X141464086Y-120068212D01*
X141471232Y-120064781D01*
X141475508Y-120061186D01*
X141477431Y-120059263D01*
X141479363Y-120057491D01*
X141479442Y-120057448D01*
X141479555Y-120057572D01*
X141480095Y-120057096D01*
X141485814Y-120054010D01*
X141522417Y-120014413D01*
X141525846Y-120010848D01*
X141960204Y-119576490D01*
X141972498Y-119566559D01*
X141972398Y-119566440D01*
X141974606Y-119564584D01*
X141974610Y-119564581D01*
X141976692Y-119562830D01*
X143167171Y-118372352D01*
X143167173Y-118372349D01*
X143534905Y-118004617D01*
X143597217Y-117970591D01*
X143668032Y-117975656D01*
G37*
%TD.AperFunction*%
%TA.AperFunction,Conductor*%
G36*
X138708737Y-110649502D02*
G01*
X138729711Y-110666405D01*
X138760249Y-110696943D01*
X138794275Y-110759255D01*
X138796076Y-110802482D01*
X138790729Y-110843096D01*
X138808113Y-111000553D01*
X138810723Y-111007684D01*
X138810723Y-111007686D01*
X138859178Y-111140095D01*
X138862553Y-111149319D01*
X138950908Y-111280805D01*
X138956527Y-111285918D01*
X138956528Y-111285919D01*
X139062460Y-111382309D01*
X139068076Y-111387419D01*
X139207293Y-111463008D01*
X139360522Y-111503207D01*
X139444477Y-111504526D01*
X139511319Y-111505576D01*
X139511322Y-111505576D01*
X139518916Y-111505695D01*
X139673332Y-111470329D01*
X139787063Y-111413129D01*
X139808072Y-111402563D01*
X139808075Y-111402561D01*
X139814855Y-111399151D01*
X139820626Y-111394222D01*
X139820629Y-111394220D01*
X139910669Y-111317318D01*
X139975459Y-111288287D01*
X140045659Y-111298892D01*
X140098982Y-111345767D01*
X140118500Y-111413129D01*
X140118500Y-113789788D01*
X140098498Y-113857909D01*
X140081595Y-113878883D01*
X138378882Y-115581595D01*
X138316570Y-115615621D01*
X138289787Y-115618500D01*
X136984743Y-115618500D01*
X136916622Y-115598498D01*
X136868334Y-115540717D01*
X136867155Y-115537870D01*
X136864734Y-115525699D01*
X136808484Y-115441516D01*
X136724301Y-115385266D01*
X136650067Y-115370500D01*
X135875126Y-115370500D01*
X135099934Y-115370501D01*
X135064182Y-115377612D01*
X135037874Y-115382844D01*
X135037872Y-115382845D01*
X135025699Y-115385266D01*
X135015379Y-115392161D01*
X135015378Y-115392162D01*
X134954985Y-115432516D01*
X134941516Y-115441516D01*
X134885266Y-115525699D01*
X134870500Y-115599933D01*
X134870501Y-115850498D01*
X134870501Y-115994500D01*
X134850499Y-116062620D01*
X134796844Y-116109113D01*
X134744501Y-116120500D01*
X134576679Y-116120500D01*
X133875999Y-116120501D01*
X133807879Y-116100499D01*
X133761386Y-116046843D01*
X133750000Y-115994501D01*
X133750000Y-111005500D01*
X133770002Y-110937379D01*
X133823658Y-110890886D01*
X133876000Y-110879500D01*
X134882041Y-110879499D01*
X134900066Y-110879499D01*
X134935818Y-110872388D01*
X134962126Y-110867156D01*
X134962128Y-110867155D01*
X134974301Y-110864734D01*
X134984621Y-110857839D01*
X134984622Y-110857838D01*
X135048168Y-110815377D01*
X135058484Y-110808484D01*
X135114734Y-110724301D01*
X135117155Y-110712127D01*
X135119163Y-110707281D01*
X135163712Y-110652001D01*
X135235572Y-110629500D01*
X138640616Y-110629500D01*
X138708737Y-110649502D01*
G37*
%TD.AperFunction*%
%TA.AperFunction,Conductor*%
G36*
X167442121Y-109899501D02*
G01*
X167488614Y-109953157D01*
X167500000Y-110005499D01*
X167500000Y-115494500D01*
X167479998Y-115562621D01*
X167426342Y-115609114D01*
X167374000Y-115620500D01*
X166367959Y-115620501D01*
X166349934Y-115620501D01*
X166314182Y-115627612D01*
X166287874Y-115632844D01*
X166287872Y-115632845D01*
X166275699Y-115635266D01*
X166265379Y-115642161D01*
X166265378Y-115642162D01*
X166223480Y-115670158D01*
X166191516Y-115691516D01*
X166135266Y-115775699D01*
X166132845Y-115787873D01*
X166130837Y-115792719D01*
X166086288Y-115847999D01*
X166014428Y-115870500D01*
X163209384Y-115870500D01*
X163141263Y-115850498D01*
X163120289Y-115833595D01*
X161168405Y-113881711D01*
X161134379Y-113819399D01*
X161131500Y-113792616D01*
X161131500Y-111402199D01*
X161151502Y-111334078D01*
X161205158Y-111287585D01*
X161275432Y-111277481D01*
X161317623Y-111291469D01*
X161331295Y-111298892D01*
X161357293Y-111313008D01*
X161510522Y-111353207D01*
X161594477Y-111354526D01*
X161661319Y-111355576D01*
X161661322Y-111355576D01*
X161668916Y-111355695D01*
X161823332Y-111320329D01*
X161893742Y-111284917D01*
X161958072Y-111252563D01*
X161958075Y-111252561D01*
X161964855Y-111249151D01*
X161970626Y-111244222D01*
X161970629Y-111244220D01*
X162079536Y-111151204D01*
X162079536Y-111151203D01*
X162085314Y-111146269D01*
X162177755Y-111017624D01*
X162236842Y-110870641D01*
X162259162Y-110713807D01*
X162259307Y-110700000D01*
X162253437Y-110651495D01*
X162265111Y-110581467D01*
X162289430Y-110547266D01*
X162420291Y-110416405D01*
X162482603Y-110382379D01*
X162509386Y-110379500D01*
X164264429Y-110379500D01*
X164332550Y-110399502D01*
X164380839Y-110457284D01*
X164382844Y-110462126D01*
X164385266Y-110474301D01*
X164441516Y-110558484D01*
X164525699Y-110614734D01*
X164599933Y-110629500D01*
X165374874Y-110629500D01*
X166150066Y-110629499D01*
X166185818Y-110622388D01*
X166212126Y-110617156D01*
X166212128Y-110617155D01*
X166224301Y-110614734D01*
X166234621Y-110607839D01*
X166234622Y-110607838D01*
X166298168Y-110565377D01*
X166308484Y-110558484D01*
X166364734Y-110474301D01*
X166379500Y-110400067D01*
X166379499Y-110005499D01*
X166399501Y-109937380D01*
X166453156Y-109890887D01*
X166505499Y-109879500D01*
X166673321Y-109879500D01*
X167374001Y-109879499D01*
X167442121Y-109899501D01*
G37*
%TD.AperFunction*%
%TA.AperFunction,Conductor*%
G36*
X171192121Y-50020002D02*
G01*
X171238614Y-50073658D01*
X171250000Y-50126000D01*
X171250000Y-96124000D01*
X171229998Y-96192121D01*
X171176342Y-96238614D01*
X171124000Y-96250000D01*
X167500000Y-96250000D01*
X167500000Y-105494500D01*
X167479998Y-105562621D01*
X167426342Y-105609114D01*
X167374000Y-105620500D01*
X166367959Y-105620501D01*
X166349934Y-105620501D01*
X166314182Y-105627612D01*
X166287874Y-105632844D01*
X166287872Y-105632845D01*
X166275699Y-105635266D01*
X166265379Y-105642161D01*
X166265378Y-105642162D01*
X166217313Y-105674279D01*
X166191516Y-105691516D01*
X166135266Y-105775699D01*
X166132845Y-105787873D01*
X166130837Y-105792719D01*
X166086288Y-105847999D01*
X166014428Y-105870500D01*
X164236812Y-105870500D01*
X164168691Y-105850498D01*
X164147717Y-105833595D01*
X164103918Y-105789796D01*
X164093987Y-105777502D01*
X164093868Y-105777602D01*
X164092012Y-105775394D01*
X164092009Y-105775390D01*
X164090258Y-105773308D01*
X163387707Y-105070757D01*
X162679959Y-104363008D01*
X162645933Y-104300696D01*
X162644311Y-104256162D01*
X162648626Y-104225843D01*
X162648771Y-104212036D01*
X162629740Y-104054769D01*
X162573744Y-103906582D01*
X162484017Y-103776028D01*
X162365739Y-103670647D01*
X162358353Y-103666736D01*
X162232452Y-103600075D01*
X162232453Y-103600075D01*
X162225738Y-103596520D01*
X162072097Y-103557928D01*
X162064498Y-103557888D01*
X162064497Y-103557888D01*
X161998645Y-103557543D01*
X161913685Y-103557098D01*
X161906305Y-103558870D01*
X161906303Y-103558870D01*
X161767027Y-103592307D01*
X161767024Y-103592308D01*
X161759648Y-103594079D01*
X161618878Y-103666736D01*
X161499503Y-103770874D01*
X161408414Y-103900480D01*
X161405654Y-103907560D01*
X161374893Y-103986457D01*
X161331512Y-104042658D01*
X161264633Y-104066485D01*
X161195489Y-104050372D01*
X161146033Y-103999434D01*
X161131500Y-103940687D01*
X161131500Y-91979093D01*
X163813171Y-91979093D01*
X163839172Y-92251622D01*
X163904243Y-92517544D01*
X164007019Y-92771287D01*
X164009323Y-92775222D01*
X164009326Y-92775228D01*
X164105460Y-92939411D01*
X164145349Y-93007535D01*
X164316333Y-93221341D01*
X164516390Y-93408224D01*
X164741330Y-93564270D01*
X164986440Y-93686210D01*
X164990774Y-93687631D01*
X164990777Y-93687632D01*
X165069699Y-93713504D01*
X165246586Y-93771490D01*
X165251077Y-93772270D01*
X165251078Y-93772270D01*
X165512537Y-93817668D01*
X165512542Y-93817669D01*
X165516317Y-93818324D01*
X165520154Y-93818515D01*
X165601245Y-93822552D01*
X165601253Y-93822552D01*
X165602816Y-93822630D01*
X165773724Y-93822630D01*
X165775992Y-93822465D01*
X165776004Y-93822465D01*
X165907779Y-93812903D01*
X165977229Y-93807864D01*
X165981684Y-93806880D01*
X165981687Y-93806880D01*
X166240102Y-93749827D01*
X166240105Y-93749826D01*
X166244558Y-93748843D01*
X166251930Y-93746050D01*
X166496299Y-93653468D01*
X166496306Y-93653465D01*
X166500568Y-93651850D01*
X166662923Y-93561670D01*
X166735901Y-93521134D01*
X166735902Y-93521133D01*
X166739894Y-93518916D01*
X166881525Y-93410827D01*
X166953891Y-93355599D01*
X166953892Y-93355598D01*
X166957523Y-93352827D01*
X167148897Y-93157061D01*
X167151586Y-93153367D01*
X167307320Y-92939411D01*
X167307322Y-92939408D01*
X167310007Y-92935719D01*
X167437476Y-92693439D01*
X167528636Y-92435295D01*
X167581577Y-92166695D01*
X167590690Y-91983649D01*
X167594962Y-91897836D01*
X167594962Y-91897830D01*
X167595189Y-91893267D01*
X167569188Y-91620738D01*
X167504117Y-91354816D01*
X167401341Y-91101073D01*
X167399037Y-91097138D01*
X167399034Y-91097132D01*
X167265317Y-90868763D01*
X167265316Y-90868761D01*
X167263011Y-90864825D01*
X167092027Y-90651019D01*
X166891970Y-90464136D01*
X166667030Y-90308090D01*
X166421920Y-90186150D01*
X166417586Y-90184729D01*
X166417583Y-90184728D01*
X166338661Y-90158856D01*
X166161774Y-90100870D01*
X166157282Y-90100090D01*
X165895823Y-90054692D01*
X165895818Y-90054691D01*
X165892043Y-90054036D01*
X165884665Y-90053669D01*
X165807115Y-90049808D01*
X165807107Y-90049808D01*
X165805544Y-90049730D01*
X165634636Y-90049730D01*
X165632368Y-90049895D01*
X165632356Y-90049895D01*
X165500581Y-90059457D01*
X165431131Y-90064496D01*
X165426676Y-90065480D01*
X165426673Y-90065480D01*
X165168258Y-90122533D01*
X165168255Y-90122534D01*
X165163802Y-90123517D01*
X165159534Y-90125134D01*
X164912061Y-90218892D01*
X164912054Y-90218895D01*
X164907792Y-90220510D01*
X164903806Y-90222724D01*
X164903804Y-90222725D01*
X164672459Y-90351226D01*
X164668466Y-90353444D01*
X164664834Y-90356216D01*
X164523425Y-90464136D01*
X164450837Y-90519533D01*
X164259463Y-90715299D01*
X164256776Y-90718991D01*
X164256774Y-90718993D01*
X164153220Y-90861262D01*
X164098353Y-90936641D01*
X163970884Y-91178921D01*
X163879724Y-91437065D01*
X163826783Y-91705665D01*
X163826556Y-91710218D01*
X163826556Y-91710221D01*
X163817444Y-91893267D01*
X163813171Y-91979093D01*
X161131500Y-91979093D01*
X161131500Y-82686813D01*
X163804851Y-82686813D01*
X163830852Y-82959342D01*
X163831936Y-82963772D01*
X163831937Y-82963778D01*
X163864704Y-83097685D01*
X163895923Y-83225264D01*
X163897638Y-83229499D01*
X163897639Y-83229501D01*
X163950419Y-83359808D01*
X163998699Y-83479007D01*
X164001003Y-83482942D01*
X164001006Y-83482948D01*
X164097140Y-83647131D01*
X164137029Y-83715255D01*
X164308013Y-83929061D01*
X164508070Y-84115944D01*
X164733010Y-84271990D01*
X164978120Y-84393930D01*
X164982454Y-84395351D01*
X164982457Y-84395352D01*
X165061379Y-84421224D01*
X165238266Y-84479210D01*
X165242757Y-84479990D01*
X165242758Y-84479990D01*
X165504217Y-84525388D01*
X165504222Y-84525389D01*
X165507997Y-84526044D01*
X165511834Y-84526235D01*
X165592925Y-84530272D01*
X165592933Y-84530272D01*
X165594496Y-84530350D01*
X165765404Y-84530350D01*
X165767672Y-84530185D01*
X165767684Y-84530185D01*
X165899459Y-84520623D01*
X165968909Y-84515584D01*
X165973364Y-84514600D01*
X165973367Y-84514600D01*
X166231782Y-84457547D01*
X166231785Y-84457546D01*
X166236238Y-84456563D01*
X166243610Y-84453770D01*
X166487979Y-84361188D01*
X166487986Y-84361185D01*
X166492248Y-84359570D01*
X166501108Y-84354649D01*
X166727581Y-84228854D01*
X166727582Y-84228853D01*
X166731574Y-84226636D01*
X166873205Y-84118547D01*
X166945571Y-84063319D01*
X166945572Y-84063318D01*
X166949203Y-84060547D01*
X167140577Y-83864781D01*
X167232897Y-83737947D01*
X167299000Y-83647131D01*
X167299002Y-83647128D01*
X167301687Y-83643439D01*
X167429156Y-83401159D01*
X167520316Y-83143015D01*
X167573257Y-82874415D01*
X167574939Y-82840638D01*
X167586642Y-82605556D01*
X167586642Y-82605550D01*
X167586869Y-82600987D01*
X167560868Y-82328458D01*
X167552633Y-82294801D01*
X167496883Y-82066975D01*
X167495797Y-82062536D01*
X167494081Y-82058299D01*
X167394736Y-81813026D01*
X167394733Y-81813021D01*
X167393021Y-81808793D01*
X167390717Y-81804858D01*
X167390714Y-81804852D01*
X167256997Y-81576483D01*
X167256996Y-81576481D01*
X167254691Y-81572545D01*
X167083707Y-81358739D01*
X166883650Y-81171856D01*
X166658710Y-81015810D01*
X166413600Y-80893870D01*
X166409266Y-80892449D01*
X166409263Y-80892448D01*
X166330341Y-80866576D01*
X166153454Y-80808590D01*
X166148962Y-80807810D01*
X165887503Y-80762412D01*
X165887498Y-80762411D01*
X165883723Y-80761756D01*
X165876345Y-80761389D01*
X165798795Y-80757528D01*
X165798787Y-80757528D01*
X165797224Y-80757450D01*
X165626316Y-80757450D01*
X165624048Y-80757615D01*
X165624036Y-80757615D01*
X165492261Y-80767177D01*
X165422811Y-80772216D01*
X165418356Y-80773200D01*
X165418353Y-80773200D01*
X165159938Y-80830253D01*
X165159935Y-80830254D01*
X165155482Y-80831237D01*
X165151214Y-80832854D01*
X164903741Y-80926612D01*
X164903734Y-80926615D01*
X164899472Y-80928230D01*
X164895486Y-80930444D01*
X164895484Y-80930445D01*
X164676945Y-81051833D01*
X164660146Y-81061164D01*
X164603869Y-81104113D01*
X164515105Y-81171856D01*
X164442517Y-81227253D01*
X164251143Y-81423019D01*
X164248456Y-81426711D01*
X164248454Y-81426713D01*
X164144900Y-81568982D01*
X164090033Y-81644361D01*
X163962564Y-81886641D01*
X163871404Y-82144785D01*
X163818463Y-82413385D01*
X163818236Y-82417938D01*
X163818236Y-82417941D01*
X163809124Y-82600987D01*
X163804851Y-82686813D01*
X161131500Y-82686813D01*
X161131500Y-73311433D01*
X163804851Y-73311433D01*
X163830852Y-73583962D01*
X163895923Y-73849884D01*
X163897638Y-73854119D01*
X163897639Y-73854121D01*
X163988047Y-74077328D01*
X163998699Y-74103627D01*
X164001003Y-74107562D01*
X164001006Y-74107568D01*
X164121409Y-74313198D01*
X164137029Y-74339875D01*
X164229470Y-74455467D01*
X164283830Y-74523441D01*
X164308013Y-74553681D01*
X164508070Y-74740564D01*
X164733010Y-74896610D01*
X164978120Y-75018550D01*
X164982454Y-75019971D01*
X164982457Y-75019972D01*
X165061379Y-75045844D01*
X165238266Y-75103830D01*
X165242757Y-75104610D01*
X165242758Y-75104610D01*
X165504217Y-75150008D01*
X165504222Y-75150009D01*
X165507997Y-75150664D01*
X165511834Y-75150855D01*
X165592925Y-75154892D01*
X165592933Y-75154892D01*
X165594496Y-75154970D01*
X165765404Y-75154970D01*
X165767672Y-75154805D01*
X165767684Y-75154805D01*
X165899459Y-75145243D01*
X165968909Y-75140204D01*
X165973364Y-75139220D01*
X165973367Y-75139220D01*
X166231782Y-75082167D01*
X166231785Y-75082166D01*
X166236238Y-75081183D01*
X166254221Y-75074370D01*
X166487979Y-74985808D01*
X166487986Y-74985805D01*
X166492248Y-74984190D01*
X166654603Y-74894010D01*
X166727581Y-74853474D01*
X166727582Y-74853473D01*
X166731574Y-74851256D01*
X166873205Y-74743167D01*
X166945571Y-74687939D01*
X166945572Y-74687938D01*
X166949203Y-74685167D01*
X167140577Y-74489401D01*
X167165277Y-74455467D01*
X167299000Y-74271751D01*
X167299002Y-74271748D01*
X167301687Y-74268059D01*
X167429156Y-74025779D01*
X167520316Y-73767635D01*
X167561604Y-73558158D01*
X167572376Y-73503507D01*
X167572377Y-73503501D01*
X167573257Y-73499035D01*
X167574540Y-73473267D01*
X167586642Y-73230176D01*
X167586642Y-73230170D01*
X167586869Y-73225607D01*
X167560868Y-72953078D01*
X167554582Y-72927387D01*
X167509616Y-72743631D01*
X167495797Y-72687156D01*
X167483549Y-72656916D01*
X167394736Y-72437646D01*
X167394733Y-72437641D01*
X167393021Y-72433413D01*
X167390717Y-72429478D01*
X167390714Y-72429472D01*
X167256997Y-72201103D01*
X167256996Y-72201101D01*
X167254691Y-72197165D01*
X167129327Y-72040404D01*
X167086559Y-71986925D01*
X167086557Y-71986923D01*
X167083707Y-71983359D01*
X166883650Y-71796476D01*
X166658710Y-71640430D01*
X166413600Y-71518490D01*
X166409266Y-71517069D01*
X166409263Y-71517068D01*
X166317015Y-71486828D01*
X166153454Y-71433210D01*
X166148962Y-71432430D01*
X165887503Y-71387032D01*
X165887498Y-71387031D01*
X165883723Y-71386376D01*
X165876345Y-71386009D01*
X165798795Y-71382148D01*
X165798787Y-71382148D01*
X165797224Y-71382070D01*
X165626316Y-71382070D01*
X165624048Y-71382235D01*
X165624036Y-71382235D01*
X165492261Y-71391797D01*
X165422811Y-71396836D01*
X165418356Y-71397820D01*
X165418353Y-71397820D01*
X165159938Y-71454873D01*
X165159935Y-71454874D01*
X165155482Y-71455857D01*
X165151214Y-71457474D01*
X164903741Y-71551232D01*
X164903734Y-71551235D01*
X164899472Y-71552850D01*
X164895486Y-71555064D01*
X164895484Y-71555065D01*
X164664139Y-71683566D01*
X164660146Y-71685784D01*
X164656514Y-71688556D01*
X164515105Y-71796476D01*
X164442517Y-71851873D01*
X164251143Y-72047639D01*
X164248456Y-72051331D01*
X164248454Y-72051333D01*
X164144900Y-72193602D01*
X164090033Y-72268981D01*
X163962564Y-72511261D01*
X163871404Y-72769405D01*
X163870524Y-72773871D01*
X163825305Y-73003293D01*
X163818463Y-73038005D01*
X163818236Y-73042558D01*
X163818236Y-73042561D01*
X163806130Y-73285749D01*
X163804851Y-73311433D01*
X161131500Y-73311433D01*
X161131500Y-63899093D01*
X165413171Y-63899093D01*
X165439172Y-64171622D01*
X165504243Y-64437544D01*
X165607019Y-64691287D01*
X165609323Y-64695222D01*
X165609326Y-64695228D01*
X165705460Y-64859411D01*
X165745349Y-64927535D01*
X165916333Y-65141341D01*
X166116390Y-65328224D01*
X166341330Y-65484270D01*
X166586440Y-65606210D01*
X166590774Y-65607631D01*
X166590777Y-65607632D01*
X166669699Y-65633504D01*
X166846586Y-65691490D01*
X166851077Y-65692270D01*
X166851078Y-65692270D01*
X167112537Y-65737668D01*
X167112542Y-65737669D01*
X167116317Y-65738324D01*
X167120154Y-65738515D01*
X167201245Y-65742552D01*
X167201253Y-65742552D01*
X167202816Y-65742630D01*
X167373724Y-65742630D01*
X167375992Y-65742465D01*
X167376004Y-65742465D01*
X167507779Y-65732903D01*
X167577229Y-65727864D01*
X167581684Y-65726880D01*
X167581687Y-65726880D01*
X167840102Y-65669827D01*
X167840105Y-65669826D01*
X167844558Y-65668843D01*
X167851930Y-65666050D01*
X168096299Y-65573468D01*
X168096306Y-65573465D01*
X168100568Y-65571850D01*
X168262923Y-65481670D01*
X168335901Y-65441134D01*
X168335902Y-65441133D01*
X168339894Y-65438916D01*
X168481525Y-65330827D01*
X168553891Y-65275599D01*
X168553892Y-65275598D01*
X168557523Y-65272827D01*
X168748897Y-65077061D01*
X168751586Y-65073367D01*
X168907320Y-64859411D01*
X168907322Y-64859408D01*
X168910007Y-64855719D01*
X169037476Y-64613439D01*
X169128636Y-64355295D01*
X169181577Y-64086695D01*
X169190690Y-63903649D01*
X169194962Y-63817836D01*
X169194962Y-63817830D01*
X169195189Y-63813267D01*
X169169188Y-63540738D01*
X169104117Y-63274816D01*
X169001341Y-63021073D01*
X168999037Y-63017138D01*
X168999034Y-63017132D01*
X168865317Y-62788763D01*
X168865316Y-62788761D01*
X168863011Y-62784825D01*
X168692027Y-62571019D01*
X168491970Y-62384136D01*
X168267030Y-62228090D01*
X168021920Y-62106150D01*
X168017586Y-62104729D01*
X168017583Y-62104728D01*
X167938661Y-62078856D01*
X167761774Y-62020870D01*
X167757282Y-62020090D01*
X167495823Y-61974692D01*
X167495818Y-61974691D01*
X167492043Y-61974036D01*
X167484665Y-61973669D01*
X167407115Y-61969808D01*
X167407107Y-61969808D01*
X167405544Y-61969730D01*
X167234636Y-61969730D01*
X167232368Y-61969895D01*
X167232356Y-61969895D01*
X167100581Y-61979457D01*
X167031131Y-61984496D01*
X167026676Y-61985480D01*
X167026673Y-61985480D01*
X166768258Y-62042533D01*
X166768255Y-62042534D01*
X166763802Y-62043517D01*
X166759534Y-62045134D01*
X166512061Y-62138892D01*
X166512054Y-62138895D01*
X166507792Y-62140510D01*
X166503806Y-62142724D01*
X166503804Y-62142725D01*
X166272459Y-62271226D01*
X166268466Y-62273444D01*
X166264834Y-62276216D01*
X166123425Y-62384136D01*
X166050837Y-62439533D01*
X166047644Y-62442799D01*
X166047642Y-62442801D01*
X165951761Y-62540883D01*
X165859463Y-62635299D01*
X165856776Y-62638991D01*
X165856774Y-62638993D01*
X165753220Y-62781262D01*
X165698353Y-62856641D01*
X165570884Y-63098921D01*
X165479724Y-63357065D01*
X165478844Y-63361531D01*
X165453389Y-63490680D01*
X165426783Y-63625665D01*
X165426556Y-63630218D01*
X165426556Y-63630221D01*
X165417444Y-63813267D01*
X165413171Y-63899093D01*
X161131500Y-63899093D01*
X161131500Y-58912088D01*
X161134087Y-58887772D01*
X161134154Y-58886349D01*
X161136346Y-58876168D01*
X161132373Y-58842600D01*
X161132021Y-58836626D01*
X161131928Y-58836634D01*
X161131500Y-58831456D01*
X161131500Y-58826256D01*
X161129355Y-58813368D01*
X161128314Y-58807113D01*
X161127477Y-58801234D01*
X161122642Y-58760381D01*
X161122642Y-58760380D01*
X161121418Y-58750041D01*
X161117433Y-58741742D01*
X161115922Y-58732665D01*
X161091442Y-58687297D01*
X161088761Y-58682034D01*
X161069869Y-58642691D01*
X161066440Y-58635550D01*
X161062831Y-58631256D01*
X161060905Y-58629330D01*
X161059109Y-58627372D01*
X161059079Y-58627315D01*
X161059208Y-58627197D01*
X161058710Y-58626632D01*
X161055612Y-58620891D01*
X161015804Y-58584093D01*
X161012239Y-58580664D01*
X158634225Y-56202650D01*
X158600199Y-56140338D01*
X158597320Y-56113555D01*
X158597320Y-55529340D01*
X158617322Y-55461219D01*
X158666510Y-55416874D01*
X158675825Y-55412169D01*
X158741742Y-55378872D01*
X158815982Y-55341371D01*
X158815984Y-55341370D01*
X158821483Y-55338592D01*
X158978570Y-55215862D01*
X158989317Y-55203412D01*
X159104798Y-55069626D01*
X159104799Y-55069624D01*
X159108827Y-55064958D01*
X159207292Y-54891628D01*
X159270215Y-54702474D01*
X159276285Y-54654427D01*
X159294758Y-54508203D01*
X159294759Y-54508193D01*
X159295200Y-54504700D01*
X159295598Y-54476180D01*
X159294200Y-54461919D01*
X159792862Y-54461919D01*
X159809542Y-54660566D01*
X159864490Y-54852189D01*
X159955610Y-55029491D01*
X160079433Y-55185717D01*
X160231243Y-55314917D01*
X160236621Y-55317923D01*
X160236623Y-55317924D01*
X160322250Y-55365779D01*
X160405256Y-55412169D01*
X160411115Y-55414073D01*
X160411118Y-55414074D01*
X160467267Y-55432318D01*
X160594845Y-55473771D01*
X160600955Y-55474500D01*
X160600957Y-55474500D01*
X160668494Y-55482553D01*
X160792789Y-55497374D01*
X160798924Y-55496902D01*
X160798926Y-55496902D01*
X160985406Y-55482553D01*
X160985411Y-55482552D01*
X160991547Y-55482080D01*
X160997477Y-55480424D01*
X160997479Y-55480424D01*
X161127211Y-55444202D01*
X161183550Y-55428472D01*
X161194076Y-55423155D01*
X161355982Y-55341371D01*
X161355984Y-55341370D01*
X161361483Y-55338592D01*
X161518570Y-55215862D01*
X161529317Y-55203412D01*
X161644798Y-55069626D01*
X161644799Y-55069624D01*
X161648827Y-55064958D01*
X161747292Y-54891628D01*
X161810215Y-54702474D01*
X161816285Y-54654427D01*
X161834758Y-54508203D01*
X161834759Y-54508193D01*
X161835200Y-54504700D01*
X161835598Y-54476180D01*
X161834200Y-54461919D01*
X162332862Y-54461919D01*
X162349542Y-54660566D01*
X162404490Y-54852189D01*
X162495610Y-55029491D01*
X162619433Y-55185717D01*
X162771243Y-55314917D01*
X162776621Y-55317923D01*
X162776623Y-55317924D01*
X162862250Y-55365779D01*
X162945256Y-55412169D01*
X162951115Y-55414073D01*
X162951118Y-55414074D01*
X163007267Y-55432318D01*
X163134845Y-55473771D01*
X163140955Y-55474500D01*
X163140957Y-55474500D01*
X163208494Y-55482553D01*
X163332789Y-55497374D01*
X163338924Y-55496902D01*
X163338926Y-55496902D01*
X163525406Y-55482553D01*
X163525411Y-55482552D01*
X163531547Y-55482080D01*
X163537477Y-55480424D01*
X163537479Y-55480424D01*
X163667211Y-55444202D01*
X163723550Y-55428472D01*
X163734076Y-55423155D01*
X163895982Y-55341371D01*
X163895984Y-55341370D01*
X163901483Y-55338592D01*
X164058570Y-55215862D01*
X164069317Y-55203412D01*
X164184798Y-55069626D01*
X164184799Y-55069624D01*
X164188827Y-55064958D01*
X164287292Y-54891628D01*
X164350215Y-54702474D01*
X164356285Y-54654427D01*
X164374758Y-54508203D01*
X164374759Y-54508193D01*
X164375200Y-54504700D01*
X164375598Y-54476180D01*
X164374200Y-54461919D01*
X164872862Y-54461919D01*
X164889542Y-54660566D01*
X164944490Y-54852189D01*
X165035610Y-55029491D01*
X165159433Y-55185717D01*
X165311243Y-55314917D01*
X165316621Y-55317923D01*
X165316623Y-55317924D01*
X165402250Y-55365779D01*
X165485256Y-55412169D01*
X165491115Y-55414073D01*
X165491118Y-55414074D01*
X165547267Y-55432318D01*
X165674845Y-55473771D01*
X165680955Y-55474500D01*
X165680957Y-55474500D01*
X165748494Y-55482553D01*
X165872789Y-55497374D01*
X165878924Y-55496902D01*
X165878926Y-55496902D01*
X166065406Y-55482553D01*
X166065411Y-55482552D01*
X166071547Y-55482080D01*
X166077477Y-55480424D01*
X166077479Y-55480424D01*
X166207211Y-55444202D01*
X166263550Y-55428472D01*
X166274076Y-55423155D01*
X166435982Y-55341371D01*
X166435984Y-55341370D01*
X166441483Y-55338592D01*
X166598570Y-55215862D01*
X166609317Y-55203412D01*
X166724798Y-55069626D01*
X166724799Y-55069624D01*
X166728827Y-55064958D01*
X166827292Y-54891628D01*
X166890215Y-54702474D01*
X166896285Y-54654427D01*
X166914758Y-54508203D01*
X166914759Y-54508193D01*
X166915200Y-54504700D01*
X166915598Y-54476180D01*
X166896145Y-54277786D01*
X166894364Y-54271887D01*
X166894363Y-54271882D01*
X166840309Y-54092847D01*
X166838528Y-54086948D01*
X166744941Y-53910936D01*
X166741051Y-53906166D01*
X166741048Y-53906162D01*
X166622843Y-53761229D01*
X166622840Y-53761226D01*
X166618948Y-53756454D01*
X166609768Y-53748859D01*
X166470099Y-53633315D01*
X166470098Y-53633314D01*
X166465350Y-53629386D01*
X166289995Y-53534572D01*
X166099565Y-53475624D01*
X166093440Y-53474980D01*
X166093439Y-53474980D01*
X165907440Y-53455431D01*
X165907438Y-53455431D01*
X165901311Y-53454787D01*
X165778432Y-53465970D01*
X165708926Y-53472295D01*
X165708925Y-53472295D01*
X165702785Y-53472854D01*
X165696871Y-53474595D01*
X165696869Y-53474595D01*
X165618329Y-53497711D01*
X165511550Y-53529138D01*
X165334889Y-53621494D01*
X165330089Y-53625354D01*
X165330088Y-53625354D01*
X165325073Y-53629386D01*
X165179531Y-53746405D01*
X165051394Y-53899113D01*
X164955359Y-54073801D01*
X164895082Y-54263815D01*
X164872862Y-54461919D01*
X164374200Y-54461919D01*
X164356145Y-54277786D01*
X164354364Y-54271887D01*
X164354363Y-54271882D01*
X164300309Y-54092847D01*
X164298528Y-54086948D01*
X164204941Y-53910936D01*
X164201051Y-53906166D01*
X164201048Y-53906162D01*
X164082843Y-53761229D01*
X164082840Y-53761226D01*
X164078948Y-53756454D01*
X164069768Y-53748859D01*
X163930099Y-53633315D01*
X163930098Y-53633314D01*
X163925350Y-53629386D01*
X163749995Y-53534572D01*
X163559565Y-53475624D01*
X163553440Y-53474980D01*
X163553439Y-53474980D01*
X163367440Y-53455431D01*
X163367438Y-53455431D01*
X163361311Y-53454787D01*
X163238432Y-53465970D01*
X163168926Y-53472295D01*
X163168925Y-53472295D01*
X163162785Y-53472854D01*
X163156871Y-53474595D01*
X163156869Y-53474595D01*
X163078329Y-53497711D01*
X162971550Y-53529138D01*
X162794889Y-53621494D01*
X162790089Y-53625354D01*
X162790088Y-53625354D01*
X162785073Y-53629386D01*
X162639531Y-53746405D01*
X162511394Y-53899113D01*
X162415359Y-54073801D01*
X162355082Y-54263815D01*
X162332862Y-54461919D01*
X161834200Y-54461919D01*
X161816145Y-54277786D01*
X161814364Y-54271887D01*
X161814363Y-54271882D01*
X161760309Y-54092847D01*
X161758528Y-54086948D01*
X161664941Y-53910936D01*
X161661051Y-53906166D01*
X161661048Y-53906162D01*
X161542843Y-53761229D01*
X161542840Y-53761226D01*
X161538948Y-53756454D01*
X161529768Y-53748859D01*
X161390099Y-53633315D01*
X161390098Y-53633314D01*
X161385350Y-53629386D01*
X161209995Y-53534572D01*
X161019565Y-53475624D01*
X161013440Y-53474980D01*
X161013439Y-53474980D01*
X160827440Y-53455431D01*
X160827438Y-53455431D01*
X160821311Y-53454787D01*
X160698432Y-53465970D01*
X160628926Y-53472295D01*
X160628925Y-53472295D01*
X160622785Y-53472854D01*
X160616871Y-53474595D01*
X160616869Y-53474595D01*
X160538329Y-53497711D01*
X160431550Y-53529138D01*
X160254889Y-53621494D01*
X160250089Y-53625354D01*
X160250088Y-53625354D01*
X160245073Y-53629386D01*
X160099531Y-53746405D01*
X159971394Y-53899113D01*
X159875359Y-54073801D01*
X159815082Y-54263815D01*
X159792862Y-54461919D01*
X159294200Y-54461919D01*
X159276145Y-54277786D01*
X159274364Y-54271887D01*
X159274363Y-54271882D01*
X159220309Y-54092847D01*
X159218528Y-54086948D01*
X159124941Y-53910936D01*
X159121051Y-53906166D01*
X159121048Y-53906162D01*
X159002843Y-53761229D01*
X159002840Y-53761226D01*
X158998948Y-53756454D01*
X158989768Y-53748859D01*
X158850099Y-53633315D01*
X158850098Y-53633314D01*
X158845350Y-53629386D01*
X158669995Y-53534572D01*
X158479565Y-53475624D01*
X158473440Y-53474980D01*
X158473439Y-53474980D01*
X158287440Y-53455431D01*
X158287438Y-53455431D01*
X158281311Y-53454787D01*
X158158432Y-53465970D01*
X158088926Y-53472295D01*
X158088925Y-53472295D01*
X158082785Y-53472854D01*
X158076871Y-53474595D01*
X158076869Y-53474595D01*
X157998329Y-53497711D01*
X157891550Y-53529138D01*
X157714889Y-53621494D01*
X157710089Y-53625354D01*
X157710088Y-53625354D01*
X157705073Y-53629386D01*
X157559531Y-53746405D01*
X157554396Y-53752525D01*
X157549842Y-53757952D01*
X157490732Y-53797279D01*
X157419745Y-53798405D01*
X157359417Y-53760974D01*
X157328903Y-53696870D01*
X157327320Y-53676961D01*
X157327320Y-53296282D01*
X168559321Y-53296282D01*
X168594912Y-53503408D01*
X168667652Y-53700579D01*
X168670604Y-53705540D01*
X168670604Y-53705541D01*
X168701786Y-53757952D01*
X168775106Y-53881192D01*
X168913674Y-54039199D01*
X169078717Y-54169308D01*
X169083833Y-54171999D01*
X169083835Y-54172001D01*
X169247190Y-54257946D01*
X169264707Y-54267162D01*
X169465414Y-54329484D01*
X169471149Y-54330163D01*
X169471150Y-54330163D01*
X169501712Y-54333780D01*
X169636054Y-54349680D01*
X169757496Y-54349680D01*
X169913459Y-54335349D01*
X169919021Y-54333780D01*
X169919023Y-54333780D01*
X170014594Y-54306826D01*
X170115729Y-54278303D01*
X170304217Y-54185351D01*
X170472609Y-54059607D01*
X170544101Y-53982267D01*
X170611347Y-53909521D01*
X170611349Y-53909518D01*
X170615266Y-53905281D01*
X170727411Y-53727542D01*
X170805288Y-53532343D01*
X170806413Y-53526686D01*
X170806415Y-53526680D01*
X170845161Y-53331887D01*
X170845161Y-53331885D01*
X170846288Y-53326220D01*
X170846606Y-53301980D01*
X170848963Y-53121860D01*
X170849039Y-53116078D01*
X170821769Y-52957374D01*
X170814427Y-52914649D01*
X170814427Y-52914648D01*
X170813448Y-52908952D01*
X170740708Y-52711781D01*
X170633254Y-52531168D01*
X170494686Y-52373161D01*
X170329643Y-52243052D01*
X170324527Y-52240361D01*
X170324525Y-52240359D01*
X170148770Y-52147890D01*
X170148768Y-52147889D01*
X170143653Y-52145198D01*
X169942946Y-52082876D01*
X169937211Y-52082197D01*
X169937210Y-52082197D01*
X169888922Y-52076482D01*
X169772306Y-52062680D01*
X169650864Y-52062680D01*
X169494901Y-52077011D01*
X169489339Y-52078580D01*
X169489337Y-52078580D01*
X169393766Y-52105534D01*
X169292631Y-52134057D01*
X169104143Y-52227009D01*
X168935751Y-52352753D01*
X168793094Y-52507079D01*
X168680949Y-52684818D01*
X168603072Y-52880017D01*
X168601947Y-52885674D01*
X168601945Y-52885680D01*
X168563199Y-53080473D01*
X168562072Y-53086140D01*
X168561996Y-53091915D01*
X168561996Y-53091919D01*
X168561680Y-53116078D01*
X168559321Y-53296282D01*
X157327320Y-53296282D01*
X157327320Y-52989340D01*
X157347322Y-52921219D01*
X157396510Y-52876874D01*
X157405825Y-52872169D01*
X157545978Y-52801373D01*
X157545984Y-52801370D01*
X157551483Y-52798592D01*
X157708570Y-52675862D01*
X157731142Y-52649712D01*
X157834798Y-52529626D01*
X157834799Y-52529624D01*
X157838827Y-52524958D01*
X157937292Y-52351628D01*
X158000215Y-52162474D01*
X158010271Y-52082876D01*
X158024758Y-51968203D01*
X158024759Y-51968193D01*
X158025200Y-51964700D01*
X158025598Y-51936180D01*
X158024200Y-51921919D01*
X158522862Y-51921919D01*
X158539542Y-52120566D01*
X158594490Y-52312189D01*
X158685610Y-52489491D01*
X158809433Y-52645717D01*
X158961243Y-52774917D01*
X158966621Y-52777923D01*
X158966623Y-52777924D01*
X159039790Y-52818815D01*
X159135256Y-52872169D01*
X159141115Y-52874073D01*
X159141118Y-52874074D01*
X159201883Y-52893818D01*
X159324845Y-52933771D01*
X159330955Y-52934500D01*
X159330957Y-52934500D01*
X159398494Y-52942553D01*
X159522789Y-52957374D01*
X159528924Y-52956902D01*
X159528926Y-52956902D01*
X159715406Y-52942553D01*
X159715411Y-52942552D01*
X159721547Y-52942080D01*
X159727477Y-52940424D01*
X159727479Y-52940424D01*
X159819794Y-52914649D01*
X159913550Y-52888472D01*
X159919050Y-52885694D01*
X160085982Y-52801371D01*
X160085984Y-52801370D01*
X160091483Y-52798592D01*
X160248570Y-52675862D01*
X160271142Y-52649712D01*
X160374798Y-52529626D01*
X160374799Y-52529624D01*
X160378827Y-52524958D01*
X160477292Y-52351628D01*
X160540215Y-52162474D01*
X160550271Y-52082876D01*
X160564758Y-51968203D01*
X160564759Y-51968193D01*
X160565200Y-51964700D01*
X160565598Y-51936180D01*
X160564200Y-51921919D01*
X161062862Y-51921919D01*
X161079542Y-52120566D01*
X161134490Y-52312189D01*
X161225610Y-52489491D01*
X161349433Y-52645717D01*
X161501243Y-52774917D01*
X161506621Y-52777923D01*
X161506623Y-52777924D01*
X161579790Y-52818815D01*
X161675256Y-52872169D01*
X161681115Y-52874073D01*
X161681118Y-52874074D01*
X161741883Y-52893818D01*
X161864845Y-52933771D01*
X161870955Y-52934500D01*
X161870957Y-52934500D01*
X161938494Y-52942553D01*
X162062789Y-52957374D01*
X162068924Y-52956902D01*
X162068926Y-52956902D01*
X162255406Y-52942553D01*
X162255411Y-52942552D01*
X162261547Y-52942080D01*
X162267477Y-52940424D01*
X162267479Y-52940424D01*
X162359794Y-52914649D01*
X162453550Y-52888472D01*
X162459050Y-52885694D01*
X162625982Y-52801371D01*
X162625984Y-52801370D01*
X162631483Y-52798592D01*
X162788570Y-52675862D01*
X162811142Y-52649712D01*
X162914798Y-52529626D01*
X162914799Y-52529624D01*
X162918827Y-52524958D01*
X163017292Y-52351628D01*
X163080215Y-52162474D01*
X163090271Y-52082876D01*
X163104758Y-51968203D01*
X163104759Y-51968193D01*
X163105200Y-51964700D01*
X163105598Y-51936180D01*
X163104200Y-51921919D01*
X163602862Y-51921919D01*
X163619542Y-52120566D01*
X163674490Y-52312189D01*
X163765610Y-52489491D01*
X163889433Y-52645717D01*
X164041243Y-52774917D01*
X164046621Y-52777923D01*
X164046623Y-52777924D01*
X164119790Y-52818815D01*
X164215256Y-52872169D01*
X164221115Y-52874073D01*
X164221118Y-52874074D01*
X164281883Y-52893818D01*
X164404845Y-52933771D01*
X164410955Y-52934500D01*
X164410957Y-52934500D01*
X164478494Y-52942553D01*
X164602789Y-52957374D01*
X164608924Y-52956902D01*
X164608926Y-52956902D01*
X164795406Y-52942553D01*
X164795411Y-52942552D01*
X164801547Y-52942080D01*
X164807477Y-52940424D01*
X164807479Y-52940424D01*
X164899794Y-52914649D01*
X164993550Y-52888472D01*
X164999050Y-52885694D01*
X165165982Y-52801371D01*
X165165984Y-52801370D01*
X165171483Y-52798592D01*
X165328570Y-52675862D01*
X165351142Y-52649712D01*
X165454798Y-52529626D01*
X165454799Y-52529624D01*
X165458827Y-52524958D01*
X165557292Y-52351628D01*
X165620215Y-52162474D01*
X165630271Y-52082876D01*
X165644758Y-51968203D01*
X165644759Y-51968193D01*
X165645200Y-51964700D01*
X165645598Y-51936180D01*
X165626145Y-51737786D01*
X165624364Y-51731887D01*
X165624363Y-51731882D01*
X165570309Y-51552847D01*
X165568528Y-51546948D01*
X165474941Y-51370936D01*
X165471051Y-51366166D01*
X165471048Y-51366162D01*
X165352843Y-51221229D01*
X165352840Y-51221226D01*
X165348948Y-51216454D01*
X165195350Y-51089386D01*
X165019995Y-50994572D01*
X164829565Y-50935624D01*
X164823440Y-50934980D01*
X164823439Y-50934980D01*
X164637440Y-50915431D01*
X164637438Y-50915431D01*
X164631311Y-50914787D01*
X164508432Y-50925970D01*
X164438926Y-50932295D01*
X164438925Y-50932295D01*
X164432785Y-50932854D01*
X164426871Y-50934595D01*
X164426869Y-50934595D01*
X164296719Y-50972901D01*
X164241550Y-50989138D01*
X164064889Y-51081494D01*
X164060089Y-51085354D01*
X164060088Y-51085354D01*
X164055073Y-51089386D01*
X163909531Y-51206405D01*
X163781394Y-51359113D01*
X163685359Y-51533801D01*
X163625082Y-51723815D01*
X163602862Y-51921919D01*
X163104200Y-51921919D01*
X163086145Y-51737786D01*
X163084364Y-51731887D01*
X163084363Y-51731882D01*
X163030309Y-51552847D01*
X163028528Y-51546948D01*
X162934941Y-51370936D01*
X162931051Y-51366166D01*
X162931048Y-51366162D01*
X162812843Y-51221229D01*
X162812840Y-51221226D01*
X162808948Y-51216454D01*
X162655350Y-51089386D01*
X162479995Y-50994572D01*
X162289565Y-50935624D01*
X162283440Y-50934980D01*
X162283439Y-50934980D01*
X162097440Y-50915431D01*
X162097438Y-50915431D01*
X162091311Y-50914787D01*
X161968432Y-50925970D01*
X161898926Y-50932295D01*
X161898925Y-50932295D01*
X161892785Y-50932854D01*
X161886871Y-50934595D01*
X161886869Y-50934595D01*
X161756719Y-50972901D01*
X161701550Y-50989138D01*
X161524889Y-51081494D01*
X161520089Y-51085354D01*
X161520088Y-51085354D01*
X161515073Y-51089386D01*
X161369531Y-51206405D01*
X161241394Y-51359113D01*
X161145359Y-51533801D01*
X161085082Y-51723815D01*
X161062862Y-51921919D01*
X160564200Y-51921919D01*
X160546145Y-51737786D01*
X160544364Y-51731887D01*
X160544363Y-51731882D01*
X160490309Y-51552847D01*
X160488528Y-51546948D01*
X160394941Y-51370936D01*
X160391051Y-51366166D01*
X160391048Y-51366162D01*
X160272843Y-51221229D01*
X160272840Y-51221226D01*
X160268948Y-51216454D01*
X160115350Y-51089386D01*
X159939995Y-50994572D01*
X159749565Y-50935624D01*
X159743440Y-50934980D01*
X159743439Y-50934980D01*
X159557440Y-50915431D01*
X159557438Y-50915431D01*
X159551311Y-50914787D01*
X159428432Y-50925970D01*
X159358926Y-50932295D01*
X159358925Y-50932295D01*
X159352785Y-50932854D01*
X159346871Y-50934595D01*
X159346869Y-50934595D01*
X159216719Y-50972901D01*
X159161550Y-50989138D01*
X158984889Y-51081494D01*
X158980089Y-51085354D01*
X158980088Y-51085354D01*
X158975073Y-51089386D01*
X158829531Y-51206405D01*
X158701394Y-51359113D01*
X158605359Y-51533801D01*
X158545082Y-51723815D01*
X158522862Y-51921919D01*
X158024200Y-51921919D01*
X158006145Y-51737786D01*
X158004364Y-51731887D01*
X158004363Y-51731882D01*
X157950309Y-51552847D01*
X157948528Y-51546948D01*
X157854941Y-51370936D01*
X157851051Y-51366166D01*
X157851048Y-51366162D01*
X157732843Y-51221229D01*
X157732840Y-51221226D01*
X157728948Y-51216454D01*
X157575350Y-51089386D01*
X157399995Y-50994572D01*
X157209565Y-50935624D01*
X157203440Y-50934980D01*
X157203439Y-50934980D01*
X157017440Y-50915431D01*
X157017438Y-50915431D01*
X157011311Y-50914787D01*
X156888432Y-50925970D01*
X156818926Y-50932295D01*
X156818925Y-50932295D01*
X156812785Y-50932854D01*
X156806871Y-50934595D01*
X156806869Y-50934595D01*
X156676719Y-50972901D01*
X156621550Y-50989138D01*
X156444889Y-51081494D01*
X156440089Y-51085354D01*
X156440088Y-51085354D01*
X156435073Y-51089386D01*
X156289531Y-51206405D01*
X156161394Y-51359113D01*
X156065359Y-51533801D01*
X156005082Y-51723815D01*
X155982862Y-51921919D01*
X155999542Y-52120566D01*
X156054490Y-52312189D01*
X156145610Y-52489491D01*
X156269433Y-52645717D01*
X156421243Y-52774917D01*
X156499791Y-52818816D01*
X156549496Y-52869508D01*
X156564320Y-52928803D01*
X156564320Y-53575861D01*
X156544318Y-53643982D01*
X156490662Y-53690475D01*
X156420388Y-53700579D01*
X156358005Y-53672946D01*
X156310098Y-53633314D01*
X156310094Y-53633311D01*
X156305350Y-53629386D01*
X156129995Y-53534572D01*
X155939565Y-53475624D01*
X155933440Y-53474980D01*
X155933439Y-53474980D01*
X155747440Y-53455431D01*
X155747438Y-53455431D01*
X155741311Y-53454787D01*
X155618432Y-53465970D01*
X155548926Y-53472295D01*
X155548925Y-53472295D01*
X155542785Y-53472854D01*
X155536871Y-53474595D01*
X155536869Y-53474595D01*
X155458329Y-53497711D01*
X155351550Y-53529138D01*
X155174889Y-53621494D01*
X155170089Y-53625354D01*
X155170088Y-53625354D01*
X155165073Y-53629386D01*
X155019531Y-53746405D01*
X155014396Y-53752525D01*
X155009842Y-53757952D01*
X154950732Y-53797279D01*
X154879745Y-53798405D01*
X154819417Y-53760974D01*
X154788903Y-53696870D01*
X154787320Y-53676961D01*
X154787320Y-52989340D01*
X154807322Y-52921219D01*
X154856510Y-52876874D01*
X154865825Y-52872169D01*
X155005978Y-52801373D01*
X155005984Y-52801370D01*
X155011483Y-52798592D01*
X155168570Y-52675862D01*
X155191142Y-52649712D01*
X155294798Y-52529626D01*
X155294799Y-52529624D01*
X155298827Y-52524958D01*
X155397292Y-52351628D01*
X155460215Y-52162474D01*
X155470271Y-52082876D01*
X155484758Y-51968203D01*
X155484759Y-51968193D01*
X155485200Y-51964700D01*
X155485598Y-51936180D01*
X155466145Y-51737786D01*
X155464364Y-51731887D01*
X155464363Y-51731882D01*
X155410309Y-51552847D01*
X155408528Y-51546948D01*
X155314941Y-51370936D01*
X155311051Y-51366166D01*
X155311048Y-51366162D01*
X155192843Y-51221229D01*
X155192840Y-51221226D01*
X155188948Y-51216454D01*
X155035350Y-51089386D01*
X154859995Y-50994572D01*
X154669565Y-50935624D01*
X154663440Y-50934980D01*
X154663439Y-50934980D01*
X154477440Y-50915431D01*
X154477438Y-50915431D01*
X154471311Y-50914787D01*
X154348432Y-50925970D01*
X154278926Y-50932295D01*
X154278925Y-50932295D01*
X154272785Y-50932854D01*
X154266871Y-50934595D01*
X154266869Y-50934595D01*
X154136719Y-50972901D01*
X154081550Y-50989138D01*
X153904889Y-51081494D01*
X153900089Y-51085354D01*
X153900088Y-51085354D01*
X153895073Y-51089386D01*
X153749531Y-51206405D01*
X153621394Y-51359113D01*
X153525359Y-51533801D01*
X153465082Y-51723815D01*
X153442862Y-51921919D01*
X153459542Y-52120566D01*
X153514490Y-52312189D01*
X153605610Y-52489491D01*
X153729433Y-52645717D01*
X153881243Y-52774917D01*
X153959791Y-52818816D01*
X154009496Y-52869508D01*
X154024320Y-52928803D01*
X154024320Y-53575861D01*
X154004318Y-53643982D01*
X153950662Y-53690475D01*
X153880388Y-53700579D01*
X153818005Y-53672946D01*
X153770098Y-53633314D01*
X153770094Y-53633311D01*
X153765350Y-53629386D01*
X153589995Y-53534572D01*
X153399565Y-53475624D01*
X153393440Y-53474980D01*
X153393439Y-53474980D01*
X153207440Y-53455431D01*
X153207438Y-53455431D01*
X153201311Y-53454787D01*
X153078432Y-53465970D01*
X153008926Y-53472295D01*
X153008925Y-53472295D01*
X153002785Y-53472854D01*
X152996871Y-53474595D01*
X152996869Y-53474595D01*
X152918329Y-53497711D01*
X152811550Y-53529138D01*
X152634889Y-53621494D01*
X152630089Y-53625354D01*
X152630088Y-53625354D01*
X152625073Y-53629386D01*
X152479531Y-53746405D01*
X152474396Y-53752525D01*
X152469842Y-53757952D01*
X152410732Y-53797279D01*
X152339745Y-53798405D01*
X152279417Y-53760974D01*
X152248903Y-53696870D01*
X152247320Y-53676961D01*
X152247320Y-52989340D01*
X152267322Y-52921219D01*
X152316510Y-52876874D01*
X152325825Y-52872169D01*
X152465978Y-52801373D01*
X152465984Y-52801370D01*
X152471483Y-52798592D01*
X152628570Y-52675862D01*
X152651142Y-52649712D01*
X152754798Y-52529626D01*
X152754799Y-52529624D01*
X152758827Y-52524958D01*
X152857292Y-52351628D01*
X152920215Y-52162474D01*
X152930271Y-52082876D01*
X152944758Y-51968203D01*
X152944759Y-51968193D01*
X152945200Y-51964700D01*
X152945598Y-51936180D01*
X152926145Y-51737786D01*
X152924364Y-51731887D01*
X152924363Y-51731882D01*
X152870309Y-51552847D01*
X152868528Y-51546948D01*
X152774941Y-51370936D01*
X152771051Y-51366166D01*
X152771048Y-51366162D01*
X152652843Y-51221229D01*
X152652840Y-51221226D01*
X152648948Y-51216454D01*
X152495350Y-51089386D01*
X152319995Y-50994572D01*
X152129565Y-50935624D01*
X152123440Y-50934980D01*
X152123439Y-50934980D01*
X151937440Y-50915431D01*
X151937438Y-50915431D01*
X151931311Y-50914787D01*
X151808432Y-50925970D01*
X151738926Y-50932295D01*
X151738925Y-50932295D01*
X151732785Y-50932854D01*
X151726871Y-50934595D01*
X151726869Y-50934595D01*
X151596719Y-50972901D01*
X151541550Y-50989138D01*
X151364889Y-51081494D01*
X151360089Y-51085354D01*
X151360088Y-51085354D01*
X151355073Y-51089386D01*
X151209531Y-51206405D01*
X151081394Y-51359113D01*
X150985359Y-51533801D01*
X150925082Y-51723815D01*
X150902862Y-51921919D01*
X150919542Y-52120566D01*
X150974490Y-52312189D01*
X151065610Y-52489491D01*
X151189433Y-52645717D01*
X151341243Y-52774917D01*
X151419791Y-52818816D01*
X151469496Y-52869508D01*
X151484320Y-52928803D01*
X151484320Y-53575861D01*
X151464318Y-53643982D01*
X151410662Y-53690475D01*
X151340388Y-53700579D01*
X151278005Y-53672946D01*
X151230098Y-53633314D01*
X151230094Y-53633311D01*
X151225350Y-53629386D01*
X151049995Y-53534572D01*
X150859565Y-53475624D01*
X150853440Y-53474980D01*
X150853439Y-53474980D01*
X150667440Y-53455431D01*
X150667438Y-53455431D01*
X150661311Y-53454787D01*
X150538432Y-53465970D01*
X150468926Y-53472295D01*
X150468925Y-53472295D01*
X150462785Y-53472854D01*
X150456871Y-53474595D01*
X150456869Y-53474595D01*
X150378329Y-53497711D01*
X150271550Y-53529138D01*
X150094889Y-53621494D01*
X150090089Y-53625354D01*
X150090088Y-53625354D01*
X149970632Y-53721399D01*
X149905010Y-53748495D01*
X149835155Y-53735812D01*
X149783247Y-53687376D01*
X149765680Y-53623202D01*
X149765680Y-52959861D01*
X149785682Y-52891740D01*
X149834870Y-52847395D01*
X149925979Y-52801373D01*
X149925985Y-52801369D01*
X149931483Y-52798592D01*
X150088570Y-52675862D01*
X150111142Y-52649712D01*
X150214798Y-52529626D01*
X150214799Y-52529624D01*
X150218827Y-52524958D01*
X150317292Y-52351628D01*
X150380215Y-52162474D01*
X150390271Y-52082876D01*
X150404758Y-51968203D01*
X150404759Y-51968193D01*
X150405200Y-51964700D01*
X150405598Y-51936180D01*
X150386145Y-51737786D01*
X150384364Y-51731887D01*
X150384363Y-51731882D01*
X150330309Y-51552847D01*
X150328528Y-51546948D01*
X150234941Y-51370936D01*
X150231051Y-51366166D01*
X150231048Y-51366162D01*
X150112843Y-51221229D01*
X150112840Y-51221226D01*
X150108948Y-51216454D01*
X149955350Y-51089386D01*
X149779995Y-50994572D01*
X149589565Y-50935624D01*
X149583440Y-50934980D01*
X149583439Y-50934980D01*
X149397440Y-50915431D01*
X149397438Y-50915431D01*
X149391311Y-50914787D01*
X149268432Y-50925970D01*
X149198926Y-50932295D01*
X149198925Y-50932295D01*
X149192785Y-50932854D01*
X149186871Y-50934595D01*
X149186869Y-50934595D01*
X149056719Y-50972901D01*
X149001550Y-50989138D01*
X148824889Y-51081494D01*
X148820089Y-51085354D01*
X148820088Y-51085354D01*
X148815073Y-51089386D01*
X148669531Y-51206405D01*
X148541394Y-51359113D01*
X148445359Y-51533801D01*
X148385082Y-51723815D01*
X148362862Y-51921919D01*
X148379542Y-52120566D01*
X148434490Y-52312189D01*
X148525610Y-52489491D01*
X148649433Y-52645717D01*
X148801243Y-52774917D01*
X148938151Y-52851432D01*
X148987856Y-52902124D01*
X149002680Y-52961419D01*
X149002680Y-53624141D01*
X148982678Y-53692262D01*
X148929022Y-53738755D01*
X148858748Y-53748859D01*
X148796366Y-53721227D01*
X148685350Y-53629386D01*
X148509995Y-53534572D01*
X148319565Y-53475624D01*
X148313440Y-53474980D01*
X148313439Y-53474980D01*
X148127440Y-53455431D01*
X148127438Y-53455431D01*
X148121311Y-53454787D01*
X147998432Y-53465970D01*
X147928926Y-53472295D01*
X147928925Y-53472295D01*
X147922785Y-53472854D01*
X147916871Y-53474595D01*
X147916869Y-53474595D01*
X147838329Y-53497711D01*
X147731550Y-53529138D01*
X147554889Y-53621494D01*
X147550089Y-53625354D01*
X147550088Y-53625354D01*
X147430632Y-53721399D01*
X147365010Y-53748495D01*
X147295155Y-53735812D01*
X147243247Y-53687376D01*
X147225680Y-53623202D01*
X147225680Y-52959861D01*
X147245682Y-52891740D01*
X147294870Y-52847395D01*
X147385979Y-52801373D01*
X147385985Y-52801369D01*
X147391483Y-52798592D01*
X147548570Y-52675862D01*
X147571142Y-52649712D01*
X147674798Y-52529626D01*
X147674799Y-52529624D01*
X147678827Y-52524958D01*
X147777292Y-52351628D01*
X147840215Y-52162474D01*
X147850271Y-52082876D01*
X147864758Y-51968203D01*
X147864759Y-51968193D01*
X147865200Y-51964700D01*
X147865598Y-51936180D01*
X147846145Y-51737786D01*
X147844364Y-51731887D01*
X147844363Y-51731882D01*
X147790309Y-51552847D01*
X147788528Y-51546948D01*
X147694941Y-51370936D01*
X147691051Y-51366166D01*
X147691048Y-51366162D01*
X147572843Y-51221229D01*
X147572840Y-51221226D01*
X147568948Y-51216454D01*
X147415350Y-51089386D01*
X147239995Y-50994572D01*
X147049565Y-50935624D01*
X147043440Y-50934980D01*
X147043439Y-50934980D01*
X146857440Y-50915431D01*
X146857438Y-50915431D01*
X146851311Y-50914787D01*
X146728432Y-50925970D01*
X146658926Y-50932295D01*
X146658925Y-50932295D01*
X146652785Y-50932854D01*
X146646871Y-50934595D01*
X146646869Y-50934595D01*
X146516719Y-50972901D01*
X146461550Y-50989138D01*
X146284889Y-51081494D01*
X146280089Y-51085354D01*
X146280088Y-51085354D01*
X146275073Y-51089386D01*
X146129531Y-51206405D01*
X146001394Y-51359113D01*
X145905359Y-51533801D01*
X145845082Y-51723815D01*
X145822862Y-51921919D01*
X145839542Y-52120566D01*
X145894490Y-52312189D01*
X145985610Y-52489491D01*
X146109433Y-52645717D01*
X146261243Y-52774917D01*
X146398151Y-52851432D01*
X146447856Y-52902124D01*
X146462680Y-52961419D01*
X146462680Y-53624141D01*
X146442678Y-53692262D01*
X146389022Y-53738755D01*
X146318748Y-53748859D01*
X146256366Y-53721227D01*
X146145350Y-53629386D01*
X145969995Y-53534572D01*
X145779565Y-53475624D01*
X145773440Y-53474980D01*
X145773439Y-53474980D01*
X145587440Y-53455431D01*
X145587438Y-53455431D01*
X145581311Y-53454787D01*
X145458432Y-53465970D01*
X145388926Y-53472295D01*
X145388925Y-53472295D01*
X145382785Y-53472854D01*
X145376871Y-53474595D01*
X145376869Y-53474595D01*
X145298329Y-53497711D01*
X145191550Y-53529138D01*
X145014889Y-53621494D01*
X145010089Y-53625354D01*
X145010088Y-53625354D01*
X144890632Y-53721399D01*
X144825010Y-53748495D01*
X144755155Y-53735812D01*
X144703247Y-53687376D01*
X144685680Y-53623202D01*
X144685680Y-52959861D01*
X144705682Y-52891740D01*
X144754870Y-52847395D01*
X144845979Y-52801373D01*
X144845985Y-52801369D01*
X144851483Y-52798592D01*
X145008570Y-52675862D01*
X145031142Y-52649712D01*
X145134798Y-52529626D01*
X145134799Y-52529624D01*
X145138827Y-52524958D01*
X145237292Y-52351628D01*
X145300215Y-52162474D01*
X145310271Y-52082876D01*
X145324758Y-51968203D01*
X145324759Y-51968193D01*
X145325200Y-51964700D01*
X145325598Y-51936180D01*
X145306145Y-51737786D01*
X145304364Y-51731887D01*
X145304363Y-51731882D01*
X145250309Y-51552847D01*
X145248528Y-51546948D01*
X145154941Y-51370936D01*
X145151051Y-51366166D01*
X145151048Y-51366162D01*
X145032843Y-51221229D01*
X145032840Y-51221226D01*
X145028948Y-51216454D01*
X144875350Y-51089386D01*
X144699995Y-50994572D01*
X144509565Y-50935624D01*
X144503440Y-50934980D01*
X144503439Y-50934980D01*
X144317440Y-50915431D01*
X144317438Y-50915431D01*
X144311311Y-50914787D01*
X144188432Y-50925970D01*
X144118926Y-50932295D01*
X144118925Y-50932295D01*
X144112785Y-50932854D01*
X144106871Y-50934595D01*
X144106869Y-50934595D01*
X143976719Y-50972901D01*
X143921550Y-50989138D01*
X143744889Y-51081494D01*
X143740089Y-51085354D01*
X143740088Y-51085354D01*
X143735073Y-51089386D01*
X143589531Y-51206405D01*
X143461394Y-51359113D01*
X143365359Y-51533801D01*
X143305082Y-51723815D01*
X143282862Y-51921919D01*
X143299542Y-52120566D01*
X143354490Y-52312189D01*
X143445610Y-52489491D01*
X143569433Y-52645717D01*
X143721243Y-52774917D01*
X143858151Y-52851432D01*
X143907856Y-52902124D01*
X143922680Y-52961419D01*
X143922680Y-53624141D01*
X143902678Y-53692262D01*
X143849022Y-53738755D01*
X143778748Y-53748859D01*
X143716366Y-53721227D01*
X143605350Y-53629386D01*
X143429995Y-53534572D01*
X143239565Y-53475624D01*
X143233440Y-53474980D01*
X143233439Y-53474980D01*
X143047440Y-53455431D01*
X143047438Y-53455431D01*
X143041311Y-53454787D01*
X142918432Y-53465970D01*
X142848926Y-53472295D01*
X142848925Y-53472295D01*
X142842785Y-53472854D01*
X142836871Y-53474595D01*
X142836869Y-53474595D01*
X142758329Y-53497711D01*
X142651550Y-53529138D01*
X142474889Y-53621494D01*
X142470089Y-53625354D01*
X142470088Y-53625354D01*
X142465073Y-53629386D01*
X142319531Y-53746405D01*
X142191394Y-53899113D01*
X142095359Y-54073801D01*
X142035082Y-54263815D01*
X142012862Y-54461919D01*
X142029542Y-54660566D01*
X142084490Y-54852189D01*
X142175610Y-55029491D01*
X142299433Y-55185717D01*
X142451243Y-55314917D01*
X142456621Y-55317923D01*
X142456623Y-55317924D01*
X142507482Y-55346348D01*
X142588151Y-55391432D01*
X142637856Y-55442124D01*
X142652680Y-55501419D01*
X142652680Y-56113555D01*
X142632678Y-56181676D01*
X142615775Y-56202650D01*
X140268521Y-58549904D01*
X140249505Y-58565263D01*
X140248444Y-58566229D01*
X140239696Y-58571877D01*
X140233250Y-58580054D01*
X140218771Y-58598420D01*
X140214794Y-58602895D01*
X140214865Y-58602956D01*
X140211512Y-58606913D01*
X140207829Y-58610596D01*
X140204803Y-58614831D01*
X140204801Y-58614833D01*
X140196547Y-58626384D01*
X140192984Y-58631130D01*
X140161066Y-58671618D01*
X140158015Y-58680305D01*
X140152666Y-58687791D01*
X140149683Y-58697767D01*
X140149682Y-58697768D01*
X140137902Y-58737159D01*
X140136072Y-58742791D01*
X140118984Y-58791450D01*
X140118500Y-58797039D01*
X140118500Y-58799750D01*
X140118385Y-58802417D01*
X140118366Y-58802480D01*
X140118192Y-58802473D01*
X140118145Y-58803219D01*
X140116275Y-58809472D01*
X140116684Y-58819876D01*
X140118403Y-58863626D01*
X140118500Y-58868573D01*
X140118500Y-105765230D01*
X140098498Y-105833351D01*
X140044842Y-105879844D01*
X139974568Y-105889948D01*
X139933544Y-105876585D01*
X139922560Y-105870770D01*
X139768919Y-105832178D01*
X139761320Y-105832138D01*
X139761319Y-105832138D01*
X139695467Y-105831793D01*
X139610507Y-105831348D01*
X139603127Y-105833120D01*
X139603125Y-105833120D01*
X139463849Y-105866557D01*
X139463846Y-105866558D01*
X139456470Y-105868329D01*
X139315700Y-105940986D01*
X139309981Y-105945975D01*
X139276534Y-105975153D01*
X139212052Y-106004861D01*
X139141744Y-105994992D01*
X139087934Y-105948678D01*
X139068617Y-105895342D01*
X139067105Y-105882845D01*
X139065276Y-105867733D01*
X139009280Y-105719546D01*
X138919553Y-105588992D01*
X138918971Y-105588473D01*
X138890157Y-105526776D01*
X138899662Y-105456419D01*
X138932886Y-105411972D01*
X138990822Y-105362490D01*
X138990822Y-105362489D01*
X138996600Y-105357555D01*
X139089041Y-105228910D01*
X139148128Y-105081927D01*
X139156800Y-105020989D01*
X139169867Y-104929177D01*
X139169867Y-104929174D01*
X139170448Y-104925093D01*
X139170593Y-104911286D01*
X139151562Y-104754019D01*
X139095566Y-104605832D01*
X139005839Y-104475278D01*
X138887561Y-104369897D01*
X138880175Y-104365986D01*
X138790470Y-104318490D01*
X138747560Y-104295770D01*
X138593919Y-104257178D01*
X138586320Y-104257138D01*
X138586319Y-104257138D01*
X138520467Y-104256793D01*
X138435507Y-104256348D01*
X138428127Y-104258120D01*
X138428125Y-104258120D01*
X138288849Y-104291557D01*
X138288846Y-104291558D01*
X138281470Y-104293329D01*
X138140700Y-104365986D01*
X138021325Y-104470124D01*
X137930236Y-104599730D01*
X137872692Y-104747323D01*
X137871700Y-104754856D01*
X137871700Y-104754857D01*
X137854073Y-104888753D01*
X137852015Y-104904382D01*
X137854830Y-104929877D01*
X137858249Y-104960852D01*
X137845843Y-105030756D01*
X137822105Y-105063773D01*
X136963056Y-105922822D01*
X136900744Y-105956848D01*
X136829929Y-105951783D01*
X136803959Y-105938492D01*
X136734620Y-105892161D01*
X136724301Y-105885266D01*
X136650067Y-105870500D01*
X135875126Y-105870500D01*
X135099934Y-105870501D01*
X135069345Y-105876585D01*
X135037874Y-105882844D01*
X135037872Y-105882845D01*
X135025699Y-105885266D01*
X135015379Y-105892161D01*
X135015378Y-105892162D01*
X135010619Y-105895342D01*
X134941516Y-105941516D01*
X134885266Y-106025699D01*
X134870500Y-106099933D01*
X134870501Y-106357327D01*
X134870501Y-106494500D01*
X134850499Y-106562620D01*
X134796844Y-106609113D01*
X134744501Y-106620500D01*
X134576679Y-106620500D01*
X133875999Y-106620501D01*
X133807879Y-106600499D01*
X133761386Y-106546843D01*
X133750000Y-106494501D01*
X133750000Y-96250000D01*
X130126000Y-96250000D01*
X130057879Y-96229998D01*
X130011386Y-96176342D01*
X130000000Y-96124000D01*
X130000000Y-91979093D01*
X133653171Y-91979093D01*
X133679172Y-92251622D01*
X133744243Y-92517544D01*
X133847019Y-92771287D01*
X133849323Y-92775222D01*
X133849326Y-92775228D01*
X133945460Y-92939411D01*
X133985349Y-93007535D01*
X134156333Y-93221341D01*
X134356390Y-93408224D01*
X134581330Y-93564270D01*
X134826440Y-93686210D01*
X134830774Y-93687631D01*
X134830777Y-93687632D01*
X134909699Y-93713504D01*
X135086586Y-93771490D01*
X135091077Y-93772270D01*
X135091078Y-93772270D01*
X135352537Y-93817668D01*
X135352542Y-93817669D01*
X135356317Y-93818324D01*
X135360154Y-93818515D01*
X135441245Y-93822552D01*
X135441253Y-93822552D01*
X135442816Y-93822630D01*
X135613724Y-93822630D01*
X135615992Y-93822465D01*
X135616004Y-93822465D01*
X135747779Y-93812903D01*
X135817229Y-93807864D01*
X135821684Y-93806880D01*
X135821687Y-93806880D01*
X136080102Y-93749827D01*
X136080105Y-93749826D01*
X136084558Y-93748843D01*
X136091930Y-93746050D01*
X136336299Y-93653468D01*
X136336306Y-93653465D01*
X136340568Y-93651850D01*
X136502923Y-93561670D01*
X136575901Y-93521134D01*
X136575902Y-93521133D01*
X136579894Y-93518916D01*
X136721525Y-93410827D01*
X136793891Y-93355599D01*
X136793892Y-93355598D01*
X136797523Y-93352827D01*
X136988897Y-93157061D01*
X136991586Y-93153367D01*
X137147320Y-92939411D01*
X137147322Y-92939408D01*
X137150007Y-92935719D01*
X137277476Y-92693439D01*
X137368636Y-92435295D01*
X137421577Y-92166695D01*
X137430690Y-91983649D01*
X137434962Y-91897836D01*
X137434962Y-91897830D01*
X137435189Y-91893267D01*
X137409188Y-91620738D01*
X137344117Y-91354816D01*
X137241341Y-91101073D01*
X137239037Y-91097138D01*
X137239034Y-91097132D01*
X137105317Y-90868763D01*
X137105316Y-90868761D01*
X137103011Y-90864825D01*
X136932027Y-90651019D01*
X136731970Y-90464136D01*
X136507030Y-90308090D01*
X136261920Y-90186150D01*
X136257586Y-90184729D01*
X136257583Y-90184728D01*
X136178661Y-90158856D01*
X136001774Y-90100870D01*
X135997282Y-90100090D01*
X135735823Y-90054692D01*
X135735818Y-90054691D01*
X135732043Y-90054036D01*
X135724665Y-90053669D01*
X135647115Y-90049808D01*
X135647107Y-90049808D01*
X135645544Y-90049730D01*
X135474636Y-90049730D01*
X135472368Y-90049895D01*
X135472356Y-90049895D01*
X135340581Y-90059457D01*
X135271131Y-90064496D01*
X135266676Y-90065480D01*
X135266673Y-90065480D01*
X135008258Y-90122533D01*
X135008255Y-90122534D01*
X135003802Y-90123517D01*
X134999534Y-90125134D01*
X134752061Y-90218892D01*
X134752054Y-90218895D01*
X134747792Y-90220510D01*
X134743806Y-90222724D01*
X134743804Y-90222725D01*
X134512459Y-90351226D01*
X134508466Y-90353444D01*
X134504834Y-90356216D01*
X134363425Y-90464136D01*
X134290837Y-90519533D01*
X134099463Y-90715299D01*
X134096776Y-90718991D01*
X134096774Y-90718993D01*
X133993220Y-90861262D01*
X133938353Y-90936641D01*
X133810884Y-91178921D01*
X133719724Y-91437065D01*
X133666783Y-91705665D01*
X133666556Y-91710218D01*
X133666556Y-91710221D01*
X133657444Y-91893267D01*
X133653171Y-91979093D01*
X130000000Y-91979093D01*
X130000000Y-82563673D01*
X133652531Y-82563673D01*
X133678532Y-82836202D01*
X133679616Y-82840632D01*
X133679617Y-82840638D01*
X133688977Y-82878887D01*
X133743603Y-83102124D01*
X133745318Y-83106359D01*
X133745319Y-83106361D01*
X133795196Y-83229501D01*
X133846379Y-83355867D01*
X133848683Y-83359802D01*
X133848686Y-83359808D01*
X133944820Y-83523991D01*
X133984709Y-83592115D01*
X134155693Y-83805921D01*
X134355750Y-83992804D01*
X134580690Y-84148850D01*
X134825800Y-84270790D01*
X134830134Y-84272211D01*
X134830137Y-84272212D01*
X134909059Y-84298084D01*
X135085946Y-84356070D01*
X135090437Y-84356850D01*
X135090438Y-84356850D01*
X135351897Y-84402248D01*
X135351902Y-84402249D01*
X135355677Y-84402904D01*
X135359514Y-84403095D01*
X135440605Y-84407132D01*
X135440613Y-84407132D01*
X135442176Y-84407210D01*
X135613084Y-84407210D01*
X135615352Y-84407045D01*
X135615364Y-84407045D01*
X135747139Y-84397483D01*
X135816589Y-84392444D01*
X135821044Y-84391460D01*
X135821047Y-84391460D01*
X136079462Y-84334407D01*
X136079465Y-84334406D01*
X136083918Y-84333423D01*
X136091290Y-84330630D01*
X136335659Y-84238048D01*
X136335666Y-84238045D01*
X136339928Y-84236430D01*
X136353568Y-84228854D01*
X136575261Y-84105714D01*
X136575262Y-84105713D01*
X136579254Y-84103496D01*
X136720885Y-83995407D01*
X136793251Y-83940179D01*
X136793252Y-83940178D01*
X136796883Y-83937407D01*
X136988257Y-83741641D01*
X136990946Y-83737947D01*
X137146680Y-83523991D01*
X137146682Y-83523988D01*
X137149367Y-83520299D01*
X137276836Y-83278019D01*
X137367996Y-83019875D01*
X137420937Y-82751275D01*
X137421164Y-82746719D01*
X137434322Y-82482416D01*
X137434322Y-82482410D01*
X137434549Y-82477847D01*
X137408548Y-82205318D01*
X137394829Y-82149251D01*
X137344563Y-81943835D01*
X137343477Y-81939396D01*
X137290578Y-81808793D01*
X137242416Y-81689886D01*
X137242413Y-81689881D01*
X137240701Y-81685653D01*
X137238397Y-81681718D01*
X137238394Y-81681712D01*
X137104677Y-81453343D01*
X137104676Y-81453341D01*
X137102371Y-81449405D01*
X136931387Y-81235599D01*
X136731330Y-81048716D01*
X136506390Y-80892670D01*
X136261280Y-80770730D01*
X136256946Y-80769309D01*
X136256943Y-80769308D01*
X136178021Y-80743436D01*
X136001134Y-80685450D01*
X135996642Y-80684670D01*
X135735183Y-80639272D01*
X135735178Y-80639271D01*
X135731403Y-80638616D01*
X135724025Y-80638249D01*
X135646475Y-80634388D01*
X135646467Y-80634388D01*
X135644904Y-80634310D01*
X135473996Y-80634310D01*
X135471728Y-80634475D01*
X135471716Y-80634475D01*
X135339941Y-80644037D01*
X135270491Y-80649076D01*
X135266036Y-80650060D01*
X135266033Y-80650060D01*
X135007618Y-80707113D01*
X135007615Y-80707114D01*
X135003162Y-80708097D01*
X134998894Y-80709714D01*
X134751421Y-80803472D01*
X134751414Y-80803475D01*
X134747152Y-80805090D01*
X134743166Y-80807304D01*
X134743164Y-80807305D01*
X134521471Y-80930445D01*
X134507826Y-80938024D01*
X134504194Y-80940796D01*
X134342842Y-81063936D01*
X134290197Y-81104113D01*
X134098823Y-81299879D01*
X134096136Y-81303571D01*
X134096134Y-81303573D01*
X133992580Y-81445842D01*
X133937713Y-81521221D01*
X133810244Y-81763501D01*
X133719084Y-82021645D01*
X133666143Y-82290245D01*
X133665916Y-82294798D01*
X133665916Y-82294801D01*
X133656804Y-82477847D01*
X133652531Y-82563673D01*
X130000000Y-82563673D01*
X130000000Y-73281193D01*
X133634751Y-73281193D01*
X133660752Y-73553722D01*
X133661836Y-73558152D01*
X133661837Y-73558158D01*
X133669237Y-73588398D01*
X133725823Y-73819644D01*
X133727538Y-73823879D01*
X133727539Y-73823881D01*
X133809316Y-74025779D01*
X133828599Y-74073387D01*
X133830903Y-74077322D01*
X133830906Y-74077328D01*
X133942585Y-74268059D01*
X133966929Y-74309635D01*
X133993962Y-74343438D01*
X134107737Y-74485707D01*
X134137913Y-74523441D01*
X134337970Y-74710324D01*
X134562910Y-74866370D01*
X134808020Y-74988310D01*
X134812354Y-74989731D01*
X134812357Y-74989732D01*
X134891279Y-75015604D01*
X135068166Y-75073590D01*
X135072657Y-75074370D01*
X135072658Y-75074370D01*
X135334117Y-75119768D01*
X135334122Y-75119769D01*
X135337897Y-75120424D01*
X135341734Y-75120615D01*
X135422825Y-75124652D01*
X135422833Y-75124652D01*
X135424396Y-75124730D01*
X135595304Y-75124730D01*
X135597572Y-75124565D01*
X135597584Y-75124565D01*
X135729359Y-75115003D01*
X135798809Y-75109964D01*
X135803264Y-75108980D01*
X135803267Y-75108980D01*
X136061682Y-75051927D01*
X136061685Y-75051926D01*
X136066138Y-75050943D01*
X136147885Y-75019972D01*
X136317879Y-74955568D01*
X136317886Y-74955565D01*
X136322148Y-74953950D01*
X136425380Y-74896610D01*
X136557481Y-74823234D01*
X136557482Y-74823233D01*
X136561474Y-74821016D01*
X136703105Y-74712927D01*
X136775471Y-74657699D01*
X136775472Y-74657698D01*
X136779103Y-74654927D01*
X136970477Y-74459161D01*
X136973166Y-74455467D01*
X137128900Y-74241511D01*
X137128902Y-74241508D01*
X137131587Y-74237819D01*
X137259056Y-73995539D01*
X137350216Y-73737395D01*
X137387315Y-73549173D01*
X137402276Y-73473267D01*
X137402277Y-73473261D01*
X137403157Y-73468795D01*
X137410991Y-73311433D01*
X137416542Y-73199936D01*
X137416542Y-73199930D01*
X137416769Y-73195367D01*
X137390768Y-72922838D01*
X137325697Y-72656916D01*
X137266701Y-72511261D01*
X137224636Y-72407406D01*
X137224633Y-72407401D01*
X137222921Y-72403173D01*
X137220617Y-72399238D01*
X137220614Y-72399232D01*
X137086897Y-72170863D01*
X137086896Y-72170861D01*
X137084591Y-72166925D01*
X136940642Y-71986925D01*
X136916459Y-71956685D01*
X136916457Y-71956683D01*
X136913607Y-71953119D01*
X136713550Y-71766236D01*
X136488610Y-71610190D01*
X136243500Y-71488250D01*
X136239166Y-71486829D01*
X136239163Y-71486828D01*
X136141684Y-71454873D01*
X135983354Y-71402970D01*
X135953694Y-71397820D01*
X135717403Y-71356792D01*
X135717398Y-71356791D01*
X135713623Y-71356136D01*
X135706245Y-71355769D01*
X135628695Y-71351908D01*
X135628687Y-71351908D01*
X135627124Y-71351830D01*
X135456216Y-71351830D01*
X135453948Y-71351995D01*
X135453936Y-71351995D01*
X135322161Y-71361557D01*
X135252711Y-71366596D01*
X135248256Y-71367580D01*
X135248253Y-71367580D01*
X134989838Y-71424633D01*
X134989835Y-71424634D01*
X134985382Y-71425617D01*
X134981114Y-71427234D01*
X134733641Y-71520992D01*
X134733634Y-71520995D01*
X134729372Y-71522610D01*
X134725386Y-71524824D01*
X134725384Y-71524825D01*
X134517256Y-71640430D01*
X134490046Y-71655544D01*
X134486414Y-71658316D01*
X134305381Y-71796476D01*
X134272417Y-71821633D01*
X134081043Y-72017399D01*
X134078356Y-72021091D01*
X134078354Y-72021093D01*
X133952789Y-72193602D01*
X133919933Y-72238741D01*
X133792464Y-72481021D01*
X133701304Y-72739165D01*
X133681728Y-72838486D01*
X133659142Y-72953078D01*
X133648363Y-73007765D01*
X133648136Y-73012318D01*
X133648136Y-73012321D01*
X133637291Y-73230176D01*
X133634751Y-73281193D01*
X130000000Y-73281193D01*
X130000000Y-63899093D01*
X132113171Y-63899093D01*
X132139172Y-64171622D01*
X132204243Y-64437544D01*
X132307019Y-64691287D01*
X132309323Y-64695222D01*
X132309326Y-64695228D01*
X132405460Y-64859411D01*
X132445349Y-64927535D01*
X132616333Y-65141341D01*
X132816390Y-65328224D01*
X133041330Y-65484270D01*
X133286440Y-65606210D01*
X133290774Y-65607631D01*
X133290777Y-65607632D01*
X133369699Y-65633504D01*
X133546586Y-65691490D01*
X133551077Y-65692270D01*
X133551078Y-65692270D01*
X133812537Y-65737668D01*
X133812542Y-65737669D01*
X133816317Y-65738324D01*
X133820154Y-65738515D01*
X133901245Y-65742552D01*
X133901253Y-65742552D01*
X133902816Y-65742630D01*
X134073724Y-65742630D01*
X134075992Y-65742465D01*
X134076004Y-65742465D01*
X134207779Y-65732903D01*
X134277229Y-65727864D01*
X134281684Y-65726880D01*
X134281687Y-65726880D01*
X134540102Y-65669827D01*
X134540105Y-65669826D01*
X134544558Y-65668843D01*
X134551930Y-65666050D01*
X134796299Y-65573468D01*
X134796306Y-65573465D01*
X134800568Y-65571850D01*
X134962923Y-65481670D01*
X135035901Y-65441134D01*
X135035902Y-65441133D01*
X135039894Y-65438916D01*
X135181525Y-65330827D01*
X135253891Y-65275599D01*
X135253892Y-65275598D01*
X135257523Y-65272827D01*
X135448897Y-65077061D01*
X135451586Y-65073367D01*
X135607320Y-64859411D01*
X135607322Y-64859408D01*
X135610007Y-64855719D01*
X135737476Y-64613439D01*
X135828636Y-64355295D01*
X135881577Y-64086695D01*
X135890690Y-63903649D01*
X135894962Y-63817836D01*
X135894962Y-63817830D01*
X135895189Y-63813267D01*
X135869188Y-63540738D01*
X135804117Y-63274816D01*
X135701341Y-63021073D01*
X135699037Y-63017138D01*
X135699034Y-63017132D01*
X135565317Y-62788763D01*
X135565316Y-62788761D01*
X135563011Y-62784825D01*
X135392027Y-62571019D01*
X135191970Y-62384136D01*
X134967030Y-62228090D01*
X134721920Y-62106150D01*
X134717586Y-62104729D01*
X134717583Y-62104728D01*
X134638661Y-62078856D01*
X134461774Y-62020870D01*
X134457282Y-62020090D01*
X134195823Y-61974692D01*
X134195818Y-61974691D01*
X134192043Y-61974036D01*
X134184665Y-61973669D01*
X134107115Y-61969808D01*
X134107107Y-61969808D01*
X134105544Y-61969730D01*
X133934636Y-61969730D01*
X133932368Y-61969895D01*
X133932356Y-61969895D01*
X133800581Y-61979457D01*
X133731131Y-61984496D01*
X133726676Y-61985480D01*
X133726673Y-61985480D01*
X133468258Y-62042533D01*
X133468255Y-62042534D01*
X133463802Y-62043517D01*
X133459534Y-62045134D01*
X133212061Y-62138892D01*
X133212054Y-62138895D01*
X133207792Y-62140510D01*
X133203806Y-62142724D01*
X133203804Y-62142725D01*
X132972459Y-62271226D01*
X132968466Y-62273444D01*
X132964834Y-62276216D01*
X132823425Y-62384136D01*
X132750837Y-62439533D01*
X132747644Y-62442799D01*
X132747642Y-62442801D01*
X132651761Y-62540883D01*
X132559463Y-62635299D01*
X132556776Y-62638991D01*
X132556774Y-62638993D01*
X132453220Y-62781262D01*
X132398353Y-62856641D01*
X132270884Y-63098921D01*
X132179724Y-63357065D01*
X132178844Y-63361531D01*
X132153389Y-63490680D01*
X132126783Y-63625665D01*
X132126556Y-63630218D01*
X132126556Y-63630221D01*
X132117444Y-63813267D01*
X132113171Y-63899093D01*
X130000000Y-63899093D01*
X130000000Y-54461919D01*
X134392862Y-54461919D01*
X134409542Y-54660566D01*
X134464490Y-54852189D01*
X134555610Y-55029491D01*
X134679433Y-55185717D01*
X134831243Y-55314917D01*
X134836621Y-55317923D01*
X134836623Y-55317924D01*
X134922250Y-55365779D01*
X135005256Y-55412169D01*
X135011115Y-55414073D01*
X135011118Y-55414074D01*
X135067267Y-55432318D01*
X135194845Y-55473771D01*
X135200955Y-55474500D01*
X135200957Y-55474500D01*
X135268494Y-55482553D01*
X135392789Y-55497374D01*
X135398924Y-55496902D01*
X135398926Y-55496902D01*
X135585406Y-55482553D01*
X135585411Y-55482552D01*
X135591547Y-55482080D01*
X135597477Y-55480424D01*
X135597479Y-55480424D01*
X135727211Y-55444202D01*
X135783550Y-55428472D01*
X135794076Y-55423155D01*
X135955982Y-55341371D01*
X135955984Y-55341370D01*
X135961483Y-55338592D01*
X136118570Y-55215862D01*
X136129317Y-55203412D01*
X136244798Y-55069626D01*
X136244799Y-55069624D01*
X136248827Y-55064958D01*
X136347292Y-54891628D01*
X136410215Y-54702474D01*
X136416285Y-54654427D01*
X136434758Y-54508203D01*
X136434759Y-54508193D01*
X136435200Y-54504700D01*
X136435598Y-54476180D01*
X136434200Y-54461919D01*
X136932862Y-54461919D01*
X136949542Y-54660566D01*
X137004490Y-54852189D01*
X137095610Y-55029491D01*
X137219433Y-55185717D01*
X137371243Y-55314917D01*
X137376621Y-55317923D01*
X137376623Y-55317924D01*
X137462250Y-55365779D01*
X137545256Y-55412169D01*
X137551115Y-55414073D01*
X137551118Y-55414074D01*
X137607267Y-55432318D01*
X137734845Y-55473771D01*
X137740955Y-55474500D01*
X137740957Y-55474500D01*
X137808494Y-55482553D01*
X137932789Y-55497374D01*
X137938924Y-55496902D01*
X137938926Y-55496902D01*
X138125406Y-55482553D01*
X138125411Y-55482552D01*
X138131547Y-55482080D01*
X138137477Y-55480424D01*
X138137479Y-55480424D01*
X138267211Y-55444202D01*
X138323550Y-55428472D01*
X138334076Y-55423155D01*
X138495982Y-55341371D01*
X138495984Y-55341370D01*
X138501483Y-55338592D01*
X138658570Y-55215862D01*
X138669317Y-55203412D01*
X138784798Y-55069626D01*
X138784799Y-55069624D01*
X138788827Y-55064958D01*
X138887292Y-54891628D01*
X138950215Y-54702474D01*
X138956285Y-54654427D01*
X138974758Y-54508203D01*
X138974759Y-54508193D01*
X138975200Y-54504700D01*
X138975598Y-54476180D01*
X138974200Y-54461919D01*
X139472862Y-54461919D01*
X139489542Y-54660566D01*
X139544490Y-54852189D01*
X139635610Y-55029491D01*
X139759433Y-55185717D01*
X139911243Y-55314917D01*
X139916621Y-55317923D01*
X139916623Y-55317924D01*
X140002250Y-55365779D01*
X140085256Y-55412169D01*
X140091115Y-55414073D01*
X140091118Y-55414074D01*
X140147267Y-55432318D01*
X140274845Y-55473771D01*
X140280955Y-55474500D01*
X140280957Y-55474500D01*
X140348494Y-55482553D01*
X140472789Y-55497374D01*
X140478924Y-55496902D01*
X140478926Y-55496902D01*
X140665406Y-55482553D01*
X140665411Y-55482552D01*
X140671547Y-55482080D01*
X140677477Y-55480424D01*
X140677479Y-55480424D01*
X140807211Y-55444202D01*
X140863550Y-55428472D01*
X140874076Y-55423155D01*
X141035982Y-55341371D01*
X141035984Y-55341370D01*
X141041483Y-55338592D01*
X141198570Y-55215862D01*
X141209317Y-55203412D01*
X141324798Y-55069626D01*
X141324799Y-55069624D01*
X141328827Y-55064958D01*
X141427292Y-54891628D01*
X141490215Y-54702474D01*
X141496285Y-54654427D01*
X141514758Y-54508203D01*
X141514759Y-54508193D01*
X141515200Y-54504700D01*
X141515598Y-54476180D01*
X141496145Y-54277786D01*
X141494364Y-54271887D01*
X141494363Y-54271882D01*
X141440309Y-54092847D01*
X141438528Y-54086948D01*
X141344941Y-53910936D01*
X141341051Y-53906166D01*
X141341048Y-53906162D01*
X141222843Y-53761229D01*
X141222840Y-53761226D01*
X141218948Y-53756454D01*
X141209768Y-53748859D01*
X141070099Y-53633315D01*
X141070098Y-53633314D01*
X141065350Y-53629386D01*
X140889995Y-53534572D01*
X140699565Y-53475624D01*
X140693440Y-53474980D01*
X140693439Y-53474980D01*
X140507440Y-53455431D01*
X140507438Y-53455431D01*
X140501311Y-53454787D01*
X140378432Y-53465970D01*
X140308926Y-53472295D01*
X140308925Y-53472295D01*
X140302785Y-53472854D01*
X140296871Y-53474595D01*
X140296869Y-53474595D01*
X140218329Y-53497711D01*
X140111550Y-53529138D01*
X139934889Y-53621494D01*
X139930089Y-53625354D01*
X139930088Y-53625354D01*
X139925073Y-53629386D01*
X139779531Y-53746405D01*
X139651394Y-53899113D01*
X139555359Y-54073801D01*
X139495082Y-54263815D01*
X139472862Y-54461919D01*
X138974200Y-54461919D01*
X138956145Y-54277786D01*
X138954364Y-54271887D01*
X138954363Y-54271882D01*
X138900309Y-54092847D01*
X138898528Y-54086948D01*
X138804941Y-53910936D01*
X138801051Y-53906166D01*
X138801048Y-53906162D01*
X138682843Y-53761229D01*
X138682840Y-53761226D01*
X138678948Y-53756454D01*
X138669768Y-53748859D01*
X138530099Y-53633315D01*
X138530098Y-53633314D01*
X138525350Y-53629386D01*
X138349995Y-53534572D01*
X138159565Y-53475624D01*
X138153440Y-53474980D01*
X138153439Y-53474980D01*
X137967440Y-53455431D01*
X137967438Y-53455431D01*
X137961311Y-53454787D01*
X137838432Y-53465970D01*
X137768926Y-53472295D01*
X137768925Y-53472295D01*
X137762785Y-53472854D01*
X137756871Y-53474595D01*
X137756869Y-53474595D01*
X137678329Y-53497711D01*
X137571550Y-53529138D01*
X137394889Y-53621494D01*
X137390089Y-53625354D01*
X137390088Y-53625354D01*
X137385073Y-53629386D01*
X137239531Y-53746405D01*
X137111394Y-53899113D01*
X137015359Y-54073801D01*
X136955082Y-54263815D01*
X136932862Y-54461919D01*
X136434200Y-54461919D01*
X136416145Y-54277786D01*
X136414364Y-54271887D01*
X136414363Y-54271882D01*
X136360309Y-54092847D01*
X136358528Y-54086948D01*
X136264941Y-53910936D01*
X136261051Y-53906166D01*
X136261048Y-53906162D01*
X136142843Y-53761229D01*
X136142840Y-53761226D01*
X136138948Y-53756454D01*
X136129768Y-53748859D01*
X135990099Y-53633315D01*
X135990098Y-53633314D01*
X135985350Y-53629386D01*
X135809995Y-53534572D01*
X135619565Y-53475624D01*
X135613440Y-53474980D01*
X135613439Y-53474980D01*
X135427440Y-53455431D01*
X135427438Y-53455431D01*
X135421311Y-53454787D01*
X135298432Y-53465970D01*
X135228926Y-53472295D01*
X135228925Y-53472295D01*
X135222785Y-53472854D01*
X135216871Y-53474595D01*
X135216869Y-53474595D01*
X135138329Y-53497711D01*
X135031550Y-53529138D01*
X134854889Y-53621494D01*
X134850089Y-53625354D01*
X134850088Y-53625354D01*
X134845073Y-53629386D01*
X134699531Y-53746405D01*
X134571394Y-53899113D01*
X134475359Y-54073801D01*
X134415082Y-54263815D01*
X134392862Y-54461919D01*
X130000000Y-54461919D01*
X130000000Y-53296282D01*
X130459321Y-53296282D01*
X130494912Y-53503408D01*
X130567652Y-53700579D01*
X130570604Y-53705540D01*
X130570604Y-53705541D01*
X130601786Y-53757952D01*
X130675106Y-53881192D01*
X130813674Y-54039199D01*
X130978717Y-54169308D01*
X130983833Y-54171999D01*
X130983835Y-54172001D01*
X131147190Y-54257946D01*
X131164707Y-54267162D01*
X131365414Y-54329484D01*
X131371149Y-54330163D01*
X131371150Y-54330163D01*
X131401712Y-54333780D01*
X131536054Y-54349680D01*
X131657496Y-54349680D01*
X131813459Y-54335349D01*
X131819021Y-54333780D01*
X131819023Y-54333780D01*
X131914594Y-54306826D01*
X132015729Y-54278303D01*
X132204217Y-54185351D01*
X132372609Y-54059607D01*
X132444101Y-53982267D01*
X132511347Y-53909521D01*
X132511349Y-53909518D01*
X132515266Y-53905281D01*
X132627411Y-53727542D01*
X132705288Y-53532343D01*
X132706413Y-53526686D01*
X132706415Y-53526680D01*
X132745161Y-53331887D01*
X132745161Y-53331885D01*
X132746288Y-53326220D01*
X132746606Y-53301980D01*
X132748963Y-53121860D01*
X132749039Y-53116078D01*
X132721769Y-52957374D01*
X132714427Y-52914649D01*
X132714427Y-52914648D01*
X132713448Y-52908952D01*
X132640708Y-52711781D01*
X132533254Y-52531168D01*
X132394686Y-52373161D01*
X132229643Y-52243052D01*
X132224527Y-52240361D01*
X132224525Y-52240359D01*
X132048770Y-52147890D01*
X132048768Y-52147889D01*
X132043653Y-52145198D01*
X131842946Y-52082876D01*
X131837211Y-52082197D01*
X131837210Y-52082197D01*
X131788922Y-52076482D01*
X131672306Y-52062680D01*
X131550864Y-52062680D01*
X131394901Y-52077011D01*
X131389339Y-52078580D01*
X131389337Y-52078580D01*
X131293766Y-52105534D01*
X131192631Y-52134057D01*
X131004143Y-52227009D01*
X130835751Y-52352753D01*
X130693094Y-52507079D01*
X130580949Y-52684818D01*
X130503072Y-52880017D01*
X130501947Y-52885674D01*
X130501945Y-52885680D01*
X130463199Y-53080473D01*
X130462072Y-53086140D01*
X130461996Y-53091915D01*
X130461996Y-53091919D01*
X130461680Y-53116078D01*
X130459321Y-53296282D01*
X130000000Y-53296282D01*
X130000000Y-51921919D01*
X135662862Y-51921919D01*
X135679542Y-52120566D01*
X135734490Y-52312189D01*
X135825610Y-52489491D01*
X135949433Y-52645717D01*
X136101243Y-52774917D01*
X136106621Y-52777923D01*
X136106623Y-52777924D01*
X136179790Y-52818815D01*
X136275256Y-52872169D01*
X136281115Y-52874073D01*
X136281118Y-52874074D01*
X136341883Y-52893818D01*
X136464845Y-52933771D01*
X136470955Y-52934500D01*
X136470957Y-52934500D01*
X136538494Y-52942553D01*
X136662789Y-52957374D01*
X136668924Y-52956902D01*
X136668926Y-52956902D01*
X136855406Y-52942553D01*
X136855411Y-52942552D01*
X136861547Y-52942080D01*
X136867477Y-52940424D01*
X136867479Y-52940424D01*
X136959794Y-52914649D01*
X137053550Y-52888472D01*
X137059050Y-52885694D01*
X137225982Y-52801371D01*
X137225984Y-52801370D01*
X137231483Y-52798592D01*
X137388570Y-52675862D01*
X137411142Y-52649712D01*
X137514798Y-52529626D01*
X137514799Y-52529624D01*
X137518827Y-52524958D01*
X137617292Y-52351628D01*
X137680215Y-52162474D01*
X137690271Y-52082876D01*
X137704758Y-51968203D01*
X137704759Y-51968193D01*
X137705200Y-51964700D01*
X137705598Y-51936180D01*
X137704200Y-51921919D01*
X138202862Y-51921919D01*
X138219542Y-52120566D01*
X138274490Y-52312189D01*
X138365610Y-52489491D01*
X138489433Y-52645717D01*
X138641243Y-52774917D01*
X138646621Y-52777923D01*
X138646623Y-52777924D01*
X138719790Y-52818815D01*
X138815256Y-52872169D01*
X138821115Y-52874073D01*
X138821118Y-52874074D01*
X138881883Y-52893818D01*
X139004845Y-52933771D01*
X139010955Y-52934500D01*
X139010957Y-52934500D01*
X139078494Y-52942553D01*
X139202789Y-52957374D01*
X139208924Y-52956902D01*
X139208926Y-52956902D01*
X139395406Y-52942553D01*
X139395411Y-52942552D01*
X139401547Y-52942080D01*
X139407477Y-52940424D01*
X139407479Y-52940424D01*
X139499794Y-52914649D01*
X139593550Y-52888472D01*
X139599050Y-52885694D01*
X139765982Y-52801371D01*
X139765984Y-52801370D01*
X139771483Y-52798592D01*
X139928570Y-52675862D01*
X139951142Y-52649712D01*
X140054798Y-52529626D01*
X140054799Y-52529624D01*
X140058827Y-52524958D01*
X140157292Y-52351628D01*
X140220215Y-52162474D01*
X140230271Y-52082876D01*
X140244758Y-51968203D01*
X140244759Y-51968193D01*
X140245200Y-51964700D01*
X140245598Y-51936180D01*
X140244200Y-51921919D01*
X140742862Y-51921919D01*
X140759542Y-52120566D01*
X140814490Y-52312189D01*
X140905610Y-52489491D01*
X141029433Y-52645717D01*
X141181243Y-52774917D01*
X141186621Y-52777923D01*
X141186623Y-52777924D01*
X141259790Y-52818815D01*
X141355256Y-52872169D01*
X141361115Y-52874073D01*
X141361118Y-52874074D01*
X141421883Y-52893818D01*
X141544845Y-52933771D01*
X141550955Y-52934500D01*
X141550957Y-52934500D01*
X141618494Y-52942553D01*
X141742789Y-52957374D01*
X141748924Y-52956902D01*
X141748926Y-52956902D01*
X141935406Y-52942553D01*
X141935411Y-52942552D01*
X141941547Y-52942080D01*
X141947477Y-52940424D01*
X141947479Y-52940424D01*
X142039794Y-52914649D01*
X142133550Y-52888472D01*
X142139050Y-52885694D01*
X142305982Y-52801371D01*
X142305984Y-52801370D01*
X142311483Y-52798592D01*
X142468570Y-52675862D01*
X142491142Y-52649712D01*
X142594798Y-52529626D01*
X142594799Y-52529624D01*
X142598827Y-52524958D01*
X142697292Y-52351628D01*
X142760215Y-52162474D01*
X142770271Y-52082876D01*
X142784758Y-51968203D01*
X142784759Y-51968193D01*
X142785200Y-51964700D01*
X142785598Y-51936180D01*
X142766145Y-51737786D01*
X142764364Y-51731887D01*
X142764363Y-51731882D01*
X142710309Y-51552847D01*
X142708528Y-51546948D01*
X142614941Y-51370936D01*
X142611051Y-51366166D01*
X142611048Y-51366162D01*
X142492843Y-51221229D01*
X142492840Y-51221226D01*
X142488948Y-51216454D01*
X142335350Y-51089386D01*
X142159995Y-50994572D01*
X141969565Y-50935624D01*
X141963440Y-50934980D01*
X141963439Y-50934980D01*
X141777440Y-50915431D01*
X141777438Y-50915431D01*
X141771311Y-50914787D01*
X141648432Y-50925970D01*
X141578926Y-50932295D01*
X141578925Y-50932295D01*
X141572785Y-50932854D01*
X141566871Y-50934595D01*
X141566869Y-50934595D01*
X141436719Y-50972901D01*
X141381550Y-50989138D01*
X141204889Y-51081494D01*
X141200089Y-51085354D01*
X141200088Y-51085354D01*
X141195073Y-51089386D01*
X141049531Y-51206405D01*
X140921394Y-51359113D01*
X140825359Y-51533801D01*
X140765082Y-51723815D01*
X140742862Y-51921919D01*
X140244200Y-51921919D01*
X140226145Y-51737786D01*
X140224364Y-51731887D01*
X140224363Y-51731882D01*
X140170309Y-51552847D01*
X140168528Y-51546948D01*
X140074941Y-51370936D01*
X140071051Y-51366166D01*
X140071048Y-51366162D01*
X139952843Y-51221229D01*
X139952840Y-51221226D01*
X139948948Y-51216454D01*
X139795350Y-51089386D01*
X139619995Y-50994572D01*
X139429565Y-50935624D01*
X139423440Y-50934980D01*
X139423439Y-50934980D01*
X139237440Y-50915431D01*
X139237438Y-50915431D01*
X139231311Y-50914787D01*
X139108432Y-50925970D01*
X139038926Y-50932295D01*
X139038925Y-50932295D01*
X139032785Y-50932854D01*
X139026871Y-50934595D01*
X139026869Y-50934595D01*
X138896719Y-50972901D01*
X138841550Y-50989138D01*
X138664889Y-51081494D01*
X138660089Y-51085354D01*
X138660088Y-51085354D01*
X138655073Y-51089386D01*
X138509531Y-51206405D01*
X138381394Y-51359113D01*
X138285359Y-51533801D01*
X138225082Y-51723815D01*
X138202862Y-51921919D01*
X137704200Y-51921919D01*
X137686145Y-51737786D01*
X137684364Y-51731887D01*
X137684363Y-51731882D01*
X137630309Y-51552847D01*
X137628528Y-51546948D01*
X137534941Y-51370936D01*
X137531051Y-51366166D01*
X137531048Y-51366162D01*
X137412843Y-51221229D01*
X137412840Y-51221226D01*
X137408948Y-51216454D01*
X137255350Y-51089386D01*
X137079995Y-50994572D01*
X136889565Y-50935624D01*
X136883440Y-50934980D01*
X136883439Y-50934980D01*
X136697440Y-50915431D01*
X136697438Y-50915431D01*
X136691311Y-50914787D01*
X136568432Y-50925970D01*
X136498926Y-50932295D01*
X136498925Y-50932295D01*
X136492785Y-50932854D01*
X136486871Y-50934595D01*
X136486869Y-50934595D01*
X136356719Y-50972901D01*
X136301550Y-50989138D01*
X136124889Y-51081494D01*
X136120089Y-51085354D01*
X136120088Y-51085354D01*
X136115073Y-51089386D01*
X135969531Y-51206405D01*
X135841394Y-51359113D01*
X135745359Y-51533801D01*
X135685082Y-51723815D01*
X135662862Y-51921919D01*
X130000000Y-51921919D01*
X130000000Y-50126000D01*
X130020002Y-50057879D01*
X130073658Y-50011386D01*
X130126000Y-50000000D01*
X171124000Y-50000000D01*
X171192121Y-50020002D01*
G37*
%TD.AperFunction*%
%TA.AperFunction,Conductor*%
G36*
X149972977Y-55231287D02*
G01*
X150060599Y-55305858D01*
X150071243Y-55314917D01*
X150076621Y-55317923D01*
X150076623Y-55317924D01*
X150162250Y-55365779D01*
X150245256Y-55412169D01*
X150251115Y-55414073D01*
X150251118Y-55414074D01*
X150307267Y-55432318D01*
X150434845Y-55473771D01*
X150440955Y-55474500D01*
X150440957Y-55474500D01*
X150508494Y-55482553D01*
X150632789Y-55497374D01*
X150638924Y-55496902D01*
X150638926Y-55496902D01*
X150825406Y-55482553D01*
X150825411Y-55482552D01*
X150831547Y-55482080D01*
X150837477Y-55480424D01*
X150837479Y-55480424D01*
X150967211Y-55444202D01*
X151023550Y-55428472D01*
X151034076Y-55423155D01*
X151195982Y-55341371D01*
X151195984Y-55341370D01*
X151201483Y-55338592D01*
X151290274Y-55269220D01*
X151356267Y-55243044D01*
X151425938Y-55256702D01*
X151477165Y-55305858D01*
X151490243Y-55345441D01*
X151490271Y-55345433D01*
X151490497Y-55346210D01*
X151492973Y-55353705D01*
X151494402Y-55365779D01*
X151498387Y-55374078D01*
X151499898Y-55383155D01*
X151524378Y-55428523D01*
X151527059Y-55433786D01*
X151545947Y-55473122D01*
X151545950Y-55473126D01*
X151549380Y-55480270D01*
X151552990Y-55484564D01*
X151554922Y-55486496D01*
X151556709Y-55488445D01*
X151556738Y-55488498D01*
X151556608Y-55488617D01*
X151557109Y-55489185D01*
X151560208Y-55494929D01*
X151567853Y-55501996D01*
X151600029Y-55531739D01*
X151603595Y-55535169D01*
X156977595Y-60909169D01*
X157011621Y-60971481D01*
X157014500Y-60998264D01*
X157014500Y-62374000D01*
X156994498Y-62442121D01*
X156940842Y-62488614D01*
X156888500Y-62500000D01*
X144361500Y-62500000D01*
X144293379Y-62479998D01*
X144246886Y-62426342D01*
X144235500Y-62374000D01*
X144235500Y-60998264D01*
X144255502Y-60930143D01*
X144272405Y-60909169D01*
X144386471Y-60795103D01*
X150390122Y-60795103D01*
X150394811Y-60801367D01*
X150500801Y-60858915D01*
X150514827Y-60864468D01*
X150653240Y-60900780D01*
X150668190Y-60902827D01*
X150811266Y-60905075D01*
X150826268Y-60903498D01*
X150965759Y-60871550D01*
X150979947Y-60866442D01*
X151107118Y-60802482D01*
X151111683Y-60795488D01*
X151105676Y-60785281D01*
X150762812Y-60442417D01*
X150748868Y-60434803D01*
X150747035Y-60434934D01*
X150740420Y-60439185D01*
X150396882Y-60782723D01*
X150390122Y-60795103D01*
X144386471Y-60795103D01*
X144930923Y-60250651D01*
X150092067Y-60250651D01*
X150107770Y-60392889D01*
X150111213Y-60407570D01*
X150160391Y-60541955D01*
X150167240Y-60555397D01*
X150196426Y-60598831D01*
X150206409Y-60607130D01*
X150220500Y-60599895D01*
X150557583Y-60262812D01*
X150563961Y-60251132D01*
X150934803Y-60251132D01*
X150934934Y-60252965D01*
X150939185Y-60259580D01*
X151280915Y-60601310D01*
X151292925Y-60607868D01*
X151304666Y-60598898D01*
X151322882Y-60573548D01*
X151330145Y-60560336D01*
X151383522Y-60427558D01*
X151387425Y-60412992D01*
X151408078Y-60267877D01*
X151408702Y-60259675D01*
X151408760Y-60254121D01*
X151408308Y-60245907D01*
X151390699Y-60100396D01*
X151387101Y-60085747D01*
X151336519Y-59951884D01*
X151329533Y-59938520D01*
X151303766Y-59901031D01*
X151293513Y-59892687D01*
X151279772Y-59899833D01*
X150942417Y-60237188D01*
X150934803Y-60251132D01*
X150563961Y-60251132D01*
X150565197Y-60248868D01*
X150565066Y-60247035D01*
X150560815Y-60240420D01*
X150219222Y-59898827D01*
X150207413Y-59892378D01*
X150195439Y-59901625D01*
X150173764Y-59932465D01*
X150166635Y-59945762D01*
X150114653Y-60079088D01*
X150110904Y-60093689D01*
X150092224Y-60235570D01*
X150092067Y-60250651D01*
X144930923Y-60250651D01*
X145476739Y-59704835D01*
X150388909Y-59704835D01*
X150391280Y-59711675D01*
X150737188Y-60057583D01*
X150751132Y-60065197D01*
X150752965Y-60065066D01*
X150759580Y-60060815D01*
X151103619Y-59716776D01*
X151110379Y-59704396D01*
X151105869Y-59698372D01*
X150992807Y-59638508D01*
X150978729Y-59633104D01*
X150839941Y-59598243D01*
X150824969Y-59596352D01*
X150681873Y-59595603D01*
X150666897Y-59597335D01*
X150527740Y-59630744D01*
X150513616Y-59635997D01*
X150399111Y-59695098D01*
X150388909Y-59704835D01*
X145476739Y-59704835D01*
X149615656Y-55565918D01*
X149634679Y-55550554D01*
X149635738Y-55549590D01*
X149644484Y-55543943D01*
X149650932Y-55535764D01*
X149650934Y-55535762D01*
X149665414Y-55517395D01*
X149669389Y-55512922D01*
X149669317Y-55512861D01*
X149672670Y-55508904D01*
X149676351Y-55505223D01*
X149687635Y-55489432D01*
X149691199Y-55484686D01*
X149694911Y-55479978D01*
X149723114Y-55444202D01*
X149726164Y-55435517D01*
X149731515Y-55428029D01*
X149746290Y-55378622D01*
X149748106Y-55373035D01*
X149765196Y-55324370D01*
X149765680Y-55318781D01*
X149765680Y-55317402D01*
X149767549Y-55308721D01*
X149769735Y-55309192D01*
X149788350Y-55254616D01*
X149843960Y-55210478D01*
X149914604Y-55203412D01*
X149972977Y-55231287D01*
G37*
%TD.AperFunction*%
%TD*%
M02*
